<?xml version="1.0" encoding="utf-8"?>
<!-- Generator: Adobe Illustrator 16.0.0, SVG Export Plug-In . SVG Version: 6.00 Build 0)  -->
<!DOCTYPE svg PUBLIC "-//W3C//DTD SVG 1.1//EN" "http://www.w3.org/Graphics/SVG/1.1/DTD/svg11.dtd">
<svg version="1.1" id="레이어_1" xmlns="http://www.w3.org/2000/svg" xmlns:xlink="http://www.w3.org/1999/xlink" x="0px"
	 y="0px" width="54px" height="54px" viewBox="0 0 54 54" enable-background="new 0 0 54 54" xml:space="preserve">
<g>
	<path fill="#0085CD" d="M10.185,12.395v26.711h0.008c0.078,1.477,1.297,2.65,2.795,2.65c1.496,0,2.715-1.174,2.793-2.65h0.008
		V12.395H10.185z"/>
	<path fill="#0085CD" d="M43.81,31.553c-0.018-3.729-1.516-5.953-2.771-7.166c-2.758-2.659-6.463-2.697-7.115-2.686h-8.174
		c-0.988,0-1.51-0.223-1.576-0.385v-3.818h17.01v-5.254H18.919v9.165c0,0.459,0.102,2.171,1.531,3.634
		c1.24,1.27,3.023,1.912,5.299,1.912h8.209v0.004l0.072-0.004c0.021,0.002,2.104-0.021,3.383,1.236
		c0.77,0.756,1.143,1.877,1.143,3.428l0.006,0.16c0.002,0.021,0.051,2.148-1.18,3.455c-0.777,0.826-2.016,1.244-3.686,1.244H19.97
		v1.98h13.66c2.23,0,3.951-0.625,5.113-1.857c1.865-1.975,1.721-4.904,1.719-4.934l-0.002-0.041c0-2.094-0.592-3.729-1.76-4.859
		c-1.902-1.844-4.76-1.773-4.785-1.773h-8.23c-1.727,0-3.035-0.443-3.891-1.319c-0.986-1.009-0.971-2.219-0.969-2.271v-7.18h20.291
		v1.313H22.138v5.882c0,0.238,0.1,2.262,3.547,2.262h8.209c0.115-0.006,3.398-0.098,5.711,2.134c1.436,1.385,2.166,3.334,2.17,5.795
		c0.016,0.328,0.117,3.563-2.066,5.885c-1.422,1.512-3.467,2.277-6.078,2.277H19.97v1.961h13.727c3.176,0,5.703-0.975,7.512-2.898
		C43.849,36.027,43.841,32.303,43.81,31.553z"/>
</g>
</svg>
