<?xml version="1.0" encoding="utf-8"?>
<!-- Generator: Adobe Illustrator 16.0.0, SVG Export Plug-In . SVG Version: 6.00 Build 0)  -->
<!DOCTYPE svg PUBLIC "-//W3C//DTD SVG 1.1//EN" "http://www.w3.org/Graphics/SVG/1.1/DTD/svg11.dtd">
<svg version="1.1" id="레이어_1" xmlns="http://www.w3.org/2000/svg" xmlns:xlink="http://www.w3.org/1999/xlink" x="0px"
	 y="0px" width="54px" height="54px" viewBox="0 0 54 54" enable-background="new 0 0 54 54" xml:space="preserve">
<g>
	<path fill="#0087CB" d="M15.016,32.222c-0.199-0.158-0.312-1.865-0.366-1.964c-0.049-0.089-0.847,0.144-1.132,0.245
		c0.413,0.847,0.974,1.833,2.028,2.712c1.355,1.131,2.159,0.791,2.234-0.801C16.647,32.423,15.138,32.318,15.016,32.222z"/>
	<path fill="#0087CB" d="M13.246,29.933c0.738-0.349,2.135-0.585,2.271-0.437c0.183,0.196-0.025,2.097,0.274,2.128
		c0.297,0.029,1.977,0.045,1.943-0.227c-0.059-0.45-0.071-0.79-0.046-1.056c-0.161-2.767-0.165-4.428,0.405-5.361
		c-0.288,0.213-0.598,0.444-0.937,0.694c-1.471,1.081-4.005,2.494-5.583,2.759c-0.211,0.035-0.42,0.125-0.627,0.254
		C12.318,28.1,12.708,28.794,13.246,29.933z"/>
	<path fill="#00A8E7" d="M43.913,31.342c-0.091,0.43-1.72,0.83-2.416,0.857c-1.014,1.334-1.868,3.236-2.646,4.742
		c1.287,0.058,2.513,0.133,3.629,0.232c1.601,0.142,3.042,0.331,4.321,0.549c-0.464-1.498-0.816-2.901-0.868-3.829
		c-0.147-2.651-0.424-3.751-1.966-3.412C43.979,30.782,43.966,31.098,43.913,31.342z"/>
	<path fill="#45B035" d="M32.115,30.509c0,0.005,0,0.015,0,0.021c0.054-0.057,0.106-0.113,0.161-0.173
		C32.177,30.401,32.117,30.451,32.115,30.509z"/>
	<path fill="#00A8E7" d="M17.687,30.342c0.068-0.716,0.426-0.861,0.99-1.035c0.772-0.238,3.562-0.463,3.642-0.139
		c0.108,0.427,0.063,2.18,0.298,2.26c0.255,0.089,0.936,0.073,1.428-0.021c-0.201-0.347-0.4-0.899-0.596-1.709
		c-0.812-3.368-0.984-5.285-1.345-6.481c-0.406,0.219-0.914,0.38-1.545,0.452c-0.277,0.031-0.556,0.067-0.83,0.103
		c-0.451,0.324-0.98,0.72-1.636,1.209C17.522,25.914,17.526,27.575,17.687,30.342z"/>
	<path fill="#00A8E7" d="M25.988,28.958c1.002-0.001,2.386,0.081,2.799,0.421c0.148,0.12,0.171,1.954,0.333,2.086
		c0.159,0.131,1.548,0.197,1.775,0.101c0.225-0.094,0.153-1.77,0.262-2.013c0.059-0.127,1.054-0.203,2.05-0.215
		c1.357-1.536,2.682-3.381,1.82-5.009c-1.176-2.222-2.352-5.762-2.815-7.222c-0.87-0.104-1.614-0.088-1.901,0.161
		c-1.012,0.881-1.768,1.675-2.425,2.368c-0.495,1.382-0.895,3.051-1.248,5.699C26.461,26.65,26.24,27.905,25.988,28.958z"/>
	<path fill="#00A8E7" d="M26.999,36.829c1.299-1.485,2.911-3.108,3.633-4.116c-1.027,0.019-2.402-0.05-2.732-0.457
		c-0.366-0.451-0.069-1.884-0.224-2.012c-0.161-0.131-1.63-0.255-1.857-0.158c-0.226,0.095-0.153,1.771-0.263,2.015
		c-0.112,0.243-3.679,0.298-4.068,0.084c-0.39-0.213-0.34-2.02-0.486-2.059c-0.146-0.041-1.793,0.044-1.979,0.099
		c-0.184,0.057-0.001,1.706,0.01,2.018c0.004,0.119-0.554,0.167-1.254,0.172c-0.075,1.592-0.878,1.932-2.234,0.801
		c-1.054-0.879-1.615-1.865-2.028-2.712c-0.034,0.012-0.061,0.022-0.079,0.03c-0.165,0.074-0.134,1.108-0.155,1.339
		c-0.018,0.235-0.313,0.483-0.42,0.149c-0.108-0.334-0.178-1.19-0.064-1.712c0.028-0.132,0.201-0.261,0.447-0.377
		c-0.538-1.139-0.927-1.833-2.3-1.245c-2.438,1.516-4.542,9.003-4.956,9.948c-0.019,0.044-0.009,0.088,0.012,0.133
		c4.656-0.831,10.831-1.671,13.917-1.772C21.765,36.938,24.254,36.867,26.999,36.829z"/>
	<path fill="#45B035" d="M43.396,30.653c-0.052,0.018-0.096,0.031-0.147,0.053c-0.37,0.141-0.719,0.387-1.055,0.704
		c0.287-0.029,0.946-0.232,1.079-0.293C43.341,31.086,43.376,30.89,43.396,30.653z"/>
	<path fill="#0087CB" d="M22.103,23.217c0.361,1.197,0.533,3.113,1.345,6.481c0.196,0.81,0.396,1.362,0.596,1.709
		c0.314-0.061,0.552-0.15,0.552-0.265c0.005-0.292-0.147-2.074,0.383-2.142c0.168-0.021,0.548-0.041,1.008-0.043
		c0.252-1.053,0.473-2.308,0.649-3.624c0.353-2.648,0.753-4.317,1.248-5.699c-1.557,1.64-2.541,2.688-4.917,2.82
		c0.114-0.169,0.203-0.346,0.26-0.533c0.256-0.847,0.219-3.264-0.279-3.712c-0.003-0.021-0.004-0.036-0.004-0.036
		c-0.676-0.474-1.714-0.629-3.105-0.871c-1.389-0.238-2.229-0.426-2.257,0.456c-0.007,0.288,0.077,1.387,0.235,1.688
		c0.324,0.614,0.738,0.594,2.13,0.633c1.419,0.042,2.458,0.137,2.819-0.128c-0.004,0.3-0.021,0.598-0.06,0.862
		c-0.204,1.387-1.216,1.779-1.903,1.896c-0.604,0.103-1.742,0.431-2.725,0.643c-1.167,0.248-1.292,0.602-1.172,0.76
		c0.058,0.078,1.365-0.146,2.82-0.339c0.274-0.036,0.553-0.072,0.83-0.103C21.189,23.597,21.697,23.436,22.103,23.217z"/>
	<path fill="#0087CB" d="M10.503,22.989c0.276,0.099,0.72-0.125,0.777-0.508c0.057-0.381-0.317-0.799-0.727-0.639
		c-0.444,0.172-0.495,0.601-0.261,0.741C10.25,22.604,10.207,22.883,10.503,22.989z"/>
	<path fill="#0087CB" d="M13.226,22.576c0.194,0.3,0.678,0.424,1.187,0.188s0.404-1.021,0.107-1.354
		c-0.297-0.334-0.893-0.272-1.205,0.042c-0.221,0.227-0.071,0.558-0.071,0.558S12.977,22.187,13.226,22.576z"/>
	<path fill="#0087CB" d="M9.052,14.371c1.371,0.2,2.786,0.401,4.184,0.58c-0.752,0.321-1.769,0.926-2.794,1.585
		c-0.887,0.571-1.869,1.431-1.869,1.431s0.065,0.4,0.889-0.068c1.419-0.809,4.488-1.947,4.847-1.947c0.36,0,0.98,0.162,1.1,0.54
		c0.12,0.38,0.199,1.821,0.1,3.461c-0.1,1.64-0.32,3.44-0.459,3.54s-1.3,0.168-2.586,0.186c-1.292,0.016-2.634-0.346-2.715-0.625
		c-0.041-0.145-0.139-1.148-0.286-2.086c0.675-0.065,3.055-0.396,3.681-0.565c0.796-0.213,1.245-0.535,1.384-0.918
		c0.115-0.319,0.209-2.155-0.878-1.93c-0.878,0.184-2.924,0.602-4.762,1.729c0,0,0,0.007,0.001,0.014
		c-0.208,0.219-0.211,2.172,0.087,3.234c0.256,0.908,1.228,1.469,2.015,1.642c2.266,0.497,4.54,0.298,4.821-0.001
		c0.145-0.156,0.379-0.573,0.797-1.673c0.117-0.31,0.361-1.834,0.361-2.826c0-2.061-0.261-3.86,0.059-3.82
		c0.157,0.018,1.708,0.285,2.853,0.58c1.215,0.313,2.162,0.539,2.167,0.539c0.174,0.007,0.209-0.27-0.429-0.656
		c-0.45-0.273-1.206-0.595-1.789-0.796c0.813,0.016,1.57-0.001,2.238-0.063c3.217-0.299,5.271-1.681,5.479-1.888
		c0.111-0.108,0.123-0.266-0.237-0.325c-0.078-0.013-0.882,0.265-1.86,0.564c-1.969,0.603-10.077-0.074-13.667-0.821
		c-3.26-0.679-7.443-2.694-7.893-2.095C3.599,11.283,4.415,13.698,9.052,14.371z"/>
	<path fill="#0087CB" d="M53.706,40.136c-0.299-0.536-1.679-1.215-4.015-1.812c0.01-0.065,0.011-0.133,0-0.201
		c-0.282-1.901-2.438-7.315-3.518-9.733c-4.851-1.149-8.436-8.669-9.959-10.16c-0.321-0.315-2.38-0.93-4.003-1.123
		c0.464,1.46,1.64,5,2.815,7.222c0.861,1.628-0.463,3.474-1.82,5.009c0.915-0.015,1.831,0.026,2.018,0.129
		c0.39,0.215,0.34,2.019,0.486,2.061c0.146,0.04,1.794-0.045,1.979-0.1c0.184-0.056,0.003-1.708-0.011-2.018
		c-0.009-0.313,3.819-0.136,4.018,0.021c0.199,0.159,0.312,1.864,0.367,1.963c0.009,0.021,0.06,0.023,0.13,0.017
		c0.336-0.317,0.685-0.563,1.055-0.704c0.052-0.021,0.096-0.035,0.147-0.053c0.027-0.331,0.02-0.738,0.032-0.874
		c0.019-0.234,0.314-0.48,0.421-0.148c0.059,0.176,0.104,0.505,0.118,0.851c1.542-0.339,1.818,0.761,1.966,3.412
		c0.052,0.928,0.404,2.331,0.868,3.829c-1.279-0.218-2.721-0.407-4.321-0.549c-1.116-0.1-2.342-0.175-3.629-0.232
		c0.778-1.506,1.633-3.408,2.646-4.742c-0.157,0.007-0.268-0.007-0.301-0.043c-0.183-0.196,0.024-2.097-0.272-2.128
		c-0.299-0.029-1.978-0.046-1.943,0.224c0.215,1.677-0.172,1.854-0.943,2.093c-0.772,0.239-3.563,0.463-3.643,0.142
		c-0.108-0.43-0.063-2.183-0.298-2.263c-0.338-0.118-1.414-0.05-1.82,0.133c-0.055,0.06-0.107,0.116-0.161,0.173
		c0,0.341,0.14,2.056-0.382,2.122c-0.177,0.021-0.599,0.052-1.102,0.062c-0.722,1.008-2.334,2.631-3.633,4.116
		c-2.745,0.038-5.234,0.108-7.08,0.167c-3.086,0.102-9.261,0.941-13.917,1.772c-3.312,0.592-5.856,1.18-5.971,1.497
		c-0.27,0.764,1.224,1.893,3.834,1.776c5.024-0.225,7.581-1.832,12.107,0.354c1.838,0.888,14.979,0.881,16.989,0.771
		c9.413-0.511,13.693-0.169,18.07-0.715C55.309,41.917,53.706,40.136,53.706,40.136z"/>
	<path fill="#FFFFFF" d="M30.896,31.565c-0.228,0.097-1.616,0.03-1.775-0.101c-0.162-0.132-0.185-1.966-0.333-2.086
		c-0.413-0.34-1.797-0.422-2.799-0.421c-0.46,0.002-0.84,0.021-1.008,0.043c-0.53,0.067-0.378,1.85-0.383,2.142
		c0,0.114-0.238,0.204-0.552,0.265c-0.492,0.094-1.173,0.109-1.428,0.021c-0.235-0.08-0.189-1.833-0.298-2.26
		c-0.08-0.324-2.87-0.1-3.642,0.139c-0.564,0.174-0.921,0.319-0.99,1.035c-0.025,0.266-0.013,0.605,0.046,1.056
		c0.034,0.271-1.646,0.256-1.943,0.227c-0.299-0.031-0.091-1.932-0.274-2.128c-0.136-0.148-1.533,0.088-2.271,0.437
		c-0.246,0.116-0.419,0.245-0.447,0.377c-0.113,0.521-0.043,1.378,0.064,1.712c0.107,0.334,0.403,0.086,0.42-0.149
		c0.021-0.23-0.009-1.265,0.155-1.339c0.018-0.008,0.045-0.019,0.079-0.03c0.285-0.102,1.083-0.334,1.132-0.245
		c0.055,0.099,0.167,1.806,0.366,1.964c0.122,0.097,1.631,0.201,2.763,0.192c0.7-0.005,1.258-0.053,1.254-0.172
		c-0.012-0.312-0.194-1.961-0.01-2.018c0.185-0.055,1.833-0.14,1.979-0.099c0.146,0.039,0.097,1.846,0.486,2.059
		c0.389,0.214,3.956,0.159,4.068-0.084c0.109-0.244,0.037-1.92,0.263-2.015c0.227-0.097,1.696,0.027,1.857,0.158
		c0.155,0.128-0.142,1.561,0.224,2.012c0.33,0.407,1.705,0.476,2.732,0.457c0.503-0.01,0.925-0.04,1.102-0.062
		c0.521-0.066,0.382-1.781,0.382-2.122c0-0.006,0-0.016,0-0.021c0.002-0.058,0.062-0.107,0.161-0.152
		c0.406-0.183,1.482-0.251,1.82-0.133c0.235,0.08,0.189,1.833,0.298,2.263c0.08,0.321,2.87,0.098,3.643-0.142
		c0.771-0.238,1.158-0.416,0.943-2.093c-0.034-0.27,1.645-0.253,1.943-0.224c0.297,0.031,0.09,1.932,0.272,2.128
		c0.033,0.036,0.144,0.05,0.301,0.043c0.696-0.027,2.325-0.428,2.416-0.857c0.053-0.244,0.065-0.56,0.054-0.86
		c-0.014-0.346-0.06-0.675-0.118-0.851c-0.106-0.332-0.402-0.086-0.421,0.148c-0.013,0.136-0.005,0.543-0.032,0.874
		c-0.02,0.236-0.055,0.433-0.123,0.464c-0.133,0.061-0.792,0.264-1.079,0.293c-0.07,0.007-0.121,0.004-0.13-0.017
		c-0.056-0.099-0.168-1.804-0.367-1.963c-0.198-0.156-4.026-0.334-4.018-0.021c0.014,0.31,0.194,1.962,0.011,2.018
		c-0.185,0.055-1.832,0.14-1.979,0.1c-0.146-0.042-0.097-1.846-0.486-2.061c-0.187-0.103-1.103-0.144-2.018-0.129
		c-0.996,0.012-1.991,0.088-2.05,0.215C31.049,29.796,31.12,31.472,30.896,31.565z"/>
</g>
</svg>
