<?xml version="1.0" encoding="utf-8"?>
<!-- Generator: Adobe Illustrator 16.0.0, SVG Export Plug-In . SVG Version: 6.00 Build 0)  -->
<!DOCTYPE svg PUBLIC "-//W3C//DTD SVG 1.1//EN" "http://www.w3.org/Graphics/SVG/1.1/DTD/svg11.dtd">
<svg version="1.1" id="레이어_1" xmlns="http://www.w3.org/2000/svg" xmlns:xlink="http://www.w3.org/1999/xlink" x="0px"
	 y="0px" width="54px" height="54px" viewBox="0 0 54 54" enable-background="new 0 0 54 54" xml:space="preserve">
<g>
	<g>
		<path fill="#0085CD" d="M27,41.316c-0.622,0-1.166-0.277-1.66-0.85c-0.396-0.457-1.313-0.873-1.923-0.873H10.158v-1.295h13.259
			c0.984,0,2.26,0.579,2.902,1.319c0.246,0.286,0.444,0.403,0.681,0.403c0.237,0,0.435-0.117,0.681-0.403
			c0.643-0.74,1.917-1.319,2.902-1.319h13.575v1.295H30.583c-0.61,0-1.526,0.416-1.924,0.873C28.165,41.039,27.622,41.316,27,41.316
			z"/>
		<path fill="#0085CD" d="M27,41.146c-0.569,0-1.07-0.259-1.531-0.79c-0.43-0.497-1.389-0.933-2.052-0.933H10.33v-0.952h13.087
			c0.941,0,2.159,0.554,2.772,1.26c0.279,0.325,0.522,0.462,0.811,0.462s0.531-0.137,0.811-0.462c0.612-0.706,1.83-1.26,2.772-1.26
			h13.403v0.952H30.583c-0.663,0-1.622,0.436-2.053,0.933C28.069,40.887,27.569,41.146,27,41.146z"/>
	</g>
	<g>
		<path fill="#0085CD" d="M27.318,44.675c-1.846,0-2.824-0.5-3.605-1.039c-0.431-0.299-0.791-0.549-1.02-0.549H9.377
			c-0.357,0-0.647-0.291-0.647-0.647v-2.804h1.297v2.155h12.667c0.632,0,1.156,0.362,1.711,0.747
			c0.77,0.531,1.501,0.841,2.914,0.841c1.043,0,2.143-0.311,2.868-0.81c0.6-0.416,1.123-0.778,1.755-0.778h12.667v-2.155h1.297
			v2.804c0,0.356-0.29,0.647-0.647,0.647H31.941c-0.229,0-0.59,0.251-0.972,0.517C29.994,44.276,28.613,44.675,27.318,44.675z"/>
		<path fill="#0085CD" d="M27.318,44.503c-1.8,0-2.75-0.484-3.51-1.009l-0.046-0.033c-0.422-0.293-0.788-0.545-1.069-0.545H9.377
			c-0.262,0-0.477-0.214-0.477-0.477v-2.632h0.954v2.155h12.839c0.579,0,1.08,0.347,1.613,0.716l0.048,0.032
			c0.748,0.518,1.506,0.84,2.964,0.84c1.078,0,2.214-0.323,2.966-0.841l0.045-0.031c0.532-0.369,1.034-0.716,1.612-0.716H44.78
			v-2.155h0.953v2.632c0,0.263-0.214,0.477-0.476,0.477H31.941c-0.281,0-0.646,0.252-1.07,0.546l-0.047,0.032
			C29.924,44.116,28.58,44.503,27.318,44.503z"/>
	</g>
	<g>
		<path fill="#0085CD" d="M8.742,25.624c-0.357,0-0.647-0.291-0.647-0.647c0-4.324,8.304-7.71,18.905-7.71s18.905,3.386,18.905,7.71
			c0,0.356-0.29,0.647-0.647,0.647H8.742z M44.512,24.328C43.564,21.13,35.826,18.563,27,18.563S10.436,21.13,9.487,24.328H44.512z"
			/>
		<path fill="#0085CD" d="M45.258,25.452H8.742c-0.263,0-0.477-0.214-0.477-0.476c0-4.229,8.23-7.538,18.734-7.538
			s18.733,3.31,18.733,7.538C45.733,25.238,45.52,25.452,45.258,25.452z M9.268,24.499h35.464
			c-0.683-3.356-8.524-6.108-17.731-6.108S9.951,21.143,9.268,24.499z"/>
	</g>
	<g>
		<path fill="#0085CD" d="M33.931,18.311V18.14c0-3.633-3.108-6.587-6.931-6.587s-6.931,2.954-6.931,6.587v0.171h-1.295V18.14
			c0-4.346,3.689-7.882,8.226-7.882s8.226,3.536,8.226,7.882v0.171H33.931z"/>
		<path fill="#0085CD" d="M35.055,18.14h-0.952c0-3.727-3.187-6.758-7.103-6.758s-7.103,3.031-7.103,6.758h-0.952
			c0-4.252,3.614-7.71,8.055-7.71C31.441,10.43,35.055,13.888,35.055,18.14z"/>
	</g>
	<g>
		<path fill="#0085CD" d="M26.841,36.736c-0.357,0-0.647-0.29-0.647-0.648v-3.81c0-0.357,0.29-0.647,0.647-0.647
			s0.648,0.29,0.648,0.647v3.81C27.489,36.446,27.198,36.736,26.841,36.736z"/>
		<path fill="#0085CD" d="M26.841,36.564c-0.263,0-0.477-0.212-0.477-0.477v-3.81c0-0.263,0.214-0.477,0.477-0.477
			s0.478,0.214,0.478,0.477v3.81C27.318,36.353,27.104,36.564,26.841,36.564z"/>
	</g>
	<g>
		<path fill="#0085CD" d="M32.512,36.728c-0.28,0-0.525-0.179-0.613-0.443L30.52,32.15c-0.056-0.165-0.042-0.341,0.034-0.495
			c0.078-0.155,0.211-0.27,0.376-0.324c0.066-0.023,0.135-0.033,0.204-0.033c0.279,0,0.526,0.178,0.614,0.441l1.377,4.136
			c0.056,0.164,0.043,0.34-0.035,0.495c-0.077,0.153-0.211,0.27-0.374,0.323C32.654,36.715,32.584,36.728,32.512,36.728z"/>
		<path fill="#0085CD" d="M32.512,36.556c-0.199,0-0.386-0.126-0.452-0.326l-1.377-4.134c-0.084-0.249,0.051-0.52,0.301-0.603
			c0.249-0.083,0.519,0.053,0.602,0.301l1.378,4.135c0.083,0.249-0.051,0.52-0.301,0.602C32.612,36.548,32.562,36.556,32.512,36.556
			z"/>
	</g>
	<g>
		<path fill="#0085CD" d="M20.799,36.728c-0.071,0-0.142-0.013-0.207-0.035c-0.161-0.053-0.294-0.169-0.372-0.324
			c-0.077-0.154-0.089-0.33-0.034-0.493l1.378-4.136c0.088-0.264,0.335-0.441,0.614-0.441c0.069,0,0.138,0.01,0.205,0.033
			c0.163,0.055,0.297,0.17,0.373,0.324c0.077,0.154,0.09,0.33,0.035,0.495l-1.377,4.134C21.325,36.549,21.078,36.728,20.799,36.728z
			"/>
		<path fill="#0085CD" d="M20.799,36.556c-0.05,0-0.1-0.008-0.148-0.025c-0.252-0.082-0.387-0.353-0.302-0.602l1.377-4.135
			c0.083-0.248,0.354-0.384,0.603-0.301s0.384,0.354,0.302,0.603l-1.379,4.134C21.185,36.43,20.999,36.556,20.799,36.556z"/>
	</g>
	<g>
		<path fill="#0085CD" d="M36.301,33.972c-0.267,0-0.502-0.161-0.601-0.409l-0.688-1.721c-0.065-0.16-0.063-0.335,0.005-0.494
			c0.067-0.16,0.192-0.284,0.354-0.348c0.077-0.031,0.158-0.047,0.24-0.047c0.267,0,0.503,0.159,0.602,0.407l0.689,1.723
			c0.133,0.33-0.029,0.708-0.361,0.841C36.466,33.955,36.385,33.972,36.301,33.972z"/>
		<path fill="#0085CD" d="M36.301,33.8c-0.188,0-0.367-0.114-0.442-0.301l-0.688-1.722c-0.1-0.244,0.02-0.521,0.265-0.618
			c0.244-0.098,0.521,0.02,0.618,0.265l0.689,1.723c0.098,0.243-0.022,0.521-0.266,0.618C36.419,33.79,36.359,33.8,36.301,33.8z"/>
	</g>
	<g>
		<path fill="#0085CD" d="M17.699,33.972c-0.085,0-0.167-0.017-0.243-0.049c-0.159-0.063-0.284-0.186-0.354-0.346
			c-0.067-0.158-0.069-0.334-0.005-0.494l0.689-1.723c0.099-0.248,0.335-0.407,0.602-0.407c0.082,0,0.163,0.016,0.24,0.047
			c0.162,0.063,0.287,0.188,0.355,0.348c0.067,0.159,0.069,0.334,0.004,0.495l-0.688,1.72
			C18.201,33.811,17.965,33.972,17.699,33.972z"/>
		<path fill="#0085CD" d="M17.699,33.8c-0.06,0-0.119-0.01-0.177-0.035c-0.244-0.098-0.363-0.375-0.266-0.618l0.689-1.723
			c0.098-0.245,0.374-0.362,0.618-0.265c0.245,0.097,0.364,0.374,0.265,0.618l-0.688,1.722C18.066,33.686,17.888,33.8,17.699,33.8z"
			/>
	</g>
	<g>
		<path fill="#0085CD" d="M21.488,30.387c-0.193,0-0.374-0.085-0.498-0.233l-4.077-4.895l0.994-0.83l3.885,4.662h10.416l2.13-2.556
			l0.996,0.828l-2.325,2.79c-0.123,0.148-0.305,0.233-0.497,0.233H21.488z"/>
		<path fill="#0085CD" d="M32.512,30.216H21.488c-0.142,0-0.275-0.063-0.365-0.173l-3.969-4.763l0.731-0.609l3.826,4.592h10.576
			l2.072-2.486l0.732,0.608l-2.215,2.658C32.787,30.152,32.653,30.216,32.512,30.216z"/>
	</g>
	<g>
		<path fill="#0085CD" d="M12.188,28.114c-1.497,0-2.715-1.217-2.715-2.714v-0.172h1.295V25.4c0,0.783,0.638,1.419,1.42,1.419
			s1.418-0.636,1.418-1.419v-0.172h1.297V25.4C14.902,26.897,13.685,28.114,12.188,28.114z"/>
		<path fill="#0085CD" d="M12.188,27.943c-1.402,0-2.543-1.142-2.543-2.543h0.952c0,0.876,0.713,1.591,1.591,1.591
			c0.876,0,1.59-0.715,1.59-1.591h0.953C14.73,26.802,13.59,27.943,12.188,27.943z"/>
	</g>
	<g>
		<path fill="#0085CD" d="M41.813,28.114c-1.497,0-2.715-1.217-2.715-2.714v-0.172h1.296V25.4c0,0.783,0.636,1.419,1.419,1.419
			c0.782,0,1.419-0.636,1.419-1.419v-0.172h1.296V25.4C44.527,26.897,43.31,28.114,41.813,28.114z"/>
		<path fill="#0085CD" d="M41.813,27.943c-1.402,0-2.543-1.142-2.543-2.543h0.952c0,0.876,0.714,1.591,1.591,1.591
			s1.59-0.715,1.59-1.591h0.953C44.355,26.802,43.216,27.943,41.813,27.943z"/>
	</g>
	<g>
		<path fill="#0085CD" d="M27,28.114c-1.498,0-2.715-1.217-2.715-2.714v-0.172h1.295V25.4c0,0.783,0.638,1.419,1.42,1.419
			s1.419-0.636,1.419-1.419v-0.172h1.296V25.4C29.715,26.897,28.498,28.114,27,28.114z"/>
		<path fill="#0085CD" d="M27,27.943c-1.402,0-2.544-1.142-2.544-2.543h0.953c0,0.876,0.714,1.591,1.591,1.591
			c0.876,0,1.59-0.715,1.59-1.591h0.954C29.544,26.802,28.402,27.943,27,27.943z"/>
	</g>
	<g>
		<path fill="#0085CD" d="M22.242,15.863l0.086-0.149c0.997-1.772,2.918-2.873,5.016-2.873h0.172v1.296h-0.172
			c-1.631,0-3.12,0.848-3.889,2.212l-0.084,0.149L22.242,15.863z"/>
		<path fill="#0085CD" d="M23.307,16.266l-0.83-0.468c0.967-1.718,2.832-2.786,4.867-2.786v0.953
			C25.652,13.965,24.104,14.847,23.307,16.266z"/>
	</g>
	<g>
		<path fill="#0085CD" d="M42.816,34.623c-0.159-0.291-0.396-0.529-0.688-0.689l-0.887-0.484l0.887-0.484
			c0.292-0.16,0.53-0.398,0.688-0.689l0.486-0.887l0.483,0.887c0.161,0.292,0.398,0.53,0.689,0.689l0.887,0.484l-0.887,0.484
			c-0.291,0.159-0.528,0.398-0.69,0.69l-0.482,0.886L42.816,34.623z"/>
		<path fill="#0085CD" d="M43.303,31.746l0.333,0.61c0.176,0.32,0.438,0.584,0.758,0.759l0.61,0.334l-0.61,0.334
			c-0.319,0.175-0.582,0.438-0.758,0.758l-0.333,0.612l-0.335-0.612c-0.174-0.319-0.438-0.583-0.758-0.758l-0.611-0.334l0.611-0.334
			c0.319-0.175,0.584-0.438,0.758-0.759L43.303,31.746z"/>
	</g>
	<g>
		<path fill="#0085CD" d="M13.618,16.241c-0.237,0-0.455-0.131-0.569-0.339L12.5,14.896c-0.23-0.421-0.575-0.766-0.995-0.994
			l-1.007-0.551c-0.208-0.113-0.338-0.332-0.338-0.569s0.13-0.455,0.338-0.568l1.007-0.551c0.421-0.23,0.766-0.574,0.995-0.994
			l0.549-1.006c0.114-0.209,0.331-0.338,0.569-0.338c0.237,0,0.455,0.129,0.568,0.338l0.551,1.006
			c0.229,0.42,0.572,0.764,0.993,0.994l1.009,0.551c0.207,0.113,0.336,0.332,0.336,0.568c0,0.237-0.129,0.456-0.335,0.568
			l-1.01,0.552c-0.42,0.229-0.764,0.573-0.993,0.994l-0.551,1.006C14.073,16.11,13.855,16.241,13.618,16.241z M12.158,12.782
			c0.614,0.345,1.117,0.849,1.46,1.461c0.343-0.613,0.847-1.117,1.46-1.461c-0.613-0.344-1.117-0.846-1.46-1.459
			C13.274,11.936,12.772,12.438,12.158,12.782z"/>
		<path fill="#0085CD" d="M13.618,16.069c-0.174,0-0.335-0.096-0.418-0.249l-0.551-1.005c-0.246-0.45-0.614-0.818-1.062-1.064
			l-1.008-0.55c-0.153-0.085-0.248-0.244-0.248-0.419c0-0.174,0.095-0.334,0.248-0.418l1.008-0.551
			c0.448-0.246,0.815-0.612,1.062-1.063L13.2,9.745c0.083-0.153,0.244-0.248,0.418-0.248c0.175,0,0.334,0.095,0.418,0.248
			l0.55,1.006c0.246,0.45,0.614,0.816,1.063,1.063l1.007,0.551c0.153,0.084,0.247,0.244,0.247,0.418
			c0,0.175-0.094,0.334-0.247,0.419l-1.007,0.55c-0.449,0.246-0.817,0.614-1.063,1.064l-0.55,1.005
			C13.952,15.974,13.793,16.069,13.618,16.069z M11.802,12.782l0.243,0.133c0.608,0.334,1.106,0.833,1.44,1.441l0.133,0.243
			l0.133-0.243c0.333-0.608,0.832-1.107,1.442-1.441l0.242-0.133l-0.242-0.133c-0.61-0.334-1.109-0.832-1.442-1.44l-0.133-0.243
			l-0.133,0.243c-0.334,0.608-0.832,1.106-1.44,1.44L11.802,12.782z"/>
	</g>
</g>
</svg>
