<?xml version="1.0" encoding="utf-8"?>
<!-- Generator: Adobe Illustrator 16.0.0, SVG Export Plug-In . SVG Version: 6.00 Build 0)  -->
<!DOCTYPE svg PUBLIC "-//W3C//DTD SVG 1.1//EN" "http://www.w3.org/Graphics/SVG/1.1/DTD/svg11.dtd">
<svg version="1.1" id="레이어_1" xmlns="http://www.w3.org/2000/svg" xmlns:xlink="http://www.w3.org/1999/xlink" x="0px"
	 y="0px" width="54px" height="54px" viewBox="0 0 54 54" enable-background="new 0 0 54 54" xml:space="preserve">
<g>
	<path fill="#0085CD" d="M52.86,45.181c-0.266,0-0.536-0.032-0.797-0.098c-0.537-0.133-1.309-0.473-1.973-1.34
		c-0.664,0.867-1.435,1.207-1.973,1.34c-0.073,0.02-0.147,0.035-0.22,0.046c-0.035,0.009-0.239,0.052-0.545,0.052
		c-0.335,0-0.543-0.043-0.581-0.052c-0.068-0.011-0.141-0.026-0.218-0.046c-0.536-0.133-1.308-0.473-1.971-1.34
		c-0.664,0.867-1.436,1.207-1.972,1.34c-0.261,0.065-0.529,0.098-0.797,0.098c-0.334,0-0.551-0.052-0.561-0.054
		c-0.246-0.06-0.401-0.31-0.343-0.558c0.051-0.209,0.236-0.354,0.451-0.354c0.037,0,0.073,0.003,0.108,0.012
		c0.013,0.004,0.145,0.032,0.35,0.032c0.549,0,1.585-0.202,2.343-1.558c0.081-0.147,0.235-0.237,0.404-0.237
		c0.2,0,0.355-0.017,0.436,0.128C45.599,43.658,46.368,44,46.908,44h0.873c0.527,0,1.296-0.344,1.889-1.408
		c0.083-0.145,0.237-0.183,0.405-0.183c0.199,0,0.354,0.117,0.437,0.265c0.756,1.354,1.793,1.572,2.344,1.572
		c0.205,0,0.337-0.024,0.352-0.026c0.034-0.008,0.069-0.009,0.103-0.009c0.217,0,0.401,0.148,0.451,0.36
		c0.059,0.246-0.096,0.497-0.343,0.556C53.418,45.127,53.204,45.181,52.86,45.181z"/>
	<path fill="#0085CD" d="M52.86,45.106c-0.218,0-0.485-0.021-0.779-0.094c-0.569-0.142-1.337-0.499-1.99-1.391
		c-0.653,0.892-1.423,1.249-1.991,1.391c-0.071,0.018-0.144,0.035-0.213,0.046c-0.047,0.01-0.245,0.048-0.533,0.048
		c-0.01,0-0.021,0-0.031,0c-0.29,0-0.486-0.038-0.532-0.048c-0.071-0.011-0.143-0.028-0.217-0.046
		c-0.567-0.142-1.337-0.499-1.989-1.391c-0.653,0.892-1.423,1.249-1.991,1.391c-0.727,0.18-1.296,0.048-1.32,0.043
		c-0.209-0.05-0.337-0.261-0.288-0.47c0.051-0.21,0.26-0.338,0.47-0.287c0.066,0.016,1.699,0.358,2.773-1.563
		c0.068-0.122,0.198-0.198,0.341-0.198h0.033c0.141,0,0.271,0.076,0.339,0.198c0.601,1.074,1.375,1.44,1.954,1.551h0.887
		c0.58-0.11,1.354-0.477,1.953-1.551c0.068-0.122,0.198-0.198,0.341-0.198h0.032c0.143,0,0.271,0.076,0.341,0.198
		c1.071,1.922,2.706,1.579,2.775,1.562c0.208-0.046,0.418,0.084,0.466,0.292c0.05,0.208-0.078,0.417-0.288,0.467
		C53.388,45.059,53.181,45.106,52.86,45.106L52.86,45.106z"/>
	<path fill="#0085CD" d="M47.336,43c-0.317,0-0.512-0.639-0.563-0.649c-0.068-0.013-0.141-0.327-0.218-0.345
		c-0.536-0.133-1.308-0.624-1.971-1.488c-0.664,0.864-1.436,1.131-1.972,1.264c-0.261,0.064-0.529,0.061-0.797,0.061
		c-0.334,0-0.551-0.07-0.561-0.074c-0.119-0.027-0.222-0.112-0.286-0.216c-0.064-0.105-0.085-0.235-0.057-0.354
		c0.051-0.21,0.236-0.357,0.451-0.357c0.037,0,0.073,0,0.108,0.01c0.004,0,0.139,0.031,0.35,0.031c0.55,0,1.585-0.202,2.343-1.559
		c0.081-0.145,0.235-0.236,0.404-0.236c0.2,0,0.355,0.672,0.436,0.818C45.599,40.97,46.368,42,46.908,42h0.873
		c0.527,0,1.296-1.031,1.889-2.095c0.083-0.146,0.237-0.527,0.405-0.527c0.199,0,0.354-0.055,0.437,0.09
		c0.756,1.357,1.793,1.487,2.343,1.487c0.206,0,0.338-0.067,0.353-0.069c0.034-0.009,0.069-0.029,0.103-0.029
		c0.217,0,0.401,0.139,0.451,0.349c0.059,0.247-0.096,0.492-0.343,0.551c0,0-0.219,0.052-0.558,0.052
		c-0.269,0-0.537-0.036-0.797-0.102c-0.537-0.133-1.309-0.474-1.973-1.339c-0.664,0.865-1.435,1.206-1.973,1.339
		c-0.073,0.02-0.147,0.633-0.22,0.646C47.85,42.364,47.655,43,47.37,43H47.336z"/>
	<path fill="#0085CD" d="M52.86,41.73c-0.218,0-0.485-0.022-0.779-0.095c-0.569-0.141-1.337-0.499-1.99-1.39
		c-0.653,0.891-1.423,1.249-1.991,1.39c-0.071,0.018-0.144,0.033-0.213,0.046c-0.048,0.01-0.252,0.053-0.55,0.049
		c-0.297,0.004-0.501-0.039-0.547-0.049c-0.071-0.013-0.143-0.028-0.217-0.046c-0.567-0.141-1.337-0.499-1.989-1.39
		c-0.653,0.891-1.423,1.249-1.991,1.39c-0.727,0.181-1.296,0.048-1.32,0.044c-0.209-0.051-0.337-0.26-0.288-0.47
		c0.051-0.21,0.26-0.338,0.47-0.289c0.066,0.016,1.699,0.359,2.773-1.562c0.068-0.125,0.198-0.2,0.341-0.2h0.033
		c0.141,0,0.271,0.075,0.339,0.2c0.601,1.074,1.375,1.44,1.954,1.551h0.887c0.58-0.111,1.354-0.477,1.953-1.551
		c0.068-0.125,0.198-0.2,0.341-0.2h0.032c0.143,0,0.271,0.075,0.341,0.2c1.071,1.921,2.706,1.577,2.775,1.562
		c0.208-0.048,0.418,0.084,0.466,0.29c0.05,0.21-0.078,0.418-0.288,0.469C53.388,41.682,53.181,41.73,52.86,41.73L52.86,41.73z"/>
	<path fill="#0085CD" d="M52.86,48.558c-0.266,0-0.536-0.033-0.797-0.098c-0.537-0.132-1.309-0.474-1.973-1.339
		c-0.664,0.865-1.435,1.207-1.973,1.339c-0.073,0.019-0.147,0.253-0.22,0.269C47.746,48.762,47.564,49,47.376,49
		c0,0-0.042,0-0.044,0c-0.276,0-0.467-0.254-0.558-0.271c-0.07-0.012-0.143-0.14-0.22-0.158c-0.536-0.133-1.308-0.529-1.971-1.395
		c-0.664,0.865-1.436,1.182-1.972,1.314c-0.261,0.063-0.529,0.079-0.797,0.079c-0.334,0-0.551-0.056-0.561-0.06
		c-0.119-0.027-0.222-0.105-0.286-0.21c-0.064-0.105-0.085-0.232-0.057-0.351c0.051-0.21,0.236-0.356,0.451-0.356
		c0.037,0,0.073,0.002,0.108,0.013c0.001,0,0.136,0.029,0.35,0.029c0.55,0,1.585-0.202,2.343-1.558
		c0.081-0.146,0.235-0.236,0.404-0.236c0.2,0,0.355-0.205,0.436-0.06C45.599,46.845,46.368,47,46.908,47h0.873
		c0.527,0,1.296-0.153,1.889-1.219c0.083-0.144,0.237-0.088,0.405-0.088c0.199,0,0.354,0.165,0.437,0.311
		c0.756,1.355,1.793,1.592,2.344,1.592c0.211,0,0.346-0.009,0.352-0.011c0.034-0.008,0.069-0.002,0.103-0.002
		c0.217,0,0.401,0.152,0.451,0.361c0.059,0.247-0.096,0.499-0.343,0.558C53.418,48.502,53.204,48.558,52.86,48.558z"/>
	<path fill="#0085CD" d="M52.86,48.484c-0.218,0-0.485-0.022-0.779-0.096c-0.569-0.139-1.337-0.498-1.99-1.39
		c-0.653,0.892-1.423,1.251-1.991,1.39c-0.071,0.02-0.144,0.035-0.213,0.046c-0.048,0.01-0.252,0.053-0.55,0.05
		c-0.005,0-0.011,0-0.015,0c-0.29,0-0.486-0.04-0.532-0.05c-0.071-0.011-0.143-0.026-0.217-0.046
		c-0.567-0.139-1.337-0.498-1.989-1.39c-0.653,0.892-1.423,1.251-1.991,1.39c-0.727,0.182-1.296,0.051-1.32,0.045
		c-0.209-0.052-0.337-0.261-0.288-0.47c0.051-0.21,0.26-0.339,0.47-0.289c0.066,0.016,1.699,0.359,2.773-1.562
		c0.068-0.124,0.198-0.2,0.341-0.2h0.033c0.141,0,0.271,0.076,0.339,0.2c0.601,1.073,1.375,1.44,1.954,1.552h0.887
		c0.58-0.111,1.354-0.479,1.953-1.552c0.068-0.124,0.198-0.2,0.341-0.2h0.032c0.143,0,0.271,0.076,0.341,0.2
		c1.071,1.921,2.706,1.577,2.775,1.562c0.208-0.047,0.418,0.083,0.466,0.29c0.05,0.21-0.078,0.417-0.288,0.469
		C53.388,48.435,53.181,48.484,52.86,48.484L52.86,48.484z"/>
	<path fill="#0085CD" d="M39.5,48.581c-0.255,0-0.5-0.208-0.5-0.463V37h-2v11.118c0,0.255,0,0.463,0,0.463c-1,0,0-0.208,0-0.463V37
		h-1.889C34.857,37,34,36.59,34,36.333v-3.717C34,32.361,34.857,32,35.111,32h0.49C35.726,31,37,30.062,37,29.804v-1.814
		c0-0.256,0.246-0.464,0.5-0.464c0.256,0,0.5,0.208,0.5,0.464v1.814c1,0.141,1.188,0.534,1.506,1.325
		C39.648,31.48,39.833,32,39.881,32h0.486C40.622,32,41,32.361,41,32.616v3.717C41,36.59,40.622,37,40.367,37H40v11.118
		C40,48.373,39.755,48.581,39.5,48.581z M39.601,35.212v-1.8h-0.9v1.8H39.601z M37.8,35.212v-1.8H36.9v1.8H37.8z M36,35.605v-2.089
		l0,0V35.605L36,35.605z M38.933,33c-0.135-1-0.446-2-1.103-2h-0.18c-0.676,0-0.986,1-1.102,2H38.933z"/>
	<path fill="#0085CD" d="M40.367,32.228h-0.548c-0.043-0.241-0.127-0.616-0.28-0.996c-0.384-0.944-0.934-1.278-1.409-1.368v-1.874
		c0-0.216-0.174-0.39-0.39-0.39s-0.39,0.174-0.39,0.39v1.873c-1.193,0.221-1.58,1.739-1.688,2.365h-0.552
		c-0.213,0-0.389,0.175-0.389,0.389v3.717c0,0.216,0.176,0.391,0.389,0.391h0.696v11.395c0,0.216,0.174,0.39,0.39,0.39
		s0.389-0.174,0.389-0.39V36.724h2.307v11.395c0,0.216,0.177,0.39,0.39,0.39c0.215,0,0.391-0.174,0.391-0.39V36.724h0.694
		c0.217,0,0.39-0.175,0.39-0.391v-3.717C40.757,32.402,40.584,32.228,40.367,32.228L40.367,32.228z M36.487,35.944h-0.983v-2.939
		h0.983V35.944L36.487,35.944z M38.214,35.944h-0.948v-2.939h0.948V35.944L38.214,35.944z M36.458,32.228
		c0.117-0.562,0.438-1.612,1.192-1.612h0.18c0.754,0,1.075,1.051,1.192,1.612H36.458L36.458,32.228z M39.979,35.944h-0.985v-2.939
		h0.985V35.944L39.979,35.944z"/>
	<path fill="#0085CD" d="M38.064,42.244c-0.255,0-0.365-0.207-0.365-0.463V41.42c0-0.255,0.11-0.463,0.365-0.463
		s0.366,0.208,0.366,0.463v0.361C38.431,42.037,38.319,42.244,38.064,42.244z"/>
	<path fill="#0085CD" d="M38.014,41.031c-0.215,0-0.391,0.174-0.391,0.389v0.361c0,0.217,0.176,0.391,0.391,0.391
		c0.214,0,0.391-0.174,0.391-0.391V41.42C38.404,41.205,38.228,41.031,38.014,41.031L38.014,41.031z"/>
	<path fill="#0085CD" d="M38.064,45.407c-0.255,0-0.365-0.207-0.365-0.463v-0.362c0-0.254,0.11-0.462,0.365-0.462
		s0.366,0.208,0.366,0.462v0.362C38.431,45.2,38.319,45.407,38.064,45.407z"/>
	<path fill="#0085CD" d="M38.014,44.194c-0.215,0-0.391,0.174-0.391,0.388v0.362c0,0.217,0.176,0.39,0.391,0.39
		c0.214,0,0.391-0.173,0.391-0.39v-0.362C38.404,44.368,38.228,44.194,38.014,44.194L38.014,44.194z"/>
	<path fill="#0085CD" d="M13.032,33.343c-0.673-0.021-1.331-0.216-1.903-0.561c-0.27,0.07-0.562,0.107-0.867,0.107
		c-0.045,0-0.091-0.001-0.138-0.002c-0.659-0.021-1.301-0.215-1.857-0.558c-1.171-0.719-1.218-1.635-1.215-1.813
		c-0.003-0.174,0.042-1.09,1.215-1.811c0.231-0.142,0.484-0.26,0.751-0.353c0.144-0.361,0.482-0.852,1.278-1.201
		c0.448-0.197,0.926-0.297,1.42-0.297c0.124,0,0.249,0.007,0.374,0.02c0.474,0.051,0.887,0.179,1.229,0.379
		c0.496,0.293,0.823,0.725,0.972,1.28c0.007,0.023,0.012,0.047,0.017,0.071l0.011,0.005c0.041,0.012,0.081,0.025,0.12,0.041
		c0.586,0.244,1.01,0.665,1.255,1.248c0.131,0.311,0.198,0.643,0.198,0.984c0,0.341-0.067,0.671-0.198,0.981
		c-0.246,0.584-0.669,1.006-1.255,1.249c-0.367,0.153-0.792,0.23-1.262,0.23C13.129,33.346,13.081,33.344,13.032,33.343z M13.063,29
		c-0.184,0-0.372,0.203-0.556,0.246c-0.128,0.027-0.254,0.152-0.378,0.195c-0.12,0.045-0.24,0.14-0.356,0.199
		c-0.065,0.035-0.128,0.094-0.191,0.131c-0.241,0.146-0.436,0.326-0.578,0.509c-0.082,0.105-0.144,0.217-0.186,0.322
		c-0.061,0.156-0.058,0.263-0.058,0.264c0,0.031,0,0.06,0.008,0.105c0.024,0.158,0.126,0.47,0.527,0.799
		c0.086,0.071,0.183,0.141,0.287,0.204l0.044,0.026c0.141,0.083,0.271-0.063,0.406-0.009C12.363,32.125,12.709,32,13.063,32
		c0.039,0,0.077,0,0.115,0c0.346,0,0.651,0.157,0.905,0.052c0.36-0.149,0.608-0.29,0.759-0.649c0.083-0.199,0.125-0.354,0.125-0.569
		c0-0.218-0.041-0.401-0.125-0.601c-0.131-0.309-0.333-0.519-0.618-0.672c-0.044-0.024-0.091-0.039-0.141-0.061
		c-0.068-0.028-0.14-0.049-0.214-0.071c-0.105-0.028-0.227-0.222-0.373-0.237C13.386,29.179,13.273,29,13.154,29H13.063z M10.154,29
		c-0.121,0-0.24,0.053-0.359,0.071c-0.124,0.02-0.249,0.067-0.37,0.104c-0.121,0.035-0.241,0.09-0.357,0.143
		c-0.109,0.048-0.216,0.109-0.317,0.172c-0.781,0.48-0.775,0.992-0.775,1.014c0,0.031-0.006,0.576,0.774,1.058
		C9.171,31.818,9.656,31,10.154,32h0.06c-0.356-1-0.381-0.965-0.379-1.098c-0.001-0.06,0.003-0.195,0.042-0.365
		c0.032-0.133,0.08-0.274,0.145-0.407c0.058-0.119,0.129-0.239,0.213-0.353c0.167-0.229,0.385-0.477,0.648-0.665
		C10.693,29.063,10.484,29,10.259,29H10.154z M10.378,28.151c0.406,0.011,0.774,0.085,1.096,0.219
		c0.159,0.066,0.311-0.062,0.455,0.038C12.29,28.292,12.661,28,13.032,28h0.112c0.034,0,0.067,0,0.099,0
		c-0.096,0-0.227-0.061-0.396-0.159c-0.227-0.136-0.515-0.113-0.855-0.152c-0.092-0.009-0.185,0.041-0.277,0.041
		c-0.365,0-0.717,0.099-1.048,0.245C10.561,28.02,10.466,28.096,10.378,28.151z"/>
	<path fill="#0085CD" d="M15.627,29.93c-0.239-0.567-0.647-0.972-1.216-1.21c-0.054-0.022-0.112-0.038-0.167-0.056
		c-0.008-0.037-0.014-0.074-0.024-0.111c-0.144-0.536-0.459-0.952-0.939-1.236c-0.333-0.195-0.736-0.318-1.198-0.367
		c-0.601-0.063-1.208,0.029-1.757,0.271c-0.815,0.357-1.13,0.865-1.252,1.193c-0.268,0.089-0.527,0.208-0.769,0.356
		c-1.129,0.693-1.184,1.556-1.181,1.751c-0.002,0.194,0.054,1.056,1.181,1.748c0.545,0.335,1.175,0.523,1.82,0.546
		c0.047,0.001,0.092,0.001,0.137,0.001c0.317,0,0.609-0.038,0.877-0.112c0.568,0.349,1.224,0.544,1.895,0.566
		c0.047,0.001,0.095,0.003,0.143,0.003c0.46,0,0.875-0.077,1.234-0.225c0.569-0.237,0.978-0.644,1.216-1.209
		c0.127-0.302,0.192-0.623,0.192-0.954C15.819,30.553,15.754,30.231,15.627,29.93L15.627,29.93z M10.637,27.933
		c0.339-0.147,0.706-0.224,1.077-0.224c0.095,0,0.191,0.005,0.285,0.014c0.351,0.037,0.649,0.128,0.885,0.268
		c0.22,0.13,0.381,0.299,0.486,0.512c-0.11-0.005-0.221-0.01-0.337-0.004l0,0c-0.383,0.013-0.76,0.083-1.118,0.204
		c-0.142-0.104-0.298-0.192-0.469-0.264c-0.374-0.157-0.81-0.228-1.295-0.213C10.272,28.125,10.429,28.025,10.637,27.933
		L10.637,27.933z M10.358,32.033c-0.067,0.001-0.135,0.005-0.207,0.001c-0.511-0.017-1.008-0.164-1.438-0.429
		c-0.816-0.501-0.811-1.053-0.81-1.075c0-0.009,0-0.016,0-0.023c0-0.022-0.007-0.573,0.81-1.074
		c0.104-0.064,0.213-0.121,0.325-0.171c0.119-0.054,0.241-0.102,0.366-0.139c0.125-0.036,0.251-0.064,0.38-0.086
		c0.121-0.019,0.244-0.031,0.367-0.036c0.341-0.01,0.641,0.033,0.899,0.122c-0.346,0.226-0.588,0.466-0.757,0.695
		c-0.086,0.115-0.153,0.229-0.206,0.338c-0.07,0.143-0.113,0.274-0.139,0.388c-0.037,0.16-0.042,0.282-0.041,0.342
		C9.906,31.026,9.936,31.509,10.358,32.033L10.358,32.033z M14.909,31.534c-0.158,0.378-0.419,0.637-0.797,0.794
		c-0.292,0.122-0.646,0.177-1.052,0.164c-0.364-0.013-0.721-0.09-1.055-0.225c-0.137-0.055-0.269-0.119-0.395-0.191
		c-0.022-0.014-0.045-0.025-0.066-0.038c-0.113-0.071-0.21-0.141-0.295-0.211c-0.425-0.348-0.528-0.688-0.553-0.843
		c-0.009-0.052-0.009-0.085-0.009-0.09c0-0.008,0-0.015,0-0.021c0-0.011,0-0.124,0.064-0.29c0.037-0.098,0.099-0.213,0.195-0.338
		c0.128-0.163,0.316-0.342,0.598-0.515c0.063-0.039,0.129-0.075,0.195-0.109c0.118-0.061,0.239-0.114,0.365-0.16
		c0.126-0.047,0.255-0.083,0.387-0.112c0.186-0.04,0.376-0.066,0.569-0.072c0.157-0.005,0.304,0.004,0.445,0.018
		c0.135,0.015,0.265,0.036,0.384,0.07c0.078,0.021,0.152,0.045,0.223,0.075c0.051,0.021,0.1,0.045,0.147,0.069
		c0.299,0.162,0.513,0.398,0.65,0.723c0.088,0.207,0.132,0.426,0.132,0.653C15.041,31.111,14.997,31.33,14.909,31.534L14.909,31.534
		z"/>
	<path fill="#0085CD" d="M53.166,32.334c-0.035,0-0.072-0.334-0.115-0.334c-0.006,0-0.015,0-0.021,0c-0.044,0-0.09,0.31-0.136,0.294
		l-8.582-3.063c0,0-0.149,0.347-0.211,0.457l4.492,1.824c0.237,0.092,0.354,0.383,0.258,0.62c-0.07,0.178-0.237,0.303-0.429,0.303
		c-0.059,0-0.114-0.006-0.171-0.028l-4.583-1.82c-0.057,0.113-0.11,0.225-0.162,0.328l1.376,0.57
		c0.114,0.046,0.202,0.136,0.251,0.25c0.046,0.114,0.046,0.238,0,0.353c-0.072,0.174-0.24,0.286-0.427,0.286
		c-0.061,0-0.12-0.013-0.179-0.034l-1.423-0.589c-0.099,0.212-0.159,0.352-0.174,0.383c-0.076,0.176-0.243,0.286-0.428,0.286
		c-0.063,0-0.125-0.015-0.186-0.04c-0.232-0.102-0.34-0.375-0.238-0.609c0.025-0.057,0.624-1.421,1.399-2.788
		c1.516-2.669,2.357-2.979,2.858-2.979c1.18,0,1.958,1.203,2.338,1.982c0.13-0.106,0.271-0.191,0.419-0.253
		c0.194-0.081,0.398-0.122,0.609-0.122c0.246,0,0.505,0.056,0.769,0.165c1.369,0.568,2.938,3.847,3.112,4.219
		c0.109,0.23,0.009,0.349-0.222,0.458C53.3,32.479,53.234,32.334,53.166,32.334z M52.231,31.374c-0.11-0.2-0.226-0.404-0.347-0.606
		l-6.825-2.578c-0.085,0.12-0.172,0.253-0.264,0.396L52.231,31.374z M50.994,29.443c-0.343-0.438-0.645-0.719-0.877-0.814
		c-0.153-0.063-0.288-0.093-0.411-0.093c-0.093,0-0.175,0.017-0.257,0.048c-0.09,0.038-0.174,0.098-0.253,0.18L50.994,29.443z
		 M47.761,28.22c-0.288-0.546-0.795-1.292-1.424-1.292c-0.024,0-0.239,0.014-0.682,0.498L47.761,28.22z"/>
	<path fill="#0085CD" d="M53.52,32.024c-0.174-0.369-1.729-3.623-3.075-4.183c-0.475-0.196-0.92-0.212-1.323-0.043
		c-0.188,0.079-0.344,0.188-0.47,0.306c-0.377-0.802-1.144-2.03-2.314-2.03c-0.483,0-1.297,0.305-2.793,2.944
		c-0.78,1.374-1.373,2.725-1.397,2.78c-0.086,0.198,0.004,0.427,0.202,0.514c0.196,0.086,0.425-0.005,0.513-0.202
		c0.001-0.003,0.078-0.177,0.206-0.455l1.488,0.615c0.05,0.021,0.099,0.029,0.15,0.029c0.15,0,0.297-0.091,0.359-0.24
		c0.081-0.2-0.012-0.428-0.212-0.509l-1.449-0.599c0.072-0.145,0.147-0.298,0.229-0.454l4.644,1.846
		c0.048,0.018,0.096,0.027,0.145,0.027c0.154,0,0.3-0.093,0.361-0.246c0.08-0.2-0.019-0.426-0.217-0.505l-4.569-1.816
		c0.073-0.135,0.149-0.27,0.227-0.407c0.019-0.032,0.035-0.063,0.055-0.095l8.642,3.24c0.046,0.017,0.092,0.026,0.138,0.026
		c0.003,0,0.008-0.003,0.012-0.003c0.03,0.007,0.064,0.013,0.097,0.013c0.055,0,0.111-0.012,0.164-0.036
		C53.524,32.45,53.61,32.219,53.52,32.024L53.52,32.024z M49.422,28.518c0.207-0.086,0.443-0.072,0.724,0.045
		c0.31,0.127,0.684,0.525,1.063,1.037l-2.138-0.807C49.156,28.69,49.271,28.58,49.422,28.518L49.422,28.518z M46.337,26.854
		c0.684,0,1.244,0.819,1.573,1.5l-2.38-0.898C46.017,26.899,46.27,26.854,46.337,26.854L46.337,26.854z M44.687,28.622
		c0.121-0.194,0.238-0.368,0.345-0.521l6.904,2.609c0.16,0.269,0.313,0.539,0.451,0.801L44.687,28.622L44.687,28.622z"/>
	<path fill="#0085CD" d="M32.638,27C32.382,27,32,26.039,32,25.783v-1.739c0-0.201-0.171-0.91-1.007-0.91
		c-0.835,0-1.007,0.709-1.054,0.926l0.025,2.101c0,0.255-0.187,0.84-0.44,0.84h-5.662c-0.255,0-0.462-1.244-0.462-1.5
		c0-0.254,0.208-1.5,0.462-1.5h0.628l0,0h-1.388c-0.256,0-0.464,0-0.464,0s0.208,0,0.464,0H25v-1h-2.742
		c-0.255,0-0.462-0.245-0.462-0.5c0-0.254,0.208-0.5,0.462-0.5H27v-1h-0.354C26.389,21,26,21.287,26,21.033v-0.349l0,0v0.303
		C26,21.241,25.676,21,25.42,21h-1.511C23.655,21,23,21.241,23,20.987V21h-1v0.051c0,0.255,0.256,0.463,0,0.463
		c-0.255,0,0-0.208,0-0.463v-0.855C22,19.94,21.967,20,22.222,20h1.687C24.166,20,25,19.94,25,20.196v0.532l0,0v-0.53
		C25,19.943,25.166,20,25.42,20h1.226C26.899,20,27,19.943,27,20.198v0.781l0,0v-0.781c0-0.168,0-0.323,0-0.404v-1.267
		c0-0.175-0.548-0.403-0.917-0.681c-0.787-0.598-0.675-1.226-0.687-1.295c-0.02-0.134,0.131-0.278,0.218-0.38
		c0.089-0.103,0.33-0.17,0.465-0.17H29v-0.725C29,15.021,28.265,15,28.519,15h2.511c0.02,0,0.037,0.003,0.057,0.005
		C31.093,15.003,31.112,15,31.132,15h2.509C33.896,15,33,15.021,33,15.275V16h3.081c0.136,0,0.264,0.067,0.351,0.17
		c0.088,0.103-0.002,0.243-0.023,0.376C36.4,16.6,37,17.854,34,18.521v1.272c0,0.082,0,0.236,0,0.404v0.781l0,0v-0.781
		C34,19.943,35.261,20,35.515,20h1.17C36.938,20,37,19.943,37,20.198V21h1v-0.859C38,19.885,37.93,20,38.184,20h1.514
		C39.954,20,40,19.885,40,20.141v0.997c0,0.255-0.245,0.463-0.5,0.463S39,21.393,39,21.137v-0.159l0,0v0.028
		C39,21.263,38.439,21,38.184,21h-1.499C36.429,21,37,21.263,37,21.006v-0.028l0,0v0.054C37,21.287,35.771,21,35.515,21H34v1h5.666
		c0.254,0,0.461,0.246,0.461,0.5c0,0.255-0.207,0.5-0.461,0.5H38v1h0.868c0.256,0,0.462,0,0.462,0s-0.206,0-0.462,0h-3.087l0,0
		h2.324c0.256,0,0.463,1.246,0.463,1.5c0,0.256-0.207,1.5-0.463,1.5H32.638z M35.874,25.429v-1.095h-1.46v1.095H35.874z
		 M33.318,25.429v-1.095h-0.364v1.095H33.318z M28.939,25.429v-1.095h-0.367v1.095H28.939z M27.843,25.429v-1.095h-1.461v1.095
		H27.843z M36.97,23.604v-0.731h-1.46v0.731H36.97z M34.2,23.512v-0.9h-1.755c0.221,0,0.402,0.9,0.523,0.9H34.2z M29.193,24
		c0.12-1,0.301-1,0.521-1H27v1H29.193z M27,23.512v-0.9h-1.8v0.9H27z M33,22v-1h-1v0.033C32,21.287,32.108,21,31.854,21H30.37
		C30.116,21,31,21.287,31,21.033V21h-2v1H33z M31.493,20.684v-0.486c0-0.186,0.059-0.349,0.227-0.422l-0.027-0.85
		c-0.173,0.006-0.362,0.009-0.549,0.009c-0.017,0-0.041-0.001-0.057-0.003c-0.018,0.002-0.084,0.003-0.102,0.003
		c-0.184,0-0.222-0.003-0.587-0.009v0.828c0.365,0.055,0.365,0.235,0.365,0.444v0.486H31.493z M33.334,19.589l-0.001-0.91
		c-0.236,0.042-0.379,0.152-0.744,0.181v0.729H33.334z M29.57,19.589l0.055-0.799c-0.254-0.028-0.686,0.01-0.686-0.034v0.833H29.57z
		 M26.906,17c0.47,2,1.582,1.04,4.123,1.04c0.021,0,0.04-0.011,0.062-0.01c-0.001-0.001,0.02,0.017,0.041,0.017
		c2.538,0,3.651,0.953,4.121-1.047h-1.612C33.386,17,33,16.735,33,16.48V16h-1.868c-0.019,0-0.033-0.002-0.05-0.004
		C31.063,15.998,31.045,16,31.029,16H29v0.48c0,0.255-0.227,0.52-0.481,0.52H26.906z"/>
	<path fill="#0085CD" d="M39.697,21.528c0.216,0,0.391-0.176,0.391-0.391v-0.997c0-0.215-0.175-0.389-0.391-0.389h-1.514
		c-0.215,0-0.39,0.174-0.39,0.389v0.478h-0.721v-0.42c0-0.215-0.174-0.389-0.389-0.389h-1.17c-0.214,0-0.389,0.174-0.389,0.389
		v0.445h-0.703v-0.445c0-0.163-0.1-0.302-0.241-0.36c0.001-0.015,0.004-0.027,0.004-0.041v-1.331c2.049-0.643,2.27-1.857,2.28-1.927
		c0.017-0.112-0.015-0.226-0.09-0.313c-0.073-0.086-0.182-0.136-0.295-0.136H34.03v-0.814c0-0.214-0.175-0.388-0.39-0.388h-2.509
		c-0.019,0-0.035,0.002-0.051,0.005c-0.017-0.003-0.035-0.005-0.052-0.005h-2.511c-0.214,0-0.389,0.174-0.389,0.388v0.814h-2.051
		c-0.113,0-0.223,0.049-0.295,0.136c-0.075,0.087-0.106,0.202-0.09,0.313c0.01,0.067,0.124,0.67,0.885,1.248
		c0.377,0.286,0.844,0.514,1.396,0.687v1.324c0,0.014,0.003,0.026,0.005,0.041c-0.142,0.058-0.242,0.197-0.242,0.36v0.445h-0.705
		v-0.445c0-0.215-0.174-0.389-0.387-0.389H25.42c-0.214,0-0.389,0.174-0.389,0.389v0.398h-0.732v-0.4c0-0.214-0.174-0.39-0.39-0.39
		h-1.687c-0.215,0-0.39,0.175-0.39,0.39v0.855c0,0.215,0.175,0.39,0.39,0.39c0.215,0,0.39-0.175,0.39-0.39v-0.465h0.909v0.401
		c0,0.214,0.175,0.388,0.389,0.388h1.511c0.215,0,0.39-0.174,0.39-0.388v-0.399h0.445v0.445c0,0.214,0.174,0.389,0.391,0.389h1.131
		v0.454h-5.519c-0.215,0-0.39,0.174-0.39,0.389c0,0.214,0.174,0.39,0.39,0.39h1.807v0.917h-0.961c-0.216,0-0.39,0.176-0.39,0.391
		c0,0.215,0.174,0.39,0.39,0.39h2.282v1.043h-1.522c-0.214,0-0.389,0.175-0.389,0.388c0,0.216,0.175,0.39,0.389,0.39h5.662
		c0.215,0,0.388-0.174,0.388-0.39v-1.739c0.04-0.185,0.262-0.984,1.169-0.984c0.908,0,1.128,0.805,1.167,0.984v1.739
		c0,0.216,0.174,0.39,0.39,0.39h5.468c0.215,0,0.389-0.174,0.389-0.39c0-0.212-0.174-0.388-0.389-0.388h-1.322v-1.043h2.085
		c0.216,0,0.391-0.175,0.391-0.39c0-0.215-0.175-0.391-0.391-0.391h-0.874v-0.917h1.672c0.216,0,0.39-0.176,0.39-0.39
		c0-0.215-0.174-0.389-0.39-0.389h-5.324v-0.454h1.173c0.217,0,0.392-0.174,0.392-0.389v-0.445h0.389v0.418
		c0,0.216,0.174,0.39,0.39,0.39h1.499c0.216,0,0.391-0.174,0.391-0.39v-0.476h0.733v0.606
		C39.308,21.352,39.485,21.528,39.697,21.528L39.697,21.528z M26.734,16.869h1.784c0.217,0,0.391-0.175,0.391-0.389v-0.814h2.12
		c0.017,0,0.035-0.003,0.052-0.005c0.016,0.001,0.032,0.005,0.051,0.005h2.118v0.814c0,0.214,0.176,0.389,0.391,0.389h1.785
		c-0.437,0.496-1.54,1.215-4.294,1.215c-0.019,0-0.035,0.002-0.051,0.005c-0.017-0.003-0.035-0.005-0.052-0.005
		C28.275,18.084,27.17,17.365,26.734,16.869L26.734,16.869z M33.408,19.809h-0.387h-0.156h-0.349c0-0.004,0-0.008,0-0.012v-1.003
		c0.322-0.033,0.619-0.076,0.891-0.13v1.133C33.407,19.8,33.407,19.804,33.408,19.809L33.408,19.809z M30.42,19.814
		c0.001-0.006,0.002-0.011,0.002-0.017v-0.946c0.196,0.007,0.398,0.011,0.607,0.011c0.017,0,0.035-0.003,0.052-0.005
		c0.016,0.002,0.032,0.005,0.051,0.005c0.213,0,0.412-0.005,0.607-0.014v0.948c0,0.009,0.003,0.019,0.003,0.03
		c-0.16,0.048-0.278,0.195-0.278,0.371v0.445H30.76v-0.445C30.76,20,30.611,19.838,30.42,19.814L30.42,19.814z M29.643,19.809
		h-0.348h-0.094h-0.449c0.001-0.004,0.003-0.008,0.003-0.012v-1.13c0.279,0.055,0.574,0.098,0.887,0.13v1
		C29.642,19.8,29.643,19.804,29.643,19.809L29.643,19.809z M24.843,23.571v-0.917h1.796v0.917H24.843L24.843,23.571z M27.776,25.395
		h-1.613v-1.043h1.613V25.395L27.776,25.395z M29.134,25.395h-0.578v-1.043h0.578V25.395L29.134,25.395z M29.243,23.571h-1.824
		v-0.917h2.496C29.574,22.91,29.361,23.26,29.243,23.571L29.243,23.571z M28.556,21.875v-1.287h0.646h0.094h0.686v0.445
		c0,0.214,0.174,0.389,0.39,0.389h1.484c0.214,0,0.388-0.174,0.388-0.389v-0.445h0.623h0.156h0.541v1.287H28.556L28.556,21.875z
		 M33.563,25.395h-0.536v-1.043h0.536V25.395L33.563,25.395z M36.005,25.395h-1.663v-1.043h1.663V25.395L36.005,25.395z
		 M35.442,22.654h1.773v0.917h-1.773V22.654L35.442,22.654z M34.662,22.654v0.917h-1.744c-0.119-0.311-0.333-0.661-0.672-0.917
		H34.662L34.662,22.654z"/>
	<path fill="#0085CD" d="M40.857,26.319c-0.046,0-0.09-0.005-0.135-0.019c-0.119-0.038-0.217-0.117-0.274-0.226
		c-0.059-0.109-0.071-0.234-0.034-0.353c0.004-0.011,0.512-1.689,1.104-3.445c1.228-3.623,1.563-3.897,1.742-4.042
		c0.436-0.354,0.788-0.475,1.073-0.57c0.189-0.065,0.338-0.115,0.486-0.225c0.07-0.052,0.187-0.056,0.289-0.2
		c0.396-0.558,0.995-1.24,2.322-1.24h0.082c1.459,0,2.556,1.43,3.254,2.593c0.616,1.026,0.904,2.086,1.184,3.188
		c0.072,0.289,0.148,0.549,0.228,0.838c0.25,0.906,0.569,1.909,0.973,3.11c0.041,0.118,0.031,0.235-0.023,0.344
		c-0.055,0.112-0.149,0.19-0.267,0.228c-0.048,0.017-0.098,0.022-0.148,0.022c-0.199,0-0.375-0.128-0.438-0.316
		c-0.408-1.215-0.732-2.253-0.988-3.181c-0.082-0.297-0.16-0.603-0.232-0.897c-0.273-1.085-0.532-1.911-1.081-2.823
		C49.638,18.543,48.61,17,47.491,17h-0.057c-0.852,0-1.233,0.34-1.572,0.813c-0.162,0.229-0.302,0.33-0.491,0.469
		c-0.267,0.196-0.507,0.229-0.739,0.308c-0.25,0.084-0.482,0.139-0.788,0.387c-0.277,0.267-1.332,3.023-2.545,7.026
		C41.239,26.201,41.06,26.319,40.857,26.319z"/>
	<path fill="#0085CD" d="M52.713,26.247c-0.162,0-0.313-0.103-0.368-0.267c-0.409-1.213-0.732-2.251-0.986-3.176
		c-0.084-0.297-0.159-0.602-0.234-0.895c-0.274-1.089-0.536-2.119-1.087-3.038c-0.342-0.571-1.385-2.308-2.545-2.338
		c-0.928-0.023-1.333,0.542-1.688,1.042c-0.159,0.224-0.299,0.418-0.476,0.548c-0.258,0.19-0.493,0.27-0.72,0.347
		c-0.254,0.085-0.495,0.167-0.812,0.425c-0.292,0.281-1.336,3.005-2.566,7.074c-0.065,0.206-0.281,0.321-0.488,0.259
		c-0.204-0.063-0.321-0.28-0.259-0.485c0.005-0.018,0.518-1.707,1.104-3.443c1.221-3.604,1.558-3.878,1.719-4.01
		c0.425-0.345,0.772-0.463,1.052-0.557c0.195-0.066,0.349-0.118,0.507-0.236c0.079-0.058,0.193-0.22,0.306-0.374
		c0.396-0.559,0.999-1.404,2.344-1.368c1.423,0.038,2.503,1.567,3.191,2.716c0.61,1.017,0.898,2.151,1.174,3.247
		c0.073,0.289,0.149,0.59,0.229,0.877c0.252,0.913,0.571,1.938,0.974,3.137c0.069,0.203-0.041,0.424-0.244,0.493
		C52.796,26.24,52.755,26.247,52.713,26.247L52.713,26.247z"/>
	<path fill="#0085CD" d="M48.439,21.728c-0.522,0-1.092-0.139-1.55-0.252l-0.042-0.01c-0.142-0.035-0.274-0.067-0.381-0.087
		c-0.092-0.019-0.271-0.027-0.459-0.037c-0.701-0.032-1.547-0.071-1.978-0.572c-0.188-0.217-0.271-0.494-0.236-0.801
		c0.063-0.589,0.722-0.893,1.302-1.158c0.203-0.094,0.435-0.199,0.524-0.273l0.049-0.037c0.494-0.396,1.054-0.844,1.812-0.844
		c0.087,0,0.177,0.005,0.271,0.018c0.873,0.122,2.132,1.32,2.227,2.378c0.052,0.591-0.095,1.042-0.438,1.335
		C49.272,21.616,48.911,21.728,48.439,21.728z M47.484,18.581c-0.437,0-0.807,0.297-1.237,0.64l-0.049,0.04
		c-0.179,0.143-0.436,0.261-0.705,0.385c-0.189,0.086-0.733,0.336-0.786,0.451c0,0.042,0.016,0.06,0.023,0.071
		c0.171,0.198,0.904,0.231,1.299,0.25c0.249,0.011,0.456,0.021,0.618,0.054c0.134,0.026,0.291,0.064,0.458,0.105
		c0.37,0.091,0.925,0.228,1.347,0.228l0,0c0.229,0,0.392-0.041,0.485-0.12c0.102-0.088,0.144-0.278,0.119-0.552
		c-0.057-0.625-0.988-1.481-1.433-1.542C47.576,18.584,47.529,18.581,47.484,18.581z"/>
	<path fill="#0085CD" d="M48.439,21.655c-0.516,0-1.076-0.138-1.539-0.252c-0.155-0.038-0.304-0.075-0.419-0.097
		c-0.102-0.02-0.29-0.029-0.491-0.038c-0.665-0.031-1.494-0.07-1.905-0.547c-0.174-0.201-0.249-0.459-0.22-0.745c0,0,0,0,0-0.002
		c0.059-0.547,0.699-0.842,1.264-1.1c0.216-0.099,0.439-0.203,0.536-0.282l0.049-0.037c0.545-0.436,1.162-0.931,2.026-0.81
		c0.849,0.117,2.073,1.281,2.163,2.311c0.052,0.566-0.087,0.996-0.411,1.273C49.212,21.572,48.839,21.655,48.439,21.655
		L48.439,21.655z M44.64,20.066c-0.008,0.084,0.014,0.122,0.036,0.148c0.19,0.223,0.918,0.254,1.351,0.275
		c0.241,0.012,0.447,0.02,0.606,0.052c0.135,0.027,0.289,0.064,0.454,0.105c0.583,0.143,1.559,0.383,1.898,0.093
		c0.121-0.105,0.171-0.311,0.144-0.614c-0.06-0.667-1.02-1.542-1.494-1.609c-0.534-0.072-0.95,0.26-1.434,0.648l-0.049,0.038
		c-0.172,0.138-0.428,0.255-0.698,0.379C45.209,19.695,44.706,19.927,44.64,20.066L44.64,20.066z"/>
	<path fill="#0085CD" d="M51.043,26.348c-0.199,0-0.375-0.128-0.439-0.317l-0.411-1.229c-0.039-0.117-0.031-0.242,0.024-0.353
		c0.055-0.11,0.149-0.192,0.267-0.231c0.048-0.017,0.097-0.024,0.148-0.024c0.197,0,0.376,0.125,0.438,0.314l0.411,1.23
		c0.082,0.242-0.049,0.503-0.291,0.585C51.142,26.339,51.093,26.348,51.043,26.348z"/>
	<path fill="#0085CD" d="M51.043,26.273c-0.164,0-0.314-0.103-0.369-0.266l-0.412-1.229c-0.069-0.205,0.042-0.424,0.246-0.493
		c0.204-0.069,0.424,0.041,0.493,0.245l0.411,1.228c0.068,0.205-0.04,0.426-0.245,0.495C51.125,26.267,51.084,26.273,51.043,26.273
		L51.043,26.273z"/>
	<path fill="#0085CD" d="M50.274,23.896c-0.198,0-0.373-0.127-0.439-0.314l-0.147-0.443c-0.038-0.117-0.03-0.243,0.024-0.354
		s0.151-0.193,0.269-0.232c0.047-0.016,0.097-0.023,0.147-0.023c0.197,0,0.374,0.127,0.438,0.316l0.147,0.44
		c0.04,0.118,0.031,0.244-0.024,0.355c-0.055,0.11-0.149,0.191-0.268,0.23C50.375,23.888,50.324,23.896,50.274,23.896z"/>
	<path fill="#0085CD" d="M50.274,23.824c-0.163,0-0.313-0.103-0.369-0.266l-0.147-0.441c-0.068-0.206,0.04-0.426,0.245-0.494
		c0.204-0.068,0.425,0.041,0.493,0.246l0.148,0.442c0.068,0.204-0.041,0.424-0.246,0.493C50.357,23.817,50.315,23.824,50.274,23.824
		L50.274,23.824z"/>
	<path fill="#0085CD" d="M32.552,48.52c-0.343,0-1.202-0.091-1.916-0.914c-0.457,0.533-0.972,0.75-1.327,0.838
		c-0.18,0.045-0.369,0.07-0.559,0.071c-0.041,0.004-0.057,0.005-0.074,0.005c-0.343,0-1.202-0.092-1.915-0.913
		c-0.458,0.532-0.972,0.749-1.328,0.837c-0.182,0.045-0.369,0.07-0.559,0.071c-0.04,0.004-0.056,0.005-0.074,0.005
		c-0.343,0-1.203-0.091-1.916-0.913c-0.459,0.532-0.972,0.749-1.327,0.837c-0.182,0.045-0.37,0.07-0.559,0.071
		c-0.041,0.004-0.057,0.005-0.075,0.005c-0.343,0-1.201-0.091-1.915-0.914c-0.46,0.533-0.972,0.75-1.329,0.838
		c-0.18,0.045-0.368,0.07-0.559,0.071c-0.04,0.004-0.056,0.005-0.074,0.005c-0.342,0-1.201-0.091-1.914-0.914
		c-0.459,0.532-0.973,0.75-1.328,0.838c-0.18,0.045-0.369,0.07-0.558,0.071c-0.041,0.004-0.057,0.005-0.075,0.005
		c-0.34,0-1.192-0.091-1.904-0.902c-0.026,0.025-0.053,0.043-0.083,0.06c-0.433,0.483-0.924,0.685-1.256,0.767
		c-0.18,0.045-0.368,0.07-0.559,0.071c-0.04,0.004-0.056,0.005-0.074,0.005c-0.343,0-1.202-0.091-1.915-0.914
		c-0.459,0.533-0.972,0.75-1.328,0.838c-0.18,0.045-0.368,0.07-0.559,0.071c-0.04,0.004-0.057,0.005-0.075,0.005
		c-0.342,0-1.2-0.091-1.914-0.914c-0.459,0.533-0.973,0.75-1.329,0.838c-0.191,0.049-0.389,0.071-0.585,0.071
		c-0.225,0-0.377-0.03-0.417-0.041c-0.249-0.058-0.402-0.31-0.343-0.558c0.05-0.209,0.234-0.354,0.449-0.354
		c0.037,0,0.073,0.005,0.108,0.013c0.002,0,0.08,0.018,0.204,0.018c0.351,0,1.01-0.131,1.497-1.002
		c0.083-0.146,0.237-0.237,0.403-0.237c0.046,0,0.083,0.004,0.118,0.012l1.368-2.083c0.085-0.132,0.23-0.209,0.386-0.209
		c0.164,0.002,0.308,0.082,0.393,0.218l1.343,2.148c0.078-0.055,0.172-0.086,0.268-0.086c0.19,0,0.345-0.193,0.427-0.047
		C8.181,46.994,8.674,47,9.02,47c0.013,0,0.024,0,0.035,0c0.037,0,0.063,0.284,0.087,0.293c0.007,0,0.076,0.156,0.182,0.156
		c0.105-0.002,0.166-0.225,0.173-0.227C9.527,47.215,9.561,47,9.597,47h0.038c0.33,0,0.823-0.004,1.208-0.692l0.076,0.161
		l-0.052,0.017l1.237-1.942c0.083-0.137,0.232-0.201,0.389-0.201c0.173,0.004,0.323,0.103,0.404,0.242l1.438,2.515
		c0.145-0.146,0.271-0.311,0.383-0.51l1.152-2.086c0.081-0.147,0.235-0.238,0.403-0.238c0.169,0,0.323,0.091,0.405,0.237
		l1.489,2.645c0.163-0.152,0.303-0.336,0.427-0.557c0.081-0.146,0.235-0.237,0.403-0.237c0.063,0,0.116,0.008,0.164,0.024
		l1.498-3.199c0.058-0.122,0.166-0.212,0.295-0.249c0.041-0.011,0.083-0.017,0.125-0.017c0.092,0,0.18,0.028,0.256,0.077
		l0.779,0.521l1.15-2.061c0.083-0.145,0.236-0.235,0.399-0.235c0.202,0.011,0.356,0.113,0.428,0.276l2.256,5.095
		c0.083-0.145,0.237-0.232,0.401-0.232c0.099,0,0.182,0.022,0.253,0.063l1.351-2.102c0.085-0.135,0.231-0.214,0.39-0.214
		c0.162,0.001,0.307,0.083,0.392,0.217l1.303,2.077c0.06-0.026,0.123-0.042,0.188-0.042c0.191,0,0.346,0.091,0.427,0.237
		c0.487,0.871,1.146,1.001,1.496,1.001c0.128,0,0.206-0.017,0.209-0.017c0.034-0.009,0.07-0.014,0.107-0.014
		c0.213,0,0.397,0.146,0.448,0.355c0.028,0.12,0.007,0.245-0.058,0.351s-0.167,0.18-0.286,0.207
		C32.844,48.504,32.7,48.52,32.552,48.52z M16.793,47.563c0.036,0,0.068,0.005,0.1,0.011c0.006,0.001,0.075,0.017,0.181,0.017
		c0.106-0.001,0.167-0.016,0.174-0.017c0.029-0.006,0.058-0.01,0.09-0.011l-1.06-1.885l-0.61,1.104
		c0.367,0.543,0.799,0.725,1.102,0.783L16.793,47.563z M12.918,47.563c0.035,0,0.067,0.005,0.099,0.011
		c0.009,0.002,0.077,0.017,0.183,0.017c0.105-0.001,0.167-0.016,0.174-0.017c0.031-0.006,0.064-0.011,0.101-0.011
		c0.019-0.002,0.037-0.004,0.053-0.008l-1.049-1.831L11.805,46.8c0.365,0.529,0.793,0.709,1.092,0.767L12.918,47.563z M5.167,47.563
		c0.036,0,0.068,0.005,0.099,0.011c0.007,0.001,0.076,0.017,0.181,0.017c0.107-0.001,0.168-0.016,0.175-0.017
		c0.031-0.006,0.063-0.011,0.101-0.011c0.288-0.05,0.54-0.172,0.763-0.367l-1.128-1.804l-1.096,1.668
		c0.317,0.339,0.653,0.462,0.883,0.506L5.167,47.563z M28.42,47.563c0.036,0,0.068,0.005,0.1,0.011
		c0.008,0.001,0.073,0.016,0.174,0.017c0.109,0,0.18-0.296,0.188-0.298C28.911,47.286,28.944,47,28.979,47h0.039
		c0.189,0,0.492,0.137,0.788-0.146l-1.07-1.568l-1.117,1.811c0.23,0.212,0.494,0.383,0.783,0.436L28.42,47.563z M24.543,47.563
		c0.036,0,0.069,0.005,0.101,0.011c0.009,0.002,0.073,0.016,0.174,0.017c0.112,0,0.183-0.298,0.186-0.298
		C25.035,47.284,25.068,47,25.104,47h0.04c0.174,0,0.356,0.172,0.527,0.06L23.62,42.57l-0.943,1.757
		c-0.063,0.112-0.17,0.228-0.294,0.257c-0.036,0.008-0.072,0.032-0.109,0.032c-0.091,0-0.18-0.018-0.257-0.067l-0.748-0.498
		l-1.437,2.793C20.13,47.134,20.44,47,20.65,47c0.011,0,0.02,0,0.03,0c0.038,0,0.064,0.284,0.088,0.293
		c0.008,0,0.073,0.154,0.175,0.156c0.114,0,0.184-0.228,0.185-0.228c0.031-0.007,0.064-0.222,0.1-0.222h0.039
		c0.327,0,0.82-0.006,1.202-0.692c0.082-0.146,0.236-0.097,0.404-0.097c0.19,0,0.345,0.161,0.426,0.31
		c0.385,0.687,0.878,0.944,1.227,1.009L24.543,47.563z"/>
	<path fill="#0085CD" d="M33.238,47.934c-0.049-0.211-0.258-0.339-0.466-0.29c-0.045,0.01-1.091,0.224-1.785-1.018
		c-0.07-0.125-0.197-0.2-0.339-0.2h-0.024c-0.076,0-0.151,0.025-0.215,0.067l-1.338-2.138c-0.07-0.111-0.194-0.181-0.327-0.183
		c-0.002,0-0.003,0-0.003,0c-0.133,0-0.256,0.068-0.328,0.181l-1.392,2.167c-0.069-0.059-0.156-0.095-0.25-0.095h-0.023
		c-0.14,0-0.271,0.075-0.34,0.2c-0.023,0.041-0.047,0.077-0.071,0.115l-2.313-5.224c-0.06-0.133-0.191-0.223-0.338-0.229
		c-0.146-0.009-0.286,0.07-0.358,0.198l-1.189,2.128l-0.845-0.564c-0.094-0.063-0.211-0.08-0.321-0.05
		c-0.109,0.03-0.2,0.107-0.248,0.208l-1.527,3.262c-0.054-0.026-0.115-0.044-0.178-0.044h-0.022c-0.142,0-0.271,0.075-0.339,0.2
		c-0.158,0.281-0.333,0.483-0.51,0.638l-1.534-2.727c-0.069-0.122-0.198-0.199-0.339-0.199c-0.001,0-0.001,0-0.001,0
		c-0.142,0-0.271,0.078-0.34,0.202l-1.139,2.066c-0.004,0.008-0.01,0.013-0.013,0.02c-0.147,0.262-0.309,0.455-0.474,0.604
		c-0.008-0.029-0.019-0.059-0.035-0.087l-1.439-2.515c-0.068-0.117-0.193-0.192-0.331-0.194c-0.137-0.005-0.265,0.066-0.338,0.184
		l-1.237,1.98c-0.006,0.009-0.015,0.018-0.021,0.028c-0.394,0.706-0.903,0.942-1.275,1.011c-0.038-0.002-0.078-0.002-0.116,0.009
		c-0.002,0-0.07,0.016-0.18,0.02c-0.003,0-0.008,0-0.011,0h0c-0.115-0.004-0.188-0.018-0.199-0.02
		c-0.04-0.011-0.078-0.011-0.118-0.008c-0.373-0.069-0.88-0.309-1.273-1.012c-0.069-0.125-0.199-0.2-0.34-0.2H7.371
		c-0.109,0-0.212,0.047-0.285,0.125l-1.389-2.222c-0.07-0.113-0.193-0.183-0.326-0.184c-0.001,0-0.003,0-0.005,0
		c-0.131,0-0.253,0.065-0.325,0.175l-1.397,2.128c-0.041-0.014-0.083-0.022-0.126-0.022H3.494c-0.141,0-0.271,0.075-0.34,0.2
		c-0.692,1.24-1.74,1.027-1.781,1.02c-0.21-0.049-0.42,0.078-0.47,0.288s0.079,0.419,0.288,0.47c0.044,0.01,0.446,0.1,0.97-0.03
		c0.384-0.097,0.895-0.327,1.345-0.881c0.608,0.744,1.373,0.954,1.914,0.954c0.026,0,0.049-0.004,0.075-0.005
		c0.153-0.001,0.338-0.018,0.541-0.068c0.385-0.097,0.896-0.327,1.346-0.881c0.609,0.744,1.374,0.954,1.915,0.954
		c0.026,0,0.049-0.004,0.073-0.005c0.154-0.001,0.339-0.018,0.542-0.068c0.354-0.089,0.815-0.296,1.238-0.761
		c0.046-0.026,0.087-0.06,0.121-0.104c0.607,0.732,1.363,0.938,1.901,0.938c0.026,0,0.048-0.004,0.073-0.005
		c0.154-0.001,0.338-0.018,0.542-0.068c0.384-0.097,0.895-0.327,1.345-0.881c0.608,0.744,1.373,0.954,1.915,0.954
		c0.026,0,0.049-0.004,0.074-0.005c0.152-0.001,0.337-0.018,0.542-0.068c0.384-0.097,0.896-0.327,1.346-0.881
		c0.608,0.744,1.374,0.954,1.915,0.954c0.026,0,0.049-0.004,0.074-0.005c0.153-0.001,0.338-0.018,0.543-0.068
		c0.383-0.097,0.894-0.327,1.344-0.881c0.609,0.744,1.372,0.954,1.916,0.954c0.025,0,0.048-0.004,0.074-0.005
		c0.153-0.001,0.337-0.018,0.541-0.068c0.385-0.097,0.897-0.327,1.346-0.881c0.608,0.744,1.373,0.954,1.915,0.954
		c0.026,0,0.049-0.004,0.074-0.005c0.153-0.001,0.338-0.018,0.542-0.068c0.384-0.097,0.895-0.327,1.344-0.881
		c0.61,0.744,1.373,0.954,1.916,0.954c0.153,0,0.29-0.018,0.397-0.043C33.158,48.353,33.29,48.144,33.238,47.934L33.238,47.934z
		 M5.754,47.637c-0.038-0.002-0.077-0.002-0.116,0.009c-0.002,0-0.069,0.016-0.179,0.02c-0.003,0-0.008,0-0.012,0l0,0
		c-0.115-0.004-0.189-0.018-0.198-0.02c-0.04-0.011-0.079-0.011-0.119-0.008c-0.279-0.053-0.635-0.203-0.961-0.569l1.19-1.813
		l1.221,1.955C6.293,47.477,5.995,47.592,5.754,47.637L5.754,47.637z M13.505,47.637c-0.038-0.002-0.077-0.002-0.116,0.009
		c-0.003,0-0.069,0.016-0.179,0.02c-0.003,0-0.008,0-0.011,0h-0.002c-0.114-0.004-0.187-0.018-0.198-0.02
		c-0.04-0.011-0.08-0.011-0.118-0.008c-0.339-0.063-0.79-0.268-1.164-0.837l0.762-1.22l1.116,1.95
		c0.016,0.024,0.036,0.049,0.057,0.072C13.602,47.617,13.553,47.629,13.505,47.637L13.505,47.637z M17.382,47.637
		c-0.038-0.002-0.077-0.002-0.116,0.009c-0.003,0-0.07,0.016-0.18,0.02c-0.002,0-0.008,0-0.012,0h0
		c-0.114-0.004-0.187-0.018-0.198-0.02c-0.04-0.011-0.079-0.011-0.117-0.008c-0.342-0.065-0.796-0.272-1.173-0.852l0.694-1.258
		l1.176,2.093C17.431,47.627,17.405,47.633,17.382,47.637L17.382,47.637z M25.138,47.637c-0.038-0.002-0.077-0.002-0.117,0.007
		c-0.011,0.004-0.087,0.018-0.204,0.021c-0.11-0.004-0.18-0.018-0.19-0.02c-0.039-0.011-0.077-0.011-0.115-0.009
		c-0.374-0.068-0.881-0.304-1.275-1.011c-0.069-0.125-0.2-0.2-0.34-0.2h-0.023c-0.141,0-0.272,0.075-0.34,0.2
		c-0.393,0.702-0.898,0.939-1.271,1.011c-0.039-0.002-0.077-0.002-0.118,0.007c-0.01,0.004-0.086,0.018-0.202,0.021
		c-0.11-0.004-0.181-0.018-0.191-0.02c-0.038-0.011-0.077-0.011-0.115-0.009c-0.26-0.047-0.586-0.179-0.893-0.494l1.495-3.193
		l0.819,0.547c0.091,0.062,0.202,0.079,0.308,0.054c0.106-0.024,0.195-0.093,0.249-0.188l1.014-1.814l2.135,4.818
		C25.541,47.522,25.322,47.601,25.138,47.637L25.138,47.637z M29.013,47.637c-0.038-0.002-0.077-0.002-0.116,0.007
		c-0.013,0.004-0.086,0.018-0.203,0.021c-0.109-0.004-0.181-0.018-0.19-0.02c-0.038-0.011-0.077-0.011-0.115-0.009
		c-0.25-0.046-0.564-0.169-0.862-0.46l1.212-1.886l1.161,1.854C29.595,47.455,29.273,47.586,29.013,47.637L29.013,47.637z"/>
	<path fill="#0085CD" d="M19.064,28.755c-0.6,0-1.11-0.371-1.36-0.996c-0.38-0.95,0.094-1.719,0.758-1.99
		c0.174-0.071,0.358-0.108,0.545-0.108c0.05,0,0.101,0.003,0.151,0.009c0.705,0.071,1.245,0.612,1.346,1.345
		c0.1,0.726-0.271,1.386-0.925,1.644C19.417,28.724,19.242,28.755,19.064,28.755z M19.01,26.587c-0.069,0-0.135,0.013-0.197,0.039
		c-0.473,0.192-0.273,0.728-0.249,0.788c0.007,0.018,0.17,0.422,0.494,0.422l0,0c0.059,0,0.12-0.013,0.184-0.038
		c0.307-0.121,0.381-0.419,0.348-0.657c-0.032-0.231-0.188-0.516-0.523-0.55C19.048,26.588,19.029,26.587,19.01,26.587z"/>
	<path fill="#0085CD" d="M19.064,28.685c-0.504,0-1.026-0.289-1.292-0.953c-0.362-0.903,0.086-1.638,0.719-1.894
		c0.211-0.088,0.433-0.119,0.662-0.095c0.669,0.069,1.184,0.583,1.28,1.282c0.096,0.692-0.257,1.32-0.879,1.565
		C19.4,28.65,19.233,28.685,19.064,28.685L19.064,28.685z M19.01,26.514c-0.078,0-0.154,0.014-0.225,0.044
		c-0.438,0.177-0.387,0.64-0.289,0.883c0.025,0.064,0.267,0.624,0.773,0.424c0.345-0.138,0.43-0.468,0.393-0.734
		c-0.036-0.258-0.211-0.574-0.588-0.613l0,0C19.052,26.515,19.03,26.514,19.01,26.514L19.01,26.514z"/>
	<path fill="#0085CD" d="M19.095,29c-0.049,0-0.099,0-0.149,0c-1.439,0-2.859-0.606-2.792-2.344
		c0.017-0.439,0.139-0.641,0.362-1.025c0.503-0.865,1.384-1.251,2.418-1.251c0.303,0,0.604,0.098,0.891,0.183
		c1.086,0.322,2.149,0.91,2.076,2.403C21.818,28.644,20.389,29,19.095,29z M18.921,25.411c-0.403,0-1.147,0.117-1.606,0.903
		c-0.147,0.251-0.227,0.524-0.237,0.811c-0.046,1.186,0.957,1.772,1.909,1.814c0.044,0.004,0.087,0.004,0.131,0.004
		c1.315,0,1.823-0.842,1.859-1.563c0.053-1.058-0.729-1.673-1.415-1.877C19.358,25.443,19.137,25.411,18.921,25.411z"/>
	<path fill="#0085CD" d="M19.095,29.794c-0.049,0-0.098-0.001-0.146-0.002c-1.402-0.063-2.788-1.01-2.722-2.7
		c0.016-0.428,0.136-0.832,0.352-1.207l0,0c0.739-1.269,2.152-1.516,3.226-1.199c1.059,0.315,2.096,1.283,2.022,2.736
		C21.75,28.999,20.418,29.794,19.095,29.794L19.095,29.794z M17.252,26.278c-0.152,0.261-0.235,0.545-0.247,0.843
		c-0.048,1.238,0.993,1.848,1.978,1.892c1.369,0.059,2.024-0.774,2.066-1.629c0.055-1.103-0.755-1.74-1.466-1.95
		C18.86,25.219,17.815,25.312,17.252,26.278L17.252,26.278L17.252,26.278z"/>
	<path fill="#0085CD" d="M32.694,44.481c-0.207,0-0.409-0.062-0.586-0.177c-0.491-0.327-0.6-0.947-0.252-1.476
		c0.216-0.33,0.563-0.529,0.924-0.529c0.195,0,0.388,0.06,0.557,0.169c0.145,0.093,0.261,0.217,0.348,0.369
		c0.246,0.444,0.15,0.981-0.234,1.338C33.237,44.373,32.97,44.481,32.694,44.481z M32.778,43.225c-0.058,0-0.114,0.059-0.147,0.111
		c-0.035,0.053-0.083,0.149-0.01,0.195c0.024,0.017,0.047,0.024,0.073,0.024c0.062,0,0.114-0.044,0.129-0.059
		c0.019-0.018,0.108-0.108,0.053-0.208c-0.011-0.021-0.024-0.033-0.041-0.044C32.815,43.23,32.796,43.225,32.778,43.225z"/>
	<path fill="#0085CD" d="M32.694,44.408c-0.188,0-0.378-0.055-0.544-0.165c-0.458-0.302-0.557-0.881-0.232-1.375
		c0.323-0.493,0.915-0.64,1.38-0.339c0.135,0.087,0.244,0.203,0.323,0.344l0,0c0.229,0.415,0.141,0.916-0.219,1.25
		C33.197,44.312,32.946,44.408,32.694,44.408L32.694,44.408z M32.778,43.152c-0.104,0-0.183,0.104-0.209,0.143
		c-0.032,0.048-0.123,0.209,0.009,0.298c0.134,0.09,0.259-0.01,0.294-0.042c0.024-0.023,0.15-0.148,0.066-0.298l0,0
		c-0.016-0.028-0.036-0.053-0.064-0.069C32.842,43.16,32.807,43.152,32.778,43.152L32.778,43.152z"/>
	<path fill="#0085CD" d="M32.831,45.581c-0.692,0-1.385-0.416-1.809-1.084c-0.587-0.925-0.596-2.239,0.523-2.96
		c0.285-0.181,0.6-0.289,0.938-0.316c0.059-0.004,0.12-0.007,0.178-0.007c0.929,0,1.729,0.603,2.041,1.535
		c0.327,0.983-0.016,1.999-0.854,2.523C33.524,45.478,33.182,45.581,32.831,45.581z M32.669,42.139
		c-0.034,0-0.071,0.001-0.108,0.004c-0.187,0.016-0.358,0.073-0.514,0.174c-0.346,0.222-0.787,0.829-0.243,1.686
		c0.193,0.303,0.573,0.653,1.02,0.653l0,0c0.178,0,0.358-0.054,0.534-0.165c0.58-0.364,0.613-1.009,0.468-1.449
		C33.686,42.624,33.299,42.139,32.669,42.139z"/>
	<path fill="#0085CD" d="M32.831,45.507c-0.713,0-1.363-0.443-1.747-1.047c-0.568-0.896-0.579-2.167,0.503-2.861
		c0.273-0.174,0.577-0.277,0.903-0.305l0,0c0.96-0.08,1.822,0.514,2.144,1.477c0.317,0.952-0.016,1.933-0.823,2.441
		C33.481,45.418,33.149,45.507,32.831,45.507L32.831,45.507z M32.554,42.07c-0.196,0.016-0.381,0.078-0.546,0.184
		c-0.37,0.238-0.842,0.88-0.266,1.787c0.263,0.411,0.903,0.981,1.653,0.511c0.616-0.387,0.654-1.068,0.5-1.533
		C33.735,42.543,33.29,42.008,32.554,42.07L32.554,42.07L32.554,42.07z"/>
	<path fill="#0085CD" d="M27.624,43.245c-0.179,0-0.365-0.037-0.551-0.109c-0.831-0.322-1.036-1.085-0.811-1.672
		c0.075-0.196,0.194-0.365,0.353-0.502c0.237-0.207,0.539-0.321,0.85-0.321c0.284,0,0.563,0.092,0.808,0.265
		c0.52,0.367,0.717,0.997,0.492,1.567C28.579,42.941,28.132,43.245,27.624,43.245z M27.463,41.565c-0.088,0-0.168,0.03-0.24,0.093
		c-0.043,0.038-0.076,0.085-0.097,0.138c-0.117,0.306,0.214,0.452,0.281,0.479c0.019,0.007,0.11,0.042,0.216,0.042
		c0.141,0,0.232-0.061,0.282-0.185c0.102-0.255-0.103-0.426-0.168-0.473C27.652,41.6,27.555,41.565,27.463,41.565z"/>
	<path fill="#0085CD" d="M27.624,43.172c-0.163,0-0.34-0.031-0.524-0.104c-0.785-0.307-0.981-1.024-0.77-1.578
		c0.07-0.184,0.184-0.344,0.333-0.475l0,0c0.44-0.382,1.07-0.403,1.567-0.052c0.492,0.349,0.68,0.944,0.467,1.481
		C28.536,42.853,28.143,43.172,27.624,43.172L27.624,43.172z M27.175,41.604c-0.054,0.045-0.092,0.102-0.116,0.166
		c-0.145,0.377,0.273,0.554,0.322,0.572c0.047,0.018,0.454,0.165,0.592-0.185c0.097-0.242-0.037-0.447-0.192-0.558
		C27.619,41.486,27.376,41.428,27.175,41.604L27.175,41.604L27.175,41.604z"/>
	<path fill="#0085CD" d="M51.869,18c-0.196,0-0.386-0.082-0.561-0.18c-0.51-0.284-0.741-0.882-0.58-1.467
		c0.153-0.563,0.634-0.947,1.195-0.947l0.041-0.003c0.674,0.019,1.152,0.588,1.134,1.316C53.078,17.544,52.478,18,51.896,18H51.869z
		 M51.937,16.324c-0.364,0-0.299,0.217-0.312,0.26c-0.017,0.066-0.063,0.288,0.138,0.4c0.039,0.022,0.083,0.035,0.128,0.036
		c0.263,0,0.282-0.294,0.283-0.353c0.003-0.079-0.003-0.335-0.232-0.343l-0.005-0.074V16.324z"/>
	<path fill="#0085CD" d="M51.896,17.872c-0.007,0-0.016,0-0.022,0c-0.187-0.003-0.363-0.053-0.528-0.144
		c-0.479-0.266-0.698-0.816-0.546-1.369c0.146-0.536,0.598-0.888,1.125-0.888c0.013,0,0.025,0,0.035,0
		c0.636,0.02,1.084,0.53,1.066,1.217C53.006,17.47,52.445,17.872,51.896,17.872L51.896,17.872z M51.923,16.25
		c-0.273,0-0.359,0.263-0.374,0.316c-0.016,0.056-0.079,0.34,0.174,0.483l0,0c0.053,0.028,0.108,0.043,0.166,0.044
		c0.002,0,0.005,0,0.009,0c0.329,0,0.35-0.38,0.35-0.424c0.001-0.068-0.007-0.409-0.311-0.419
		C51.933,16.25,51.928,16.25,51.923,16.25L51.923,16.25z"/>
	<path fill="#0085CD" d="M31,39.75c0,0,0-0.199,0-0.444v-1.554c0-0.012-0.594-0.023-0.594-0.036
		c-0.688-0.027-1.628-0.307-2.114-0.793c-0.123-0.125-0.384-0.26-0.481-0.406c-0.099,0.146-0.283,0.28-0.407,0.406
		c-0.488,0.486-1.425,0.767-2.111,0.793C25.293,37.729,25,37.74,25,37.752v1.554c0,0.245,0,0.444,0,0.444s0-0.199,0-0.444v-1.554
		c0-0.013-0.189-0.023-0.188-0.036c-0.689-0.027-1.427-0.307-1.913-0.793c-0.607-0.608-0.936-1.445-0.818-2.301
		c0.026-0.198,0.16-0.353,0.354-0.383c-0.33-0.533-0.477-1.168-0.39-1.8c0.027-0.197,0.177-0.354,0.373-0.38
		c-0.331-0.536-0.469-1.17-0.382-1.802c0.027-0.197,0.183-0.354,0.379-0.381c0.126-0.017,0.25-0.026,0.374-0.026
		c0.32,0,0.633,0.056,0.933,0.165c-0.003-0.057-0.007-0.112-0.007-0.166c0-0.857,0.394-1.649,1.081-2.172
		c0.077-0.058,0.173-0.091,0.27-0.091c0.096,0,0.193,0.033,0.269,0.091c0.688,0.521,1.083,1.313,1.083,2.172
		c0,0.054-0.002,0.109-0.007,0.166c0.3-0.109,0.613-0.165,0.934-0.165c0.109,0,0.219,0.01,0.326,0.021
		c0.092-0.011,0.2-0.021,0.311-0.021c0.318,0,0.634,0.056,0.933,0.165c-0.004-0.057-0.008-0.112-0.008-0.166
		c0-0.857,0.395-1.649,1.083-2.172c0.076-0.058,0.173-0.091,0.27-0.091s0.192,0.033,0.27,0.091c0.688,0.521,1.082,1.313,1.082,2.172
		c0,0.054-0.002,0.109-0.007,0.166c0.299-0.109,0.614-0.165,0.934-0.165c0.122,0,0.249,0.01,0.374,0.026
		c0.196,0.026,0.354,0.184,0.38,0.381c0.088,0.631-0.047,1.266-0.378,1.802c0.195,0.026,0.352,0.183,0.378,0.38
		c0.088,0.631-0.047,1.267-0.378,1.8c0.195,0.029,0.352,0.185,0.378,0.381c0.118,0.857-0.163,1.694-0.77,2.303
		c-0.488,0.486-0.981,0.767-1.671,0.793c0,0.013,0.15,0.024,0.15,0.036v1.554C31,39.551,31,39.75,31,39.75z M27.201,35.11
		c-0.43,0.028-0.837,0.215-1.154,0.532c-0.318,0.319-0.507,0.736-0.532,1.181c0.447-0.026,0.864-0.215,1.184-0.532
		c0.281-0.281,0.459-0.637,0.515-1.027C27.207,35.22,27.204,35.167,27.201,35.11z M28.122,35.11
		c-0.003,0.057-0.006,0.113-0.013,0.169c0.057,0.374,0.234,0.73,0.519,1.012c0.317,0.317,0.733,0.506,1.182,0.532
		c-0.026-0.445-0.215-0.861-0.533-1.181C28.966,35.332,28.55,35.142,28.122,35.11z M22.902,35.108
		c0.026,0.445,0.213,0.864,0.532,1.183c0.318,0.317,0.735,0.506,1.183,0.532c-0.027-0.445-0.213-0.861-0.533-1.181
		C23.767,35.325,23.339,35.134,22.902,35.108z M32.422,35.108c-0.442,0.021-0.857,0.21-1.182,0.534
		c-0.318,0.319-0.507,0.735-0.533,1.181c0.447-0.026,0.864-0.215,1.183-0.532C32.208,35.973,32.395,35.554,32.422,35.108z
		 M27.201,32.932c-0.442,0.038-0.85,0.225-1.154,0.528c-0.318,0.319-0.507,0.735-0.532,1.182c0.447-0.024,0.863-0.213,1.184-0.531
		c0.281-0.282,0.459-0.64,0.517-1.031C27.209,33.036,27.204,32.987,27.201,32.932z M32.422,32.93
		c-0.454,0.033-0.871,0.219-1.182,0.53c-0.319,0.319-0.507,0.735-0.533,1.182c0.446-0.024,0.864-0.213,1.183-0.531
		C32.208,33.791,32.395,33.375,32.422,32.93z M22.902,32.93c0.027,0.445,0.213,0.861,0.532,1.181
		c0.318,0.318,0.735,0.504,1.183,0.531c-0.027-0.446-0.213-0.862-0.533-1.182C23.772,33.147,23.354,32.961,22.902,32.93z
		 M28.122,32.932c-0.003,0.056-0.006,0.11-0.013,0.165c0.057,0.372,0.234,0.73,0.519,1.014c0.316,0.318,0.733,0.504,1.182,0.531
		c-0.026-0.446-0.215-0.862-0.533-1.182C28.972,33.156,28.563,32.968,28.122,32.932z M22.902,30.746
		c0.026,0.445,0.213,0.862,0.532,1.182c0.323,0.324,0.741,0.512,1.183,0.535c-0.027-0.447-0.213-0.865-0.533-1.185
		C23.769,30.962,23.34,30.771,22.902,30.746z M28.122,30.748c-0.003,0.055-0.006,0.11-0.013,0.167
		c0.057,0.374,0.234,0.73,0.519,1.013c0.322,0.324,0.739,0.512,1.182,0.535c-0.026-0.447-0.215-0.867-0.533-1.185
		C28.967,30.97,28.55,30.778,28.122,30.748z M27.201,30.749c-0.438,0.032-0.845,0.22-1.154,0.529
		c-0.318,0.319-0.507,0.736-0.532,1.183c0.447-0.027,0.864-0.216,1.184-0.533c0.281-0.282,0.459-0.638,0.517-1.031
		C27.209,30.854,27.204,30.803,27.201,30.749z M32.422,30.746c-0.448,0.027-0.864,0.215-1.182,0.532
		c-0.318,0.317-0.507,0.736-0.533,1.183c0.447-0.027,0.864-0.216,1.183-0.533C32.208,31.609,32.395,31.191,32.422,30.746z
		 M25.065,28.637c-0.296,0.334-0.458,0.762-0.458,1.213s0.163,0.878,0.458,1.214c0.296-0.336,0.459-0.763,0.459-1.214
		S25.362,28.971,25.065,28.637z M30.258,28.637c-0.298,0.336-0.459,0.763-0.459,1.213c0,0.451,0.161,0.878,0.459,1.214
		c0.298-0.336,0.459-0.763,0.459-1.214S30.555,28.971,30.258,28.637z"/>
	<path fill="#0085CD" d="M33.219,32.45c-0.023-0.166-0.153-0.296-0.318-0.319c-0.036-0.006-0.074-0.009-0.114-0.013
		c0.368-0.542,0.521-1.194,0.433-1.851v-0.001c-0.023-0.163-0.153-0.296-0.318-0.318c-0.12-0.016-0.243-0.024-0.364-0.024
		c-0.35,0-0.691,0.069-1.017,0.203c0.011-0.1,0.016-0.189,0.016-0.277c0-0.836-0.384-1.605-1.052-2.114
		c-0.134-0.101-0.319-0.101-0.451,0c-0.669,0.509-1.053,1.278-1.053,2.114c0,0.088,0.005,0.178,0.016,0.277
		c-0.324-0.134-0.665-0.203-1.015-0.203c-0.106,0-0.214,0.008-0.319,0.021c-0.104-0.013-0.211-0.021-0.317-0.021
		c-0.351,0-0.692,0.069-1.017,0.203c0.012-0.1,0.018-0.189,0.018-0.277c-0.002-0.836-0.384-1.605-1.053-2.114
		c-0.134-0.101-0.318-0.101-0.452,0c-0.668,0.509-1.052,1.278-1.052,2.114c0,0.087,0.005,0.178,0.018,0.277
		c-0.325-0.134-0.666-0.203-1.017-0.203c-0.122,0-0.245,0.009-0.364,0.024c-0.166,0.022-0.296,0.155-0.319,0.318
		c-0.09,0.657,0.063,1.31,0.433,1.852c-0.041,0.004-0.079,0.007-0.114,0.013c-0.166,0.023-0.296,0.153-0.319,0.319
		c-0.09,0.655,0.063,1.308,0.433,1.851c-0.041,0.002-0.079,0.007-0.114,0.011c-0.166,0.024-0.296,0.155-0.319,0.318
		c-0.114,0.833,0.159,1.648,0.751,2.24c0.494,0.495,1.151,0.77,1.853,0.775c-0.01,0.032-0.016,0.068-0.016,0.106v1.554
		c0,0.206,0.166,0.374,0.372,0.374c0.206,0,0.374-0.168,0.374-0.374v-1.554c0-0.037-0.006-0.074-0.016-0.106
		c0.7-0.006,1.357-0.28,1.853-0.775c0.149-0.148,0.278-0.313,0.385-0.488c0.108,0.176,0.236,0.34,0.388,0.488
		c0.493,0.495,1.151,0.77,1.852,0.775c-0.01,0.032-0.016,0.068-0.016,0.106v1.554c0,0.206,0.167,0.374,0.373,0.374
		c0.207,0,0.373-0.168,0.373-0.374v-1.554c0-0.037-0.005-0.074-0.015-0.106c0.7-0.006,1.357-0.28,1.853-0.775
		c0.591-0.591,0.864-1.407,0.75-2.24c-0.023-0.164-0.153-0.294-0.318-0.318c-0.036-0.004-0.074-0.009-0.114-0.011
		C33.154,33.758,33.308,33.105,33.219,32.45L33.219,32.45z M29.726,29.85c0-0.497,0.189-0.964,0.532-1.32
		c0.343,0.356,0.532,0.823,0.533,1.32c0,0.498-0.19,0.963-0.533,1.32C29.915,30.813,29.726,30.348,29.726,29.85L29.726,29.85z
		 M30.631,34.719c0.009-0.496,0.206-0.958,0.557-1.312c0.344-0.343,0.807-0.539,1.312-0.555c-0.009,0.494-0.206,0.957-0.559,1.309
		C31.589,34.514,31.125,34.71,30.631,34.719L30.631,34.719z M30.631,32.535c0.009-0.494,0.206-0.958,0.557-1.308
		c0.351-0.352,0.814-0.548,1.312-0.558c-0.009,0.493-0.206,0.958-0.559,1.311C31.591,32.33,31.127,32.526,30.631,32.535
		L30.631,32.535z M32.499,35.031c-0.009,0.496-0.206,0.96-0.559,1.312c-0.35,0.35-0.813,0.548-1.31,0.559
		c0.009-0.496,0.206-0.959,0.557-1.312C31.545,35.233,32.009,35.036,32.499,35.031L32.499,35.031z M24.533,29.85
		c0-0.497,0.189-0.964,0.532-1.32c0.344,0.356,0.532,0.823,0.532,1.32c0,0.498-0.188,0.963-0.532,1.32
		C24.722,30.813,24.533,30.348,24.533,29.85L24.533,29.85z M25.439,36.901c0.009-0.496,0.205-0.959,0.558-1.312
		c0.349-0.349,0.798-0.545,1.276-0.556c0.001,0.08,0.006,0.16,0.014,0.239c-0.059,0.403-0.243,0.774-0.538,1.069
		C26.399,36.692,25.934,36.891,25.439,36.901L25.439,36.901z M27.272,30.672c0.001,0.079,0.006,0.157,0.015,0.236
		c-0.059,0.404-0.243,0.776-0.539,1.072c-0.349,0.35-0.813,0.546-1.309,0.555c0.009-0.494,0.205-0.958,0.558-1.308
		C26.338,30.885,26.789,30.688,27.272,30.672L27.272,30.672z M28.052,30.672c0.473,0.013,0.935,0.213,1.275,0.556
		c0.353,0.35,0.549,0.814,0.558,1.31c-0.489-0.003-0.951-0.201-1.31-0.557c-0.295-0.296-0.481-0.668-0.538-1.072
		C28.045,30.829,28.05,30.75,28.052,30.672L28.052,30.672z M28.052,32.854c0.488,0.023,0.938,0.218,1.275,0.554
		c0.353,0.354,0.549,0.816,0.558,1.311c-0.496-0.009-0.959-0.206-1.31-0.557c-0.295-0.295-0.481-0.667-0.538-1.072
		C28.045,33.011,28.05,32.932,28.052,32.854L28.052,32.854z M27.272,32.854c0.001,0.079,0.006,0.157,0.015,0.235
		c-0.059,0.405-0.243,0.777-0.539,1.072c-0.353,0.353-0.815,0.549-1.309,0.558c0.009-0.496,0.205-0.958,0.558-1.312
		C26.331,33.072,26.782,32.877,27.272,32.854L27.272,32.854z M28.052,35.034c0.472,0.013,0.932,0.213,1.275,0.557
		c0.353,0.352,0.549,0.814,0.558,1.311c-0.496-0.011-0.959-0.209-1.31-0.559c-0.295-0.295-0.479-0.666-0.538-1.07
		C28.046,35.194,28.05,35.114,28.052,35.034L28.052,35.034z M24.136,33.407c0.353,0.354,0.549,0.816,0.558,1.311
		c-0.497-0.009-0.96-0.206-1.312-0.557c-0.352-0.352-0.548-0.814-0.557-1.309C23.328,32.868,23.791,33.063,24.136,33.407
		L24.136,33.407z M23.382,31.98c-0.352-0.353-0.548-0.817-0.557-1.312c0.486,0.006,0.959,0.207,1.31,0.559
		c0.353,0.35,0.549,0.814,0.558,1.31C24.204,32.534,23.74,32.336,23.382,31.98L23.382,31.98z M24.136,35.591
		c0.353,0.352,0.548,0.814,0.558,1.311c-0.497-0.011-0.96-0.209-1.312-0.559c-0.352-0.352-0.548-0.815-0.557-1.312
		C23.31,35.039,23.784,35.24,24.136,35.591L24.136,35.591z"/>
	<path fill="#0085CD" d="M42.666,37c-0.257,0-0.464,0-0.464,0C42.202,36,42.409,37,42.666,37h8.253c0.482,0,1.513-0.359,1.953-0.794
		c0.142-0.139,0.203-0.411,0.203-0.61c0-0.682-0.783-0.622-1.041-0.7C51.43,34.704,50.808,35,50.803,35h-8.13
		c-0.253,0-0.462-0.246-0.462-0.5c0-0.256,0.209-0.5,0.462-0.5h8.135c0.031,0,0.76-0.317,1.503-0.088
		C53.706,34.349,54,35.016,54,35.639c0,0.447-0.16,0.534-0.479,0.848C52.754,37.241,51.335,37,50.918,37H42.666z"/>
	<path fill="#0085CD" d="M50.918,37.359c-0.021,0-0.036,0-0.047,0h-8.205c-0.216,0-0.391-0.175-0.391-0.389
		c0-0.217,0.175-0.39,0.391-0.39h8.206c0.004,0,0.006,0,0.007,0c0.403,0.005,1.553-0.085,2.045-0.57
		c0.151-0.149,0.225-0.321,0.225-0.537c0-0.734-0.822-0.991-1.092-1.076c-0.621-0.194-1.247-0.202-1.253-0.202h-8.131
		c-0.214,0-0.388-0.176-0.388-0.39c0-0.217,0.174-0.391,0.388-0.391h8.135c0.034,0,0.752,0.012,1.479,0.238
		c1.355,0.422,1.64,1.224,1.64,1.82c0,0.427-0.154,0.795-0.458,1.095C52.708,37.315,51.247,37.359,50.918,37.359L50.918,37.359z"/>
	<path fill="#0085CD" d="M49.255,37c-0.255,0-0.461-0.744-0.461-0.998C48.794,35.746,49,35,49.255,35h1.374
		c0.255,0,0.463,0.746,0.463,1.002c0,0.254-0.208,0.998-0.463,0.998H49.255z"/>
	<path fill="#0085CD" d="M50.629,35.38h-1.374c-0.214,0-0.39-0.174-0.39-0.389s0.176-0.39,0.39-0.39h1.374
		c0.215,0,0.39,0.175,0.39,0.39S50.844,35.38,50.629,35.38L50.629,35.38z"/>
	<path fill="#0085CD" d="M43.938,37c-0.255,0-0.462-0.744-0.462-1c0-0.254,0.207-1,0.462-1h4.297c0.255,0,0.463,0.746,0.463,1
		c0,0.256-0.208,1-0.463,1H43.938z"/>
	<path fill="#0085CD" d="M48.235,35.38h-4.297c-0.216,0-0.391-0.174-0.391-0.389s0.175-0.39,0.391-0.39h4.297
		c0.217,0,0.391,0.175,0.391,0.39S48.452,35.38,48.235,35.38L48.235,35.38z"/>
	<circle fill="#0085CD" cx="27.141" cy="8.304" r="1.314"/>
	<path fill="#0085CD" d="M27.141,9.547c-0.685,0-1.243-0.558-1.243-1.243c0-0.685,0.558-1.242,1.243-1.242
		c0.684,0,1.242,0.557,1.242,1.242C28.383,8.99,27.824,9.547,27.141,9.547L27.141,9.547z"/>
	<path fill="#0085CD" d="M24.912,12.837c-0.137,0-0.267-0.059-0.355-0.165l-0.756-0.903c-0.079-0.094-0.117-0.215-0.106-0.337
		c0.012-0.122,0.07-0.234,0.165-0.314c0.083-0.068,0.187-0.107,0.296-0.107c0.138,0,0.267,0.06,0.355,0.164l0.756,0.904
		c0.079,0.094,0.117,0.214,0.106,0.336c-0.011,0.124-0.069,0.235-0.164,0.314C25.125,12.799,25.021,12.837,24.912,12.837z"/>
	<path fill="#0085CD" d="M24.454,11.222c-0.139-0.165-0.384-0.186-0.549-0.048c-0.165,0.137-0.186,0.383-0.047,0.549l0.755,0.903
		c0.078,0.09,0.188,0.139,0.299,0.139c0.088,0,0.178-0.031,0.25-0.092c0.165-0.138,0.187-0.384,0.049-0.548L24.454,11.222
		L24.454,11.222z"/>
	<path fill="#0085CD" d="M23.449,11.021c-0.137,0-0.267-0.061-0.355-0.167l-0.271-0.325c-0.079-0.094-0.117-0.214-0.106-0.336
		c0.011-0.123,0.069-0.234,0.164-0.314c0.083-0.071,0.188-0.108,0.296-0.108c0.137,0,0.267,0.061,0.355,0.166l0.272,0.325
		c0.163,0.195,0.139,0.487-0.057,0.652C23.663,10.983,23.558,11.021,23.449,11.021z"/>
	<path fill="#0085CD" d="M23.747,10.308l-0.271-0.324c-0.137-0.166-0.383-0.187-0.549-0.049c-0.164,0.139-0.186,0.384-0.047,0.549
		l0.271,0.325c0.078,0.091,0.188,0.139,0.299,0.139c0.088,0,0.178-0.029,0.25-0.09C23.864,10.718,23.886,10.473,23.747,10.308
		L23.747,10.308z"/>
	<path fill="#0085CD" d="M44.078,12.837c-0.136,0-0.267-0.059-0.354-0.165l-0.757-0.903c-0.08-0.094-0.117-0.215-0.106-0.337
		s0.069-0.234,0.164-0.314c0.082-0.068,0.188-0.107,0.297-0.107c0.137,0,0.267,0.06,0.355,0.164l0.756,0.904
		c0.163,0.195,0.137,0.487-0.059,0.651C44.292,12.799,44.188,12.837,44.078,12.837z"/>
	<path fill="#0085CD" d="M43.621,11.222c-0.138-0.165-0.385-0.186-0.549-0.048c-0.165,0.137-0.188,0.383-0.048,0.549l0.756,0.903
		c0.076,0.09,0.188,0.139,0.298,0.139c0.09,0,0.178-0.031,0.25-0.092c0.165-0.138,0.188-0.384,0.049-0.548L43.621,11.222
		L43.621,11.222z"/>
	<path fill="#0085CD" d="M42.617,11.021c-0.139,0-0.268-0.061-0.355-0.167L41.99,10.53c-0.164-0.195-0.138-0.487,0.056-0.651
		c0.084-0.071,0.189-0.108,0.298-0.108c0.139,0,0.267,0.061,0.354,0.166l0.272,0.325c0.08,0.095,0.117,0.214,0.106,0.337
		s-0.069,0.234-0.163,0.314C42.83,10.983,42.725,11.021,42.617,11.021z"/>
	<path fill="#0085CD" d="M42.915,10.308l-0.273-0.324c-0.138-0.166-0.383-0.187-0.548-0.049c-0.164,0.139-0.186,0.384-0.049,0.549
		l0.272,0.325c0.077,0.091,0.188,0.139,0.3,0.139c0.086,0,0.176-0.029,0.249-0.09C43.031,10.718,43.053,10.473,42.915,10.308
		L42.915,10.308z"/>
	<path fill="#0085CD" d="M35.706,12.393c-0.14,0-0.269-0.061-0.355-0.165l-1.202-1.434c-0.079-0.095-0.116-0.214-0.105-0.337
		c0.012-0.125,0.068-0.235,0.163-0.314c0.083-0.07,0.188-0.108,0.297-0.108c0.138,0,0.268,0.061,0.354,0.167l1.201,1.433
		c0.079,0.094,0.117,0.214,0.106,0.337c-0.01,0.123-0.069,0.236-0.163,0.313C35.918,12.355,35.814,12.393,35.706,12.393z"/>
	<path fill="#0085CD" d="M34.801,10.248c-0.138-0.166-0.383-0.188-0.549-0.049c-0.164,0.138-0.185,0.384-0.048,0.548l1.201,1.434
		c0.078,0.091,0.188,0.14,0.301,0.14c0.088,0,0.176-0.031,0.248-0.091c0.165-0.138,0.188-0.385,0.051-0.549L34.801,10.248
		L34.801,10.248z"/>
	<path fill="#0085CD" d="M33.381,9.506c-0.137,0-0.266-0.06-0.354-0.166l-0.431-0.515c-0.08-0.095-0.118-0.215-0.107-0.337
		c0.011-0.125,0.07-0.236,0.163-0.315c0.085-0.069,0.19-0.108,0.297-0.108c0.138,0,0.268,0.06,0.356,0.166l0.433,0.515
		c0.161,0.196,0.135,0.49-0.061,0.653C33.596,9.467,33.491,9.506,33.381,9.506z"/>
	<path fill="#0085CD" d="M33.248,8.278c-0.139-0.165-0.384-0.187-0.549-0.048c-0.164,0.137-0.188,0.384-0.048,0.549l0.432,0.515
		c0.076,0.092,0.187,0.139,0.298,0.139c0.089,0,0.179-0.03,0.251-0.091c0.165-0.137,0.186-0.382,0.049-0.548L33.248,8.278
		L33.248,8.278z"/>
	<path fill="#0085CD" d="M49.911,13.579c-0.138,0-0.267-0.061-0.356-0.167l-0.52-0.621c-0.081-0.095-0.117-0.214-0.108-0.337
		c0.012-0.124,0.071-0.234,0.165-0.314c0.083-0.069,0.188-0.109,0.297-0.109c0.138,0,0.267,0.062,0.354,0.167l0.521,0.621
		c0.079,0.095,0.117,0.214,0.106,0.337c-0.012,0.123-0.068,0.235-0.164,0.314C50.123,13.541,50.018,13.579,49.911,13.579z"/>
	<path fill="#0085CD" d="M49.688,12.244c-0.139-0.165-0.385-0.187-0.55-0.048s-0.185,0.385-0.048,0.548l0.522,0.623
		c0.077,0.091,0.186,0.139,0.299,0.139c0.088,0,0.176-0.029,0.249-0.09c0.164-0.14,0.186-0.385,0.048-0.549L49.688,12.244
		L49.688,12.244z"/>
	<path fill="#0085CD" d="M26.05,14.301c-0.108,0-0.211-0.038-0.295-0.106c-0.095-0.079-0.153-0.19-0.165-0.313
		c-0.012-0.123,0.024-0.242,0.104-0.337l0.842-1.016l-3.542-3.839l-4.446,5.442c-0.087,0.108-0.219,0.169-0.359,0.169
		c-0.105,0-0.208-0.037-0.292-0.104c-0.197-0.163-0.228-0.455-0.066-0.651l4.783-5.616C22.699,7.827,22.824,8,22.958,8
		c0.001,0,0.001,0,0.001,0c0.142,0,0.266-0.185,0.353-0.09l3.817,4.021l5.164-6.284c0.088-0.105,0.218-0.198,0.356-0.198
		c0.138,0,0.268,0.047,0.355,0.153l5.162,6.217l3.819-4.146c0.087-0.093,0.21-0.15,0.338-0.15c0.149,0.004,0.273,0.065,0.36,0.17
		l3.112,3.808l2.308-2.572c0.088-0.098,0.213-0.154,0.342-0.154c0.15,0.004,0.277,0.067,0.362,0.172l3.686,4.553
		c0.159,0.199,0.13,0.49-0.068,0.651c-0.083,0.065-0.187,0.103-0.291,0.103c-0.141,0-0.271-0.063-0.36-0.171L48.432,9.95
		c0,0-2.04,2.274-2.042,2.276l1.079,1.32c0.16,0.197,0.131,0.489-0.066,0.65c-0.084,0.067-0.186,0.104-0.291,0.104
		c-0.142,0-0.271-0.061-0.359-0.169l-4.445-5.442l-3.542,3.84l0.839,1.015c0.08,0.095,0.117,0.215,0.105,0.337
		c-0.012,0.124-0.07,0.234-0.164,0.313c-0.084,0.069-0.189,0.106-0.296,0.106c-0.139,0-0.269-0.061-0.356-0.168L32.65,6.607
		l-6.244,7.526C26.318,14.24,26.188,14.301,26.05,14.301z"/>
	<path fill="#0085CD" d="M52.438,13.547l-3.686-4.554c-0.071-0.089-0.178-0.14-0.291-0.144c-0.114-0.004-0.226,0.044-0.301,0.13
		l-2.364,2.635l-3.167-3.877c-0.072-0.087-0.178-0.139-0.29-0.142c-0.113-0.004-0.222,0.041-0.298,0.125l-3.876,4.202l-5.216-6.289
		c-0.073-0.091-0.185-0.142-0.299-0.142c-0.117,0-0.227,0.051-0.301,0.142l-5.217,6.289L23.259,7.72
		c-0.078-0.084-0.186-0.129-0.299-0.125c-0.113,0.003-0.219,0.055-0.29,0.142l-4.783,5.856c-0.136,0.165-0.112,0.411,0.055,0.547
		c0.072,0.06,0.16,0.088,0.246,0.088c0.114,0,0.227-0.048,0.303-0.144l4.5-5.508l3.629,3.937c0.005,0.005,0.01,0.008,0.014,0.011
		L25.75,13.59c-0.137,0.166-0.115,0.41,0.052,0.548c0.164,0.138,0.411,0.114,0.548-0.051l6.3-7.596l6.299,7.596
		c0.077,0.092,0.188,0.141,0.3,0.141c0.088,0,0.176-0.03,0.247-0.09c0.166-0.138,0.189-0.383,0.052-0.548l-0.882-1.065
		c0.004-0.003,0.01-0.006,0.014-0.011l3.629-3.937l4.499,5.508c0.077,0.095,0.189,0.144,0.304,0.144
		c0.085,0,0.173-0.028,0.244-0.088c0.167-0.136,0.191-0.382,0.057-0.547l-1.123-1.374c0.02-0.015,0.037-0.031,0.053-0.049
		l2.093-2.332l3.397,4.198c0.078,0.095,0.188,0.146,0.304,0.146c0.087,0,0.172-0.029,0.245-0.087
		C52.548,13.959,52.574,13.714,52.438,13.547L52.438,13.547z"/>
	<path fill="#0085CD" d="M18.348,17c-0.255,0-0.463-0.244-0.463-0.5c0-0.254,0.208-0.5,0.463-0.5h1.54
		c0.256,0,0.463,0.246,0.463,0.5c0,0.256-0.208,0.5-0.463,0.5H18.348z"/>
	<path fill="#0085CD" d="M19.888,16.254h-1.54c-0.215,0-0.389-0.174-0.389-0.39c0-0.214,0.174-0.389,0.389-0.389h1.54
		c0.216,0,0.391,0.175,0.391,0.389C20.279,16.08,20.104,16.254,19.888,16.254L19.888,16.254z"/>
	<path fill="#0085CD" d="M21.333,17c-0.255,0-0.463-0.244-0.463-0.5c0-0.255,0.208-0.5,0.463-0.5h3.298
		c0.255,0,0.463,0.245,0.463,0.5c0,0.256-0.208,0.5-0.463,0.5H21.333z"/>
	<path fill="#0085CD" d="M24.631,16.254h-3.298c-0.215,0-0.39-0.174-0.39-0.39c0-0.214,0.174-0.389,0.39-0.389h3.298
		c0.215,0,0.39,0.175,0.39,0.389C25.021,16.08,24.847,16.254,24.631,16.254L24.631,16.254z"/>
	<path fill="#0085CD" d="M19.128,19c-0.256,0-0.463,0-0.463,0S18.872,19,19.128,19h5.071c0.254,0,0.461,0,0.461,0s-0.208,0-0.461,0
		H19.128z"/>
	<path fill="#0085CD" d="M24.199,18.13h-5.071c-0.215,0-0.391-0.174-0.391-0.389c0-0.214,0.175-0.389,0.391-0.389h5.071
		c0.213,0,0.389,0.175,0.389,0.389C24.588,17.957,24.413,18.13,24.199,18.13L24.199,18.13z"/>
	<path fill="#0085CD" d="M37.277,17c-0.255,0-0.463-0.244-0.463-0.5c0-0.255,0.208-0.5,0.463-0.5h2.208
		c0.255,0,0.462,0.245,0.462,0.5c0,0.256-0.207,0.5-0.462,0.5H37.277z"/>
	<path fill="#0085CD" d="M39.485,16.254h-2.208c-0.217,0-0.39-0.174-0.39-0.39c0-0.214,0.173-0.389,0.39-0.389h2.208
		c0.214,0,0.39,0.175,0.39,0.389C39.875,16.08,39.699,16.254,39.485,16.254L39.485,16.254z"/>
	<path fill="#0085CD" d="M40.846,17c-0.256,0-0.463-0.244-0.463-0.5c0-0.255,0.207-0.5,0.463-0.5h3.299
		c0.256,0,0.463,0.245,0.463,0.5c0,0.256-0.207,0.5-0.463,0.5H40.846z"/>
	<path fill="#0085CD" d="M44.145,16.254h-3.299c-0.215,0-0.39-0.174-0.39-0.39c0-0.214,0.175-0.389,0.39-0.389h3.299
		c0.215,0,0.389,0.175,0.389,0.389C44.533,16.08,44.359,16.254,44.145,16.254L44.145,16.254z"/>
	<path fill="#0085CD" d="M37.309,18.188c-0.255-0.001-0.462-0.208-0.462-0.463c0.002-0.255,0.208-0.462,0.463-0.462l4.899,0.014
		c0.124,0,0.239,0.05,0.327,0.137c0.087,0.087,0.135,0.204,0.135,0.327c-0.001,0.255-0.209,0.462-0.463,0.462L37.309,18.188z"/>
	<path fill="#0085CD" d="M42.208,18.13L42.208,18.13l-4.898-0.014c-0.217-0.001-0.39-0.176-0.39-0.391s0.176-0.388,0.39-0.388
		c0,0,0,0,0.001,0l4.898,0.015c0.215,0,0.389,0.176,0.389,0.39C42.598,17.958,42.422,18.13,42.208,18.13L42.208,18.13z"/>
	<path fill="#0085CD" d="M19.572,23.059c-0.166,0-0.321-0.091-0.404-0.236l-4.437-7.89c-0.686,0.766-1.286,1.178-1.886,1.293
		c-0.112,0.021-0.226,0.033-0.337,0.033c-0.511,0-0.912-0.228-1.233-0.412c-0.228-0.128-0.419-0.237-0.578-0.237
		c-0.371,0-0.515,0.076-0.733,0.191c-0.3,0.156-0.671,0.35-1.512,0.35c-1.058,0-1.749-0.786-2.097-1.323l-4.496,7.995
		c-0.082,0.146-0.237,0.236-0.404,0.236c-0.079,0-0.157-0.02-0.226-0.059c-0.222-0.127-0.3-0.408-0.176-0.629l4.97-8.987
		C6.104,13.238,6.258,13,6.425,13h8.177c0.167,0,0.321,0.238,0.404,0.383l4.97,8.913c0.124,0.222,0.045,0.541-0.177,0.666
		C19.729,23.002,19.65,23.059,19.572,23.059z M10.696,14.686c0.405,0,0.725,0.18,1.035,0.358c0.273,0.155,0.51,0.29,0.78,0.29
		c0.051,0,0.104-0.616,0.159-0.625C13.068,14.63,13.556,15,14.122,13H7.069c0.248,2,0.714,1.614,1.382,1.614
		c0.614,0,0.842,0.187,1.083,0.06C9.798,14.537,10.098,14.686,10.696,14.686z"/>
	<path fill="#0085CD" d="M19.911,22.406l-4.97-8.838c-0.068-0.122-0.199-0.198-0.34-0.198H6.425c-0.141,0-0.271,0.076-0.339,0.198
		l-4.97,8.838c-0.105,0.187-0.039,0.424,0.149,0.529c0.188,0.106,0.425,0.039,0.531-0.147l4.556-8.103
		c0.347,0.573,1.029,1.392,2.1,1.392c0.824,0,1.186-0.19,1.477-0.342c0.221-0.115,0.38-0.198,0.768-0.198
		c0.179,0,0.381,0.114,0.614,0.247c0.32,0.183,0.707,0.401,1.197,0.401c0.103,0,0.211-0.009,0.324-0.03
		c0.597-0.116,1.211-0.547,1.912-1.348l4.488,7.981c0.072,0.125,0.204,0.198,0.34,0.198c0.065,0,0.13-0.016,0.19-0.051
		C19.95,22.83,20.017,22.593,19.911,22.406L19.911,22.406z M12.684,15.389c-0.367,0.071-0.655-0.093-0.989-0.282
		c-0.301-0.171-0.613-0.35-0.999-0.35c-0.58,0-0.872,0.153-1.128,0.287c-0.249,0.131-0.484,0.253-1.117,0.253
		c-0.771,0-1.279-0.729-1.508-1.148h7.338C13.661,14.885,13.124,15.305,12.684,15.389L12.684,15.389z"/>
	<path fill="#0085CD" d="M4.885,22.994c-0.076,0-0.154-0.02-0.222-0.057c-0.108-0.06-0.187-0.158-0.222-0.276
		c-0.034-0.12-0.021-0.244,0.039-0.353l1.029-1.879c0.082-0.148,0.238-0.241,0.406-0.241c0.078,0,0.155,0.021,0.223,0.058
		c0.108,0.059,0.186,0.157,0.222,0.275c0.035,0.118,0.021,0.243-0.039,0.353l-1.03,1.879C5.21,22.902,5.054,22.994,4.885,22.994z"/>
	<path fill="#0085CD" d="M6.102,20.31c-0.188-0.104-0.425-0.035-0.528,0.154l-1.03,1.881c-0.104,0.188-0.035,0.425,0.154,0.528
		c0.06,0.031,0.124,0.047,0.187,0.047c0.138,0,0.271-0.073,0.342-0.201l1.029-1.881C6.361,20.649,6.291,20.412,6.102,20.31
		L6.102,20.31z"/>
	<path fill="#0085CD" d="M6.851,19.229c-0.077,0-0.155-0.02-0.222-0.058c-0.108-0.059-0.186-0.157-0.222-0.275
		c-0.034-0.119-0.021-0.245,0.039-0.353l0.37-0.675c0.082-0.148,0.238-0.241,0.407-0.241c0.077,0,0.154,0.02,0.222,0.057
		c0.223,0.124,0.306,0.405,0.183,0.629l-0.37,0.676C7.176,19.137,7.02,19.229,6.851,19.229z"/>
	<path fill="#0085CD" d="M7.409,17.749c-0.188-0.103-0.425-0.034-0.529,0.155l-0.37,0.675c-0.104,0.19-0.035,0.427,0.154,0.529
		c0.06,0.033,0.124,0.047,0.187,0.047c0.139,0,0.271-0.072,0.342-0.201l0.371-0.676C7.667,18.089,7.597,17.852,7.409,17.749
		L7.409,17.749z"/>
	<path fill="#0085CD" d="M16.143,22.994c-0.17,0-0.325-0.092-0.407-0.242l-1.029-1.879c-0.06-0.109-0.073-0.233-0.038-0.353
		c0.034-0.118,0.113-0.216,0.221-0.275c0.068-0.037,0.146-0.056,0.222-0.056c0.169,0,0.325,0.092,0.406,0.24l1.031,1.879
		c0.122,0.224,0.04,0.506-0.185,0.628C16.295,22.975,16.219,22.994,16.143,22.994z"/>
	<path fill="#0085CD" d="M15.454,20.463c-0.104-0.188-0.34-0.257-0.53-0.154c-0.188,0.102-0.256,0.339-0.153,0.528l1.029,1.881
		c0.071,0.128,0.205,0.201,0.343,0.201c0.063,0,0.126-0.016,0.186-0.047c0.189-0.104,0.258-0.341,0.155-0.528L15.454,20.463
		L15.454,20.463z"/>
	<path fill="#0085CD" d="M14.175,19.229c-0.169,0-0.325-0.093-0.406-0.241l-0.371-0.676c-0.122-0.224-0.04-0.505,0.184-0.629
		c0.068-0.037,0.145-0.057,0.222-0.057c0.169,0,0.325,0.093,0.406,0.241l0.371,0.675c0.06,0.108,0.073,0.233,0.038,0.353
		c-0.034,0.118-0.114,0.216-0.222,0.276C14.329,19.21,14.254,19.229,14.175,19.229z"/>
	<path fill="#0085CD" d="M14.146,17.904c-0.103-0.189-0.34-0.258-0.528-0.155c-0.189,0.104-0.258,0.341-0.154,0.53l0.371,0.676
		c0.07,0.129,0.205,0.201,0.341,0.201c0.064,0,0.128-0.014,0.187-0.047c0.189-0.102,0.258-0.339,0.155-0.529L14.146,17.904
		L14.146,17.904z"/>
	<path fill="#0085CD" d="M10.502,19.233c-0.256,0-0.548-0.207-0.548-0.462v-0.677c0-0.255,0.292-0.463,0.548-0.463
		c0.255,0,0.548,0.208,0.548,0.463v0.677C11.05,19.026,10.757,19.233,10.502,19.233z"/>
	<path fill="#0085CD" d="M10.513,17.704c-0.214,0-0.389,0.174-0.389,0.39v0.677c0,0.214,0.175,0.389,0.389,0.389
		c0.215,0,0.39-0.175,0.39-0.389v-0.677C10.903,17.877,10.729,17.704,10.513,17.704L10.513,17.704z"/>
	<path fill="#0085CD" d="M10.5,23.006c-0.255,0-0.5-0.207-0.5-0.462V20.62c0-0.255,0.245-0.463,0.5-0.463S11,20.364,11,20.62v1.925
		C11,22.799,10.755,23.006,10.5,23.006z"/>
	<path fill="#0085CD" d="M10.513,20.229c-0.214,0-0.389,0.175-0.389,0.39v1.925c0,0.215,0.175,0.389,0.389,0.389
		c0.215,0,0.39-0.174,0.39-0.389V20.62C10.903,20.404,10.729,20.229,10.513,20.229L10.513,20.229z"/>
	<path fill="#0085CD" d="M8,12.483c-0.255,0-1-0.207-1-0.463v-1.279c-1-0.285-1.16-1.187-1.095-2.165
		c0.038-0.586,0.438-1.134,0.862-1.499C7.107,6.783,7.606,6.62,8.042,6.62c0.048,0,0.13,0.002,0.179,0.006
		C8.418,6.642,8.627,6.69,8.811,6.77c0.127-0.313,0.331-0.59,0.577-0.802c0.342-0.296,0.776-0.458,1.211-0.458
		c0.049,0,0.099,0.002,0.148,0.005c0.611,0.05,1.165,0.412,1.494,0.974c0.288-0.173,0.615-0.265,0.945-0.265
		c0.047,0,0.097,0.002,0.144,0.005c1.063,0.086,1.866,1.095,1.791,2.251c-0.039,0.588-0.021,1.134-0.445,1.5
		C14.399,10.22,14,10.371,14,10.42v1.566c0,0.256-0.245,0.463-0.5,0.463S13,12.243,13,11.987v-1.946
		c0-0.185-0.134-0.353,0.035-0.426c0.065-0.064,0.052-0.105,0.165-0.105c0,0,0.023,0.004,0.046,0.004
		c0.219,0,0.399-0.081,0.575-0.233c0.237-0.205,0.37-0.518,0.393-0.859c0.042-0.654-0.388-1.224-0.95-1.27
		c-0.024-0.001-0.051-0.002-0.075-0.002c-0.295,0-0.569,0.145-0.765,0.407c-0.088,0.116-0.227,0.185-0.371,0.185
		c-0.036,0-0.072-0.003-0.106-0.012c-0.179-0.042-0.316-0.185-0.35-0.364c-0.096-0.511-0.475-0.891-0.922-0.927
		c-0.023-0.002-0.046-0.003-0.07-0.003c-0.215,0-0.43,0.082-0.603,0.233c-0.238,0.205-0.387,0.518-0.41,0.859
		C9.583,7.743,9.465,7.905,9.29,7.97C9.239,7.988,9.184,7.999,9.13,7.999c-0.128,0-0.25-0.053-0.338-0.145
		C8.622,7.673,8.41,7.566,8.18,7.548C8.156,7.545,8.133,7.544,8.11,7.544c-0.216,0-0.43,0.083-0.604,0.233
		C7.269,7.983,7.12,8.296,7.098,8.638c-0.042,0.654,0.647,1.223,1.21,1.269C8.546,9.926,9,10.128,9,10.369v1.651
		C9,12.277,8.255,12.483,8,12.483z"/>
	<path fill="#0085CD" d="M7.613,10.688v1.332c0,0.216,0.174,0.389,0.39,0.389c0.215,0,0.389-0.173,0.389-0.389v-1.651
		c0-0.204-0.156-0.374-0.358-0.39C7.432,9.93,6.979,9.327,7.025,8.634C7.048,8.272,7.207,7.94,7.459,7.723
		c0.208-0.182,0.467-0.269,0.727-0.247c0.248,0.019,0.477,0.133,0.66,0.329c0.107,0.112,0.272,0.152,0.42,0.097
		C9.412,7.847,9.512,7.71,9.518,7.553L9.52,7.522c0.024-0.359,0.182-0.691,0.435-0.91c0.208-0.18,0.467-0.268,0.727-0.248
		c0.479,0.039,0.884,0.445,0.987,0.986c0.029,0.152,0.144,0.272,0.295,0.307c0.15,0.036,0.307-0.021,0.4-0.144
		c0.227-0.304,0.554-0.462,0.899-0.435c0.602,0.05,1.055,0.653,1.009,1.347c-0.024,0.36-0.183,0.692-0.434,0.91
		c-0.209,0.182-0.467,0.269-0.727,0.249c-0.111-0.01-0.214,0.029-0.292,0.098c-0.138,0.059-0.236,0.197-0.236,0.358v1.946
		c0,0.215,0.174,0.39,0.39,0.39c0.215,0,0.389-0.175,0.389-0.39v-1.631c0.357-0.036,0.7-0.183,0.985-0.43
		c0.409-0.353,0.665-0.882,0.702-1.45c0.073-1.115-0.7-2.089-1.724-2.172c-0.393-0.033-0.779,0.072-1.107,0.289
		c-0.305-0.565-0.852-0.952-1.473-1.003C10.274,5.55,9.813,5.704,9.444,6.022C9.187,6.246,8.989,6.539,8.869,6.868
		C8.674,6.775,8.464,6.715,8.25,6.7C7.78,6.661,7.318,6.814,6.95,7.132C6.541,7.487,6.284,8.015,6.247,8.583
		C6.184,9.563,6.774,10.436,7.613,10.688L7.613,10.688z"/>
	<path fill="#0085CD" d="M10.5,11.645c-0.255,0-0.5-0.208-0.5-0.464V9.604c0-0.255,0.245-0.463,0.5-0.463S11,9.349,11,9.604v1.577
		C11,11.437,10.755,11.645,10.5,11.645z"/>
	<path fill="#0085CD" d="M9.378,9.604v1.577c0,0.216,0.174,0.39,0.39,0.39s0.39-0.174,0.39-0.39V9.604
		c0-0.215-0.174-0.391-0.39-0.391S9.378,9.389,9.378,9.604L9.378,9.604z"/>
	<path fill="#0085CD" d="M11.5,12.12c-0.255,0-0.5-0.208-0.5-0.463v-1.511c0-0.254,0.245-0.462,0.5-0.462S12,9.892,12,10.146v1.511
		C12,11.912,11.755,12.12,11.5,12.12z"/>
	<path fill="#0085CD" d="M11.373,9.757c-0.215,0-0.389,0.174-0.389,0.389v1.511c0,0.215,0.174,0.39,0.389,0.39s0.39-0.175,0.39-0.39
		v-1.511C11.763,9.931,11.588,9.757,11.373,9.757L11.373,9.757z"/>
	<path fill="#0085CD" d="M5.944,12.404c-0.167,0-0.322-0.089-0.403-0.235L3.958,9.357C3.833,9.135,3.912,8.853,4.135,8.727
		c0.069-0.039,0.147-0.059,0.227-0.059c0.167,0,0.321,0.09,0.403,0.235l1.582,2.813c0.061,0.107,0.076,0.233,0.042,0.351
		c-0.033,0.119-0.11,0.219-0.218,0.278C6.101,12.384,6.023,12.404,5.944,12.404z"/>
	<path fill="#0085CD" d="M5.604,12.133c0.072,0.127,0.205,0.198,0.34,0.198c0.065,0,0.13-0.016,0.191-0.05
		c0.187-0.105,0.253-0.343,0.148-0.53L4.7,8.938C4.595,8.751,4.358,8.685,4.169,8.791C3.982,8.896,3.916,9.134,4.021,9.322
		L5.604,12.133L5.604,12.133z"/>
	<path fill="#0085CD" d="M4.454,12.945c-0.121,0-0.233-0.045-0.321-0.129l-1.326-1.275c-0.089-0.085-0.14-0.2-0.142-0.324
		c-0.003-0.125,0.043-0.241,0.129-0.329C2.882,10.796,3,10.744,3.127,10.744c0.121,0,0.234,0.047,0.321,0.13l1.327,1.275
		c0.089,0.085,0.139,0.2,0.142,0.324c0.003,0.124-0.043,0.24-0.128,0.329C4.7,12.894,4.581,12.945,4.454,12.945z"/>
	<path fill="#0085CD" d="M4.184,12.763c0.076,0.072,0.173,0.109,0.27,0.109c0.102,0,0.205-0.04,0.281-0.12
		c0.149-0.155,0.144-0.402-0.011-0.55l-1.328-1.275c-0.154-0.149-0.401-0.144-0.55,0.01c-0.149,0.155-0.144,0.403,0.011,0.552
		L4.184,12.763L4.184,12.763z"/>
	<path fill="#0085CD" d="M15.206,12.43c-0.095,0-0.188-0.03-0.267-0.085c-0.208-0.147-0.258-0.438-0.11-0.646l0.906-1.278
		c0.087-0.122,0.228-0.195,0.378-0.195c0.096,0,0.188,0.03,0.267,0.086c0.101,0.072,0.168,0.177,0.189,0.299
		c0.02,0.121-0.007,0.245-0.079,0.345l-0.906,1.279C15.498,12.356,15.356,12.43,15.206,12.43z"/>
	<path fill="#0085CD" d="M14.981,12.284c0.069,0.047,0.147,0.072,0.225,0.072c0.122,0,0.243-0.056,0.319-0.165l0.905-1.278
		c0.125-0.175,0.083-0.419-0.092-0.543c-0.176-0.124-0.418-0.082-0.543,0.094l-0.907,1.278
		C14.764,11.917,14.805,12.16,14.981,12.284L14.981,12.284z"/>
	<path fill="#0085CD" d="M18.271,37.842c-0.516,0-1.041-0.242-1.437-0.665c-0.66-0.7-0.883-1.834-0.031-2.643
		c0.214-0.204,0.47-0.348,0.758-0.429c0.163-0.046,0.331-0.068,0.498-0.068c0.688,0,1.311,0.38,1.669,1.02
		c0.445,0.795,0.316,1.729-0.322,2.32C19.08,37.682,18.688,37.842,18.271,37.842z M18.065,34.961c-0.084,0-0.17,0.012-0.255,0.036
		c-0.141,0.039-0.265,0.108-0.37,0.208c-0.496,0.472-0.191,1.064,0.068,1.34c0.168,0.179,0.456,0.372,0.756,0.372
		c0.186,0,0.357-0.073,0.511-0.217c0.395-0.366,0.324-0.87,0.145-1.191C18.772,35.244,18.47,34.961,18.065,34.961z"/>
	<path fill="#0085CD" d="M18.271,37.768c-0.516,0-1.022-0.256-1.384-0.64c-0.635-0.674-0.851-1.766-0.034-2.541
		c0.206-0.195,0.451-0.333,0.728-0.41c0.813-0.227,1.649,0.142,2.083,0.915c0.428,0.765,0.304,1.662-0.308,2.232
		C19.021,37.636,18.644,37.768,18.271,37.768L18.271,37.768z M18.065,34.888c-0.088,0-0.18,0.012-0.275,0.04l0,0
		c-0.152,0.041-0.288,0.117-0.4,0.225c-0.539,0.511-0.212,1.146,0.065,1.442c0.267,0.284,0.856,0.638,1.371,0.159
		c0.425-0.396,0.351-0.938,0.159-1.282C18.821,35.182,18.496,34.888,18.065,34.888L18.065,34.888z M17.685,34.551h0.001H17.685
		L17.685,34.551z"/>
	<path fill="#0085CD" d="M18.396,39.207c-0.14,0-0.284-0.011-0.428-0.031c-0.745-0.112-1.472-0.512-2.048-1.125
		c-1.138-1.211-1.529-3.158-0.078-4.538c0.365-0.348,0.801-0.593,1.295-0.73c0.286-0.081,0.576-0.12,0.861-0.12
		c1.381,0,2.385,0.911,2.863,1.767c0.779,1.393,0.565,2.959-0.544,3.992C19.764,38.934,19.1,39.207,18.396,39.207z M18.008,33.586
		c-0.204,0-0.413,0.029-0.623,0.087c-0.344,0.096-0.649,0.269-0.906,0.512c-1.061,1.007-0.684,2.384,0.116,3.233
		c0.505,0.539,1.177,0.858,1.797,0.858h0c0.479,0,0.914-0.179,1.294-0.534c0.956-0.888,0.795-2.097,0.368-2.861
		C19.704,34.255,18.982,33.586,18.008,33.586z"/>
	<path fill="#0085CD" d="M18.396,39.135c-0.137,0-0.277-0.011-0.417-0.032c-0.729-0.108-1.44-0.501-2.006-1.102
		c-1.112-1.185-1.499-3.088-0.081-4.434c0.357-0.342,0.783-0.58,1.264-0.715l0,0c1.638-0.456,3.009,0.482,3.642,1.613
		c0.762,1.36,0.554,2.894-0.53,3.901C19.723,38.873,19.083,39.135,18.396,39.135L18.396,39.135z M17.366,33.603
		c-0.358,0.1-0.672,0.276-0.937,0.529c-1.098,1.041-0.711,2.459,0.113,3.335c0.797,0.85,2.137,1.314,3.195,0.33
		c0.986-0.918,0.822-2.164,0.38-2.951C19.669,34.044,18.679,33.237,17.366,33.603L17.366,33.603L17.366,33.603z"/>
	<path fill="#0085CD" d="M11.416,43.013c-0.082,0-0.164-0.021-0.237-0.062c-0.115-0.063-0.198-0.168-0.234-0.292
		c-0.037-0.126-0.021-0.258,0.042-0.373c0.423-0.769,0.527-2.722,0.532-3.412c0.001-0.269,0.221-0.486,0.49-0.486
		c0.273,0.002,0.492,0.223,0.491,0.492c-0.004,0.352-0.021,0.671-0.034,0.89c1.042,0.985,2.357,1.482,3.908,1.482
		c0.085,0,0.169-0.001,0.251-0.004c-1.385-0.646-2.652-1.915-3.428-3.445c-0.527-1.042-1.05-1.823-1.883-2.247
		c-0.644-0.327-1.418-0.493-2.301-0.493c-0.217,0-0.444,0.011-0.674,0.029c-0.5,0.044-0.976,0.819-1.48,0.934
		C6.193,36.178,5.503,37,4.757,37H4.682c-0.711,0-1.28-0.896-1.689-1.323c-0.708-0.738-0.762-2.269-0.739-3.104
		c0.038-1.465,0.346-2.874,0.963-4.079c0.025-0.049,0.055-0.198,0.09-0.272l0.016-0.075c0.303-0.651,0.585-1.229,0.986-1.403
		c0.092-0.039,0.189-0.069,0.289-0.069c0.207,0,0.389,0.079,0.522,0.139c0.032,0.016,0.127,0.057,0.156,0.062
		c0.035,0.005,0.071,0.005,0.11,0.005c0.113,0,0.236-0.023,0.376-0.071c0.357-0.116,0.703-0.379,1.037-0.632l0.121-0.093
		c0.178-0.134,0.251-0.28,0.23-0.349c-0.031-0.102-0.328-0.376-1.317-0.426c-0.035-0.001-0.069-0.001-0.102-0.001
		c-1.075,0-1.456,0.83-1.459,0.838c-0.03,0.07-0.077,0.133-0.137,0.182c-1.227,1.016-1.92,2.612-2.387,3.887
		c-0.656,1.79-0.888,3.335-0.709,4.722c0.192,1.497,1.2,2.851,3.083,4.138c-0.063-0.616-0.084-1.037-0.085-1.042
		c-0.007-0.128,0.038-0.513,0.126-0.607C4.25,37.324,4.37,37,4.501,37c0,0,0.001,0,0.002,0c0.284,0,0.499,0.469,0.513,0.723
		c0.001,0.027,0.147,2.859,0.726,4.321c0.1,0.252-0.023,0.6-0.275,0.701c-0.058,0.023-0.119,0.067-0.181,0.067
		c-0.202,0-0.381-0.106-0.455-0.296c-0.217-0.547-0.399-1.275-0.544-2.183c-0.095-0.056-0.179-0.104-0.258-0.154
		c0.144,0.746,0.235,1.47,0.273,2.144c0.008,0.131-0.036,0.835-0.124,0.933C4.092,43.354,3.971,44,3.841,44
		c-0.001,0-0.002,0-0.002,0c-0.288,0-0.501-0.781-0.517-1.041c-0.082-1.451-0.428-3.089-0.49-3.327
		c-1.66-1.307-2.564-2.852-2.767-4.426c-0.198-1.548,0.051-3.313,0.762-5.255c0.499-1.365,1.247-3.118,2.614-4.286
		c0.152-0.289,0.815-1.323,2.267-1.323c0.057,0,0.115-0.006,0.174-0.003c1.646,0.083,2.088,0.732,2.206,1.114
		c0.151,0.495-0.069,1.036-0.578,1.417l-0.117,0.087c-0.38,0.288-0.81,0.613-1.325,0.785c-0.243,0.079-0.466,0.117-0.683,0.117
		c-0.086,0-0.171-0.005-0.255-0.018c-0.166-0.025-0.306-0.089-0.419-0.142c-0.019-0.008-0.037-0.017-0.053-0.025
		c-0.097,0.128-0.247,0.411-0.446,0.844c-0.05,0.108-0.091,0.194-0.123,0.256c-0.549,1.068-0.82,2.18-0.855,3.493
		c-0.018,0.66,0.012,1.747,0.465,2.22C3.924,34.723,4.251,35,4.696,35h0.065c0.632,0,1.236-0.291,1.876-0.439
		c0.518-0.119,1.05-0.317,1.616-0.367c0.259-0.021,0.516-0.072,0.762-0.072c1.038,0,1.961,0.182,2.743,0.58
		c1.133,0.576,1.782,1.616,2.314,2.666c1.261,2.492,3.28,3.372,4.625,3.372c0.24,0,0.472-0.028,0.688-0.078
		c0.037-0.011,0.074-0.015,0.112-0.015c0.211,0,0.398,0.133,0.465,0.333c0.081,0.24-0.034,0.499-0.266,0.604
		c-0.015,0.007-1.488,0.644-3.337,0.644c-1.541,0-2.888-0.429-4.012-1.273c-0.114,0.802-0.284,1.41-0.502,1.807
		C11.759,42.915,11.594,43.013,11.416,43.013z M9.912,42.892c-0.223,0-0.418-0.15-0.474-0.366c-0.114-0.433-0.217-0.907-0.31-1.411
		c-0.271,0.075-0.556,0.112-0.849,0.112c-0.286,0-0.578-0.033-0.872-0.101c-0.071,0.616-0.211,1.117-0.414,1.488
		c-0.086,0.156-0.251,0.254-0.431,0.254c-0.081,0-0.162-0.02-0.235-0.061c-0.237-0.131-0.324-0.429-0.194-0.665
		c0.462-0.842,0.36-2.629,0.282-3.245c-0.033-0.268,0.158-0.514,0.425-0.547c0.021-0.002,0.042-0.005,0.062-0.005
		c0.246,0,0.456,0.186,0.486,0.429c0.013,0.106,0.077,0.66,0.074,1.351c0.2,0.058,0.491,0.121,0.815,0.121
		c0.246,0,0.478-0.036,0.69-0.108c-0.126-0.875-0.182-1.545-0.192-1.674c-0.01-0.134,0.033-0.729,0.118-0.826
		C8.979,37.537,9.099,37,9.229,37c0.001,0,0.001,0,0.002,0c0.29,0,0.503,0.668,0.522,0.923c0.018,0.22,0.181,2.398,0.632,4.121
		c0.033,0.126,0.016,0.377-0.05,0.49c-0.066,0.113-0.173,0.251-0.299,0.284C9.996,42.83,9.954,42.892,9.912,42.892z"/>
	<path fill="#0085CD" d="M19.894,41.001c-0.069-0.204-0.282-0.321-0.491-0.272c-1.647,0.386-4.029-0.637-5.396-3.337
		c-0.526-1.038-1.167-2.079-2.282-2.646c-0.959-0.488-2.125-0.675-3.466-0.559c-0.557,0.051-1.089,0.172-1.603,0.289
		c-0.666,0.152-1.296,0.297-1.961,0.288c-0.466-0.008-0.809-0.131-1.048-0.38c-0.474-0.495-0.505-1.447-0.487-2.119
		c0.036-1.326,0.31-2.446,0.863-3.525c0.032-0.063,0.074-0.151,0.122-0.254c0.088-0.191,0.343-0.741,0.49-0.9
		c0.033,0.014,0.075,0.033,0.105,0.047c0.116,0.052,0.247,0.112,0.4,0.136c0.282,0.042,0.578,0.011,0.904-0.097
		c0.501-0.166,0.928-0.489,1.303-0.773l0.117-0.09c0.483-0.363,0.693-0.875,0.552-1.339c-0.113-0.364-0.538-0.986-2.14-1.067
		c-1.524-0.082-2.211,0.953-2.39,1.283c-1.351,1.154-2.095,2.857-2.593,4.218c-0.707,1.93-0.954,3.615-0.758,5.147
		c0.2,1.556,1.107,2.954,2.759,4.25c0.045,0.168,0.412,1.555,0.499,3.075c0.013,0.222,0.196,0.392,0.417,0.392
		c0.008,0,0.016,0,0.023,0c0.23-0.013,0.406-0.211,0.393-0.439c-0.05-0.876-0.185-1.696-0.306-2.298
		c0.131,0.087,0.265,0.171,0.403,0.256c0.009,0.003,0.018,0.008,0.027,0.011c0.12,0.763,0.294,1.577,0.545,2.211
		c0.065,0.163,0.223,0.263,0.388,0.263c0.052,0,0.104-0.01,0.154-0.029c0.215-0.085,0.319-0.328,0.234-0.541
		c-0.583-1.475-0.73-4.188-0.731-4.214c-0.012-0.231-0.21-0.413-0.438-0.395c-0.231,0.011-0.407,0.207-0.396,0.437
		c0.001,0.048,0.028,0.528,0.101,1.193c-1.98-1.323-3.045-2.726-3.245-4.276c-0.18-1.397,0.055-2.953,0.714-4.756
		c0.471-1.285,1.17-2.893,2.409-3.919c0.05-0.042,0.09-0.095,0.116-0.155c0.003-0.009,0.424-0.936,1.632-0.881
		c0.991,0.051,1.335,0.325,1.382,0.479c0.036,0.115-0.067,0.288-0.254,0.428l-0.12,0.091c-0.34,0.258-0.691,0.525-1.06,0.646
		c-0.2,0.065-0.37,0.087-0.521,0.065c-0.037-0.008-0.113-0.042-0.175-0.071c-0.183-0.084-0.46-0.21-0.75-0.084
		c-0.379,0.165-0.655,0.707-0.951,1.345c-0.042,0.093-0.078,0.169-0.107,0.226c-0.612,1.195-0.916,2.43-0.955,3.883
		c-0.021,0.822,0.028,2,0.719,2.719c0.396,0.412,0.947,0.628,1.638,0.638c0.764,0.011,1.474-0.151,2.16-0.31
		c0.509-0.116,0.989-0.227,1.49-0.269c1.182-0.104,2.196,0.055,3.013,0.47c0.852,0.435,1.382,1.224,1.917,2.278
		c0.768,1.517,2.115,2.911,3.675,3.535c-1.378,0.105-3.113-0.136-4.546-1.505c0.03-0.468,0.035-0.823,0.036-0.919
		c0.001-0.23-0.184-0.417-0.415-0.421c-0.001,0-0.002,0-0.003,0c-0.229,0-0.416,0.188-0.417,0.415
		c-0.004,0.696-0.11,2.669-0.541,3.447c-0.111,0.202-0.038,0.454,0.163,0.566c0.064,0.035,0.134,0.053,0.202,0.053
		c0.146,0,0.289-0.079,0.365-0.217c0.264-0.476,0.419-1.207,0.512-1.904c1.313,1.028,2.786,1.334,4.066,1.333
		c1.837,0,3.282-0.625,3.308-0.636C19.864,41.428,19.962,41.205,19.894,41.001L19.894,41.001z M6.198,42.176
		c-0.111,0.203-0.037,0.457,0.164,0.568c0.064,0.033,0.132,0.052,0.2,0.052c0.148,0,0.291-0.079,0.366-0.218
		c0.235-0.428,0.357-0.987,0.415-1.543c0.252,0.063,0.576,0.119,0.936,0.119c0.286,0,0.594-0.038,0.905-0.132
		c0.086,0.482,0.193,0.988,0.324,1.485c0.048,0.188,0.218,0.312,0.403,0.312c0.035,0,0.069-0.005,0.106-0.015
		c0.223-0.058,0.356-0.286,0.297-0.508c-0.475-1.816-0.632-3.883-0.633-3.902c-0.017-0.23-0.217-0.401-0.447-0.385
		c-0.229,0.016-0.402,0.216-0.385,0.447c0.003,0.049,0.058,0.769,0.2,1.73c-0.648,0.24-1.319,0.099-1.66-0.007
		c0.006-0.749-0.067-1.348-0.073-1.397c-0.029-0.228-0.238-0.389-0.466-0.361c-0.229,0.029-0.39,0.238-0.361,0.467
		C6.567,39.513,6.669,41.319,6.198,42.176L6.198,42.176z"/>
</g>
</svg>
