<?xml version="1.0" encoding="utf-8"?>
<!-- Generator: Adobe Illustrator 16.0.0, SVG Export Plug-In . SVG Version: 6.00 Build 0)  -->
<!DOCTYPE svg PUBLIC "-//W3C//DTD SVG 1.1//EN" "http://www.w3.org/Graphics/SVG/1.1/DTD/svg11.dtd">
<svg version="1.1" id="레이어_1" xmlns="http://www.w3.org/2000/svg" xmlns:xlink="http://www.w3.org/1999/xlink" x="0px"
	 y="0px" width="54px" height="54px" viewBox="0 0 54 54" enable-background="new 0 0 54 54" xml:space="preserve">
<g>
	<path fill="#00A8E7" d="M48.088,42.594c-0.094-0.712-0.223-1.42-0.303-1.727c-0.199-0.752-0.313-2.379-1.077-2.705
		c-0.764-0.325-2.127-1.479-2.89-1.599c-0.522-0.08-1.786,0.408-2.633,0.892c-0.062-0.815-0.167-1.558-0.415-1.997
		c-0.482-0.859-2.871-2.683-3.879-2.738c-0.523-0.03-1.485,0.188-2.313,0.424c-0.163,2.207-0.289,4.841-0.354,8.078
		C40.378,41.449,44.921,41.998,48.088,42.594z"/>
	<path fill="#00A8E7" d="M17.74,41.589c0.004-1.807-0.191-6.355-0.649-10.512c-0.763,0.171-1.756,0.543-2.192,0.993
		c-0.523,0.538-1.683,1.209-1.946,2.371c-0.06,0.266-0.156,0.579-0.261,0.917c-0.711-0.2-1.577-0.354-1.813-0.44
		c-0.383-0.142-1.703,0.167-2.471,1.149c-0.767,0.982-2.487,2.484-2.692,3.231c-0.173,0.633-0.353,2.947-0.344,4.075
		C8.524,42.713,12.844,42.029,17.74,41.589z"/>
	<path fill="#0087CB" d="M25.509,14.375c0.536,1.248,4.147-0.74,2.195-2.103c-0.405-0.284-0.827-0.431-1.243-0.479
		c0.093-0.841,0.099-2.015,0.043-3.179c0.648-0.14,1.182-0.479,0.426-0.941c-0.176-0.107-0.344-0.187-0.507-0.248
		c-0.17-1.926-0.506-3.442-0.887-2.727c-0.065,0.378-0.205,1.439-0.318,2.677c-0.443,0.157-0.726,0.513-0.766,0.898
		c-0.038,0.371,0.304,0.431,0.662,0.428c-0.078,1.213-0.103,2.428,0.005,3.242c-1.533,0.514-2.7,2.008-2.381,2.381
		C23.485,15.208,24.975,13.134,25.509,14.375z"/>
	<path fill="#0087CB" d="M19.59,23.11c2.981-3.314,3.859-7.051,3.936-7.465c0.098-0.531-0.745-0.293-1.094,0.259
		c-0.534,0.845-1.937,3.634-3.135,5.464C18.102,23.199,17.981,24.897,19.59,23.11z"/>
	<path fill="#0087CB" d="M26.769,16.099c-0.166-0.649-0.888-1-0.949-0.446c-0.047,0.435,0.004,3.701,0.967,6.296
		c0.851,2.284,1.566,0.327,0.981-1.829C27.182,17.967,27.023,17.086,26.769,16.099z"/>
	<path fill="#0087CB" d="M24.264,16.861c-0.24,0.776-0.388,1.466-0.941,3.156c-0.551,1.693-0.125,3.108,0.672,1.316
		c0.908-2.036,0.957-4.602,0.913-4.941C24.851,15.957,24.421,16.352,24.264,16.861z"/>
	<path fill="#0087CB" d="M27.992,15.723c0.08,0.425,0.136,3.807,3.194,7.204c1.649,1.833,2.165,0.137,0.938-1.739
		c-1.228-1.876-2.667-4.738-3.215-5.603C28.55,15.019,27.892,15.179,27.992,15.723z"/>
	<path fill="#0087CB" d="M48.088,42.594c-3.167-0.596-7.71-1.145-13.864-1.372c0.065-3.237,0.191-5.871,0.354-8.078
		c0.313-4.215,0.757-6.873,1.156-9.185c0.113-0.657-2.307-0.125-2.605,0.69c-0.092,0.251-0.182,0.542-0.27,0.862
		c-0.714-0.514-1.661-0.995-2.84-1.311c0.063-0.584,0.131-1.121,0.203-1.59c0.093-0.635-1.92-0.285-2.286,1.231
		c-1.674-0.169-3.187-0.092-4.533,0.145c-0.164-0.427-0.351-0.728-0.567-0.86c-0.631-0.389-1.897-1.262-1.821-0.138
		c0.022,0.326,0.098,0.885,0.197,1.565c-1.114,0.39-2.059,0.896-2.833,1.443c-0.151-0.338-0.311-0.648-0.48-0.917
		c-0.328-0.525-2.091-0.871-1.916-0.301c0.47,1.529,0.834,3.844,1.106,6.298c0.458,4.156,0.653,8.705,0.649,10.512
		c-4.896,0.44-9.216,1.124-12.369,1.785c-3.856,0.807-5.967,1.574-5.224,1.806c1.271,0.396,9.44-0.263,18.65-0.241
		c0.929,0.004,1.999,0.109,2.767,0.321c-0.489,0.09-1.569,0.273-4.029,0.652c-3.516,0.541-7.276,1.06-7.329,1.283
		c-0.503,2.086,9.431,2.286,16.271,2.286c10.858,0,15.358-0.433,14.709-2.163c-0.164-0.435-5.266-1.349-11.489-1.828
		c11.012-0.741,23.678,0.545,24.296-0.918C54.118,44.275,52.339,43.395,48.088,42.594z M31.473,27.658
		c0.297,0.127,0.58,0.222,0.851,0.302c-0.75,4.116-1.282,10.085-1.368,13.176c-0.714-0.012-1.446-0.019-2.195-0.022
		c0.029-0.115,0.053-0.231,0.064-0.344c0.165-1.615,0.479-8.419,0.919-13.683C30.395,27.257,30.988,27.453,31.473,27.658z
		 M27.488,26.638c-0.594,4.764-0.802,11.418-0.775,14.481c-0.639,0.007-1.273,0.021-1.905,0.041c0-1.535-0.135-3.54-0.199-5.094
		c-0.126-3.127-0.264-6.86-0.638-9.524C24.99,26.408,26.245,26.464,27.488,26.638z M21.593,27.049
		c0.121,0.809,0.239,1.62,0.328,2.32c0.625,5.021,0.768,8.536,0.896,11.868c-0.796,0.037-1.582,0.083-2.358,0.135
		c0.134-2.585-0.186-9.138-1.41-13.467C19.71,27.614,20.599,27.313,21.593,27.049z"/>
</g>
</svg>
