<?xml version="1.0" encoding="utf-8"?>
<!-- Generator: Adobe Illustrator 16.0.0, SVG Export Plug-In . SVG Version: 6.00 Build 0)  -->
<!DOCTYPE svg PUBLIC "-//W3C//DTD SVG 1.1//EN" "http://www.w3.org/Graphics/SVG/1.1/DTD/svg11.dtd">
<svg version="1.1" id="레이어_1" xmlns="http://www.w3.org/2000/svg" xmlns:xlink="http://www.w3.org/1999/xlink" x="0px"
	 y="0px" width="54px" height="54px" viewBox="0 0 54 54" enable-background="new 0 0 54 54" xml:space="preserve">
<g>
	<path fill="#FFFFFF" stroke="#0085CD" stroke-miterlimit="10" d="M33.076,22.375c0,3.238-2.625,5.864-5.863,5.864
		c-3.237,0-5.862-2.625-5.862-5.864s2.625-5.863,5.862-5.863C30.451,16.511,33.076,19.136,33.076,22.375"/>
	
		<circle fill="none" stroke="#0085CD" stroke-width="2" stroke-linejoin="round" stroke-miterlimit="10" cx="27.213" cy="22.375" r="5.863"/>
	<path fill="#FFFFFF" stroke="#0085CD" stroke-miterlimit="10" d="M38.194,41.4c0-4.971-1.787-9.371-4.531-12.086
		c-1.692,1.574-3.955,2.545-6.449,2.545c-2.495,0-4.758-0.971-6.451-2.545c-2.744,2.715-4.529,7.115-4.529,12.086
		c0,0.482,0.018,0.957,0.051,1.426h21.858C38.176,42.357,38.194,41.883,38.194,41.4"/>
	<path fill="none" stroke="#0085CD" stroke-width="2" stroke-linejoin="round" stroke-miterlimit="10" d="M38.194,41.4
		c0-4.971-1.787-9.371-4.531-12.086c-1.692,1.574-3.955,2.545-6.449,2.545c-2.495,0-4.758-0.971-6.451-2.545
		c-2.744,2.715-4.529,7.115-4.529,12.086c0,0.482,0.018,0.957,0.051,1.426h21.858C38.176,42.357,38.194,41.883,38.194,41.4z"/>
	<path fill="none" stroke="#0085CD" stroke-width="2" stroke-linejoin="round" stroke-miterlimit="10" d="M18.029,19.14
		L18.029,19.14c0-4.4,3.565-7.967,7.966-7.967h2.436c4.399,0,7.967,3.566,7.967,7.967"/>
	
		<rect x="15.329" y="19.14" fill="none" stroke="#0085CD" stroke-width="2" stroke-linejoin="round" stroke-miterlimit="10" width="4.549" height="6.801"/>
	
		<rect x="34.124" y="19.14" fill="none" stroke="#0085CD" stroke-width="2" stroke-linejoin="round" stroke-miterlimit="10" width="4.547" height="6.801"/>
</g>
</svg>
