<?xml version="1.0" encoding="utf-8"?>
<!-- Generator: Adobe Illustrator 16.0.0, SVG Export Plug-In . SVG Version: 6.00 Build 0)  -->
<!DOCTYPE svg PUBLIC "-//W3C//DTD SVG 1.1//EN" "http://www.w3.org/Graphics/SVG/1.1/DTD/svg11.dtd">
<svg version="1.1" id="레이어_1" xmlns="http://www.w3.org/2000/svg" xmlns:xlink="http://www.w3.org/1999/xlink" x="0px"
	 y="0px" width="54px" height="54px" viewBox="0 0 54 54" enable-background="new 0 0 54 54" xml:space="preserve">
<g>
	<path fill="#0085CD" d="M53.99,49.402l-2.498,0.018v-3.48l-9.666-4.197v-7.027L38.8,32.566v-7.369L35.188,23.5v-5.284l-1.648-3.18
		H22.62v5.717l-2.343,1.66v9.026v1.438v2.161v0.28v1.594v3.036H18.84v-2.346l-2.007,0.963v6.871h-1.437V37.66l3.444-1.653v-4.568
		h-3.333L8.055,44.162l-5.351,0.744v4.867L0,49.793l0.01,1.438L54,50.84L53.99,49.402z M27.246,34.354h1.437v1.912h-1.437V34.354z
		 M34.678,35.892v-7.322h1.438v7.322H34.678z M36.115,37.502v2.466h-1.438v-2.466H36.115z M43.882,44.201V47.9h-1.438v-4.323
		L43.882,44.201z M31.648,16.474v9.538l-2.966,2.965v3.973h-1.437v-4.568l2.965-2.965v-8.942H31.648z"/>
	<path fill="#0085CD" d="M42.983,14.618c2.173,0,3.94-1.768,3.94-3.94s-1.768-3.941-3.94-3.941s-3.94,1.768-3.94,3.941
		S40.811,14.618,42.983,14.618z"/>
	<rect x="42.265" y="2.77" fill="#0085CD" width="1.438" height="3.112"/>
	
		<rect x="46.755" y="4.63" transform="matrix(0.7073 0.7069 -0.7069 0.7073 18.2701 -31.7503)" fill="#0085CD" width="1.437" height="3.113"/>
	<rect x="47.778" y="9.958" fill="#0085CD" width="3.112" height="1.438"/>
	
		<rect x="45.918" y="14.449" transform="matrix(-0.7072 -0.707 0.707 -0.7072 70.3229 59.4601)" fill="#0085CD" width="3.113" height="1.437"/>
	<rect x="42.265" y="15.472" fill="#0085CD" width="1.438" height="3.112"/>
	
		<rect x="36.936" y="14.449" transform="matrix(-0.7072 0.707 -0.707 -0.7072 76.4383 -1.3209)" fill="#0085CD" width="3.113" height="1.437"/>
	<rect x="35.076" y="9.958" fill="#0085CD" width="3.113" height="1.438"/>
	
		<rect x="36.936" y="5.468" transform="matrix(0.7071 0.7071 -0.7071 0.7071 15.6486 -25.4065)" fill="#0085CD" width="3.113" height="1.437"/>
	<rect x="3.422" y="21.271" fill="#0085CD" width="8.396" height="1.438"/>
	<rect x="14.455" y="21.271" fill="#0085CD" width="3.71" height="1.438"/>
	<rect x="7.62" y="16.11" fill="#0085CD" width="12.302" height="1.437"/>
	<rect x="4.887" y="12.01" fill="#0085CD" width="12.594" height="1.438"/>
	<rect x="21.972" y="12.01" fill="#0085CD" width="6.542" height="1.438"/>
</g>
</svg>
