<?xml version="1.0" encoding="utf-8"?>
<!-- Generator: Adobe Illustrator 16.0.0, SVG Export Plug-In . SVG Version: 6.00 Build 0)  -->
<!DOCTYPE svg PUBLIC "-//W3C//DTD SVG 1.1//EN" "http://www.w3.org/Graphics/SVG/1.1/DTD/svg11.dtd">
<svg version="1.1" id="레이어_1" xmlns="http://www.w3.org/2000/svg" xmlns:xlink="http://www.w3.org/1999/xlink" x="0px"
	 y="0px" width="54px" height="54px" viewBox="0 0 54 54" enable-background="new 0 0 54 54" xml:space="preserve">
<g>
	<path fill="#0085CD" d="M5.838,21.003c-0.455,0.913,1.082,2.05,1.833,1.454c0.354-0.282,0.374-0.894,0.008-1.552
		C6.845,20.652,6.055,20.569,5.838,21.003z"/>
	<path fill="#0085CD" d="M45.8,25.598c0.765,0.079,1.091-1.046,0.889-1.295c-0.104-0.128-0.754-0.05-1.557,0.321
		C45.133,25.203,45.399,25.558,45.8,25.598z"/>
	<path fill="#0085CD" d="M26.668,17.548c0.178-0.101,0.935-4.2-0.379-8.4c-0.913-2.914-3.028-2.88-3.117-2.047
		c-0.012,0.11,1.525,2.346,2.275,5.026C26.197,14.806,26.267,17.777,26.668,17.548z"/>
	<path fill="#0085CD" d="M18.216,18.765c-0.091,0.21-0.501,0.778-0.501,0.778s-0.762-0.119-0.933-0.102
		c-0.188,0.017-0.494,0.48-0.494,0.48c0.726,1.407,0.745,1.769,1.298,2.206c0.55,0.436,1.707,0.687,2.247,0.574
		c0.92-0.195,2.709-2.078,1.486-4.003C20.163,16.878,18.309,18.559,18.216,18.765z"/>
	<path fill="#0085CD" d="M21.639,23.072c0,0-2.396,1.475-4.044,0.627c-1.645-0.848-3.014-4.232-3.014-4.232s-1.01,0.43-1.079,0.754
		c-0.126,0.588,0.441,1.876,0.743,3.064c0.204,0.81,3.215,4.902,3.215,4.902c0.901,3.851-0.275,5.395-0.275,5.395
		c0.221,0.167,0.723,0.172,1.346,0.086c0.011-0.631,0.008-1.062,0.008-1.062l2.236-0.115c0,0,0.017,0.23-0.012,0.674
		c1.271-0.358,2.381-0.755,2.381-0.755s1.904,4.114,2.727,4.687c0.821,0.572,1.374-0.372,1.374-0.372
		c-1.56-2.793-1.474-2.78-2.61-6.994c0,0,0.02-5.178-0.166-8.453c-0.188-3.276-0.653-5.406-1.266-6.24
		c-0.242-0.326-0.944-0.353-0.944-0.353s-0.169,0.925,0.059,3.45C22.544,20.657,21.639,23.072,21.639,23.072z"/>
	<path fill="#0085CD" d="M20.773,32.49l-2.236,0.115c0,0,0.003,0.431-0.008,1.062c-0.024,1.328-0.112,3.549-0.439,4.518
		c0,0,1.094,1.351,1.948-1.422c0.521-1.69,0.68-2.905,0.724-3.599C20.791,32.721,20.773,32.49,20.773,32.49z"/>
	<path fill="#0085CD" d="M30.984,15.148c-0.483,0.8-1.124,2.734-1.446,6.519c-0.847,9.978-0.219,15.815-0.219,15.815
		s0.512,0.055,0.755-0.146c0.272-0.228,0.501-0.79,0.708-1.808c0.546-2.695,1.284-5.369,1.284-5.369s1.199,1.013,1.236,1.602
		c0.185,3.006-0.054,6.46-0.018,6.466c0.369,0.27,1.115-0.017,1.25-0.385c0.311-0.839,0.993-3.853,0.993-3.853l2.284-8.283
		c0,0,2.822-4.775,5.166-7.297c0,0-0.134-0.542-0.543-0.765c0.365-0.654,0.685-1.418,0.787-1.606
		c0.176-0.325,1.554,0.412,2.003-0.086c0.45-0.493-1.325-2.411-1.478-2.688c-0.154-0.274,0.856-2.308,0.526-2.772
		c-0.109-0.156-0.676-0.285-0.78-0.225c-0.739,0.415-1.691,1.706-1.85,1.643c-0.237-0.091-2.281-1.539-2.281-1.539
		c-0.364,0.311,0.083,2.34,0.217,2.748c0.136,0.408-0.805,1.244-1.472,1.931c-0.098,0.1-0.198,1.184,0.209,1.167
		c0.407-0.018,2.101-0.187,2.413-0.104c0.192,0.051,0.257,1.084,0.422,1.815c-0.071,0.053-0.142,0.105-0.219,0.171
		c-1.071,0.918-2.43,2.84-4.25,4.395c-1.079,0.475-3.179,0.15-3.886-0.119c-0.729-0.885-0.794-1.849-0.841-3.938
		c-0.042-1.829,0.317-3.422,0.317-3.422S31.316,14.6,30.984,15.148z"/>
	<path fill="#0085CD" d="M35.183,21.987c1.015-0.038,2.15-0.657,2.229-2.703c0.078-2.047-3.093-2.336-3.093-2.336
		s-1.252,0.899-1.383,2.291C32.805,20.635,34.168,22.028,35.183,21.987z"/>
	<path fill="#0085CD" d="M15.171,13.579c0,0,1.256,1.706,1.975,2.155c0,0,0.469-0.443,0.497-0.557
		c0.026-0.111-0.226-2.293-0.086-2.433c0.139-0.14,1.894-0.578,1.998-0.719c0.102-0.139-0.006-0.81-0.141-0.885
		c-0.135-0.073-1.477-0.462-1.614-0.935c-0.138-0.474,0.202-2.271-0.08-2.406c-0.283-0.135-1.658,1.026-1.772,1.123
		c-0.115,0.096-1.954-0.408-2.312-0.474c-0.214-0.039-0.445,0.233-0.445,0.233s0.794,1.837,0.78,2.425
		c-0.014,0.588-1.258,2.75-1.258,2.75S12.311,14.509,15.171,13.579z"/>
	<path fill="#0085CD" d="M43.706,23.219c-0.119,0.318-0.158,0.613-0.146,0.886c-1.847,0.898-3.522,4.069-3.564,4.627
		c-0.041,0.561,0.339,3.018,0.339,3.018c0.622,0.358,1.308-3.585,2.381-5.114c0.393-0.56,0.853-1.003,1.318-1.352
		c0.496,0.609,1.274,0.994,1.823,1.15c1.021,0.293,2.196-1.263,2.272-2.035c0.058-0.585-1.039-1.198-2.745-0.901
		c0.124-0.301,0.296-0.628,0.523-0.976c1.161-1.776,3.081-2.224,3.944-2.166c1.201,0.081,2.435,0.866,2.558,0.711
		c0.122-0.154-0.207-1.082-2.542-1.404C46.621,19.213,44.394,21.367,43.706,23.219z M46.688,24.303
		c0.202,0.249-0.124,1.374-0.889,1.295c-0.4-0.041-0.667-0.395-0.668-0.974C45.935,24.253,46.585,24.175,46.688,24.303z"/>
	<path fill="#0085CD" d="M49.325,36.058c1.288-1.204-0.708-3.153-1.89-2.74c-1.183,0.414-2.801,3.226-2.306,4.396
		c0.493,1.174,2.503,2.067,5.274,1.163c1.354-0.44,2.747-4.149,1.744-5.684c-1.005-1.533-3.156-3.444-6.591-2.204
		c-2.683,0.971-6.222,7.031-6.222,7.031c0.779,0.148,1.302,1.352,1.888,1.123c1.431-0.562,2.526-3.341,3.558-4.859
		c1.451-2.134,4.687-2.166,5.537-1.729c0.852,0.434,0.892,2.627-0.355,3.892c-1.247,1.263-2.475,0.951-3.282,0.526
		c-0.809-0.424,1.237-2.178,1.888-2.095c0.646,0.086-0.142,1.498-0.142,1.498S48.525,36.803,49.325,36.058z"/>
	<path fill="#0085CD" d="M4.889,18.911c0.571,0.176,1.053,0.405,1.458,0.659c-0.995,0.422-2.217,1.36-1.796,2.678
		c0.567,1.773,3.571,1.869,4.231,0.986c0.259-0.346,0.41-1.01,0.358-1.754c0.337,0.162,0.613,0.314,0.758,0.417
		c1.523,1.079,1.436,5.826,1.995,4.902c0.56-0.925,0.532-3.387-0.553-5.307c-0.724-1.283-1.948-1.848-2.928-2.064
		c-0.519-0.722-1.342-1.319-2.589-1.55c-3.586-0.663-5.365,1.229-5.245,1.673C0.696,19.994,2.087,18.048,4.889,18.911z
		 M7.671,22.457c-0.751,0.596-2.288-0.541-1.833-1.454c0.217-0.434,1.007-0.351,1.841-0.099C8.045,21.563,8.025,22.175,7.671,22.457
		z"/>
	<path fill="#0085CD" d="M14.291,36.684c0.243-1.251-1.172-5.058-3.387-7.223c-2.214-2.164-5.54-2.397-7.215-1.586
		c-2.535,1.224-2.692,2.817-2.062,4.188c0.63,1.37,3.748,2.614,6.589,0.45c0.832-0.632,0.502-2.078-0.933-2.951
		c-1.435-0.871-2.237,0.282-2.237,0.282c2.206-0.228,1.723,1.519-0.4,1.539c-2.121,0.021-2.08-1.256-1.073-2.402
		c1.006-1.152,3.653-0.58,4.791,0.027s3.021,3.824,3.59,5.725c0.567,1.9-0.151,3.221-0.151,3.221S13.673,39.856,14.291,36.684z"/>
	<path fill="#0085CD" d="M53.769,44.466c-3.648-1.793-15.776-4.336-15.776-4.336s-10.884-0.748-20.618-0.022
		c-5.757,0.429-13.869,3.581-16.792,4.537C0.114,44.798,0,45.702,0,45.702c0.835,0.457,4.278,4.212,28.892-1.236
		C54.677,50.701,54.577,44.861,53.769,44.466z"/>
	<path fill="#0085CD" d="M32.111,9.177c0,0-0.06-0.815-0.836-0.834c-3.512-0.088-2.687,5.38-2.687,5.38
		C29.681,10.091,32.111,9.177,32.111,9.177z"/>
</g>
</svg>
