<?xml version="1.0" encoding="utf-8"?>
<!-- Generator: Adobe Illustrator 16.0.0, SVG Export Plug-In . SVG Version: 6.00 Build 0)  -->
<!DOCTYPE svg PUBLIC "-//W3C//DTD SVG 1.1//EN" "http://www.w3.org/Graphics/SVG/1.1/DTD/svg11.dtd">
<svg version="1.1" id="레이어_1" xmlns="http://www.w3.org/2000/svg" xmlns:xlink="http://www.w3.org/1999/xlink" x="0px"
	 y="0px" width="54px" height="54px" viewBox="0 0 54 54" enable-background="new 0 0 54 54" xml:space="preserve">
<g>
	<path fill="none" stroke="#3BAB9E" stroke-miterlimit="10" d="M40.543,25.074v-3.307c-3.418,0-6.188-2.77-6.188-6.188h-22
		c0,3.418-2.771,6.188-6.188,6.188v3.307c3.417,0,6.188,2.77,6.188,6.187h22C34.355,27.844,37.125,25.074,40.543,25.074"/>
	<path fill="none" stroke="#0085CD" stroke-width="2" stroke-linejoin="round" stroke-miterlimit="10" d="M40.543,25.074v-3.307
		c-3.418,0-6.188-2.77-6.188-6.188h-22c0,3.418-2.771,6.188-6.188,6.188v3.307c3.417,0,6.188,2.77,6.188,6.187h22
		C34.355,27.844,37.125,25.074,40.543,25.074z"/>
	<path fill="#FFFFFF" d="M12.355,15.58H6.167v6.188C9.584,21.768,12.355,18.998,12.355,15.58"/>
	<path fill="none" stroke="#0085CD" stroke-width="2" stroke-linejoin="round" stroke-miterlimit="10" d="M12.355,15.58H6.167v6.188
		C9.584,21.768,12.355,18.998,12.355,15.58z"/>
	<path fill="#FFFFFF" stroke="#3BAB9E" stroke-miterlimit="10" d="M40.543,21.768v-6.187h-6.188
		C34.355,18.998,37.125,21.768,40.543,21.768"/>
	<path fill="none" stroke="#0085CD" stroke-width="2" stroke-linejoin="round" stroke-miterlimit="10" d="M40.543,21.768v-6.187
		h-6.188C34.355,18.998,37.125,21.768,40.543,21.768z"/>
	<path fill="#FFFFFF" d="M6.167,25.074v6.187h6.188C12.355,27.844,9.584,25.074,6.167,25.074"/>
	<path fill="none" stroke="#0085CD" stroke-width="2" stroke-linejoin="round" stroke-miterlimit="10" d="M6.167,25.074v6.187h6.188
		C12.355,27.844,9.584,25.074,6.167,25.074z"/>
	<path fill="#FFFFFF" stroke="#3BAB9E" stroke-miterlimit="10" d="M40.543,25.074c-3.418,0-6.188,2.77-6.188,6.187h6.188V25.074z"/>
	<path fill="none" stroke="#0085CD" stroke-width="2" stroke-linejoin="round" stroke-miterlimit="10" d="M40.543,25.074
		c-3.418,0-6.188,2.77-6.188,6.187h6.188V25.074z"/>
	<g>
		<path fill="#0085CD" d="M30.281,23.681h-1.527l-0.847,4.17H25.34l-0.891-4.17h-1.104l-0.849,4.17h-2.46l-0.912-4.17h-1.654v-0.595
			l1.506-0.049l-0.891-4.047h2.227l0.595,4.034h1.293l0.764-3.478h2.016l0.784,3.478H27.1l0.595-4.034h2.036l-0.828,4.034h1.379
			V23.681z M22.052,23.681h-1.039l0.17,1.188l0.212,1.943h0.085l0.318-1.943L22.052,23.681z M24.3,23.024v-0.037l-0.36-2.4h-0.105
			L23.495,23v0.024H24.3z M26.995,23.681h-1.104l0.276,1.188l0.339,1.943h0.085l0.233-1.943L26.995,23.681z"/>
	</g>
	<polyline fill="none" stroke="#0085CD" stroke-width="2" stroke-linejoin="round" stroke-miterlimit="10" points="9.261,34.893 
		44.361,34.893 44.361,19.254 	"/>
	<polyline fill="none" stroke="#0085CD" stroke-width="2" stroke-linejoin="round" stroke-miterlimit="10" points="12.732,38.42 
		47.832,38.42 47.832,22.782 	"/>
</g>
</svg>
