<?xml version="1.0" encoding="utf-8"?>
<!-- Generator: Adobe Illustrator 16.0.0, SVG Export Plug-In . SVG Version: 6.00 Build 0)  -->
<!DOCTYPE svg PUBLIC "-//W3C//DTD SVG 1.1//EN" "http://www.w3.org/Graphics/SVG/1.1/DTD/svg11.dtd">
<svg version="1.1" id="레이어_1" xmlns="http://www.w3.org/2000/svg" xmlns:xlink="http://www.w3.org/1999/xlink" x="0px"
	 y="0px" width="54px" height="54px" viewBox="0 0 54 54" enable-background="new 0 0 54 54" xml:space="preserve">
<g>
	<path fill="#FFFFFF" stroke="#0085CD" stroke-width="2" stroke-linejoin="round" stroke-miterlimit="10" d="M14.406,24.114H9.145
		c-1.129,0-2.043-0.914-2.043-2.042c0-1.13,0.914-2.046,2.043-2.046h6.829L14.406,24.114z"/>
	<path fill="#FFFFFF" stroke="#0085CD" stroke-width="2" stroke-linejoin="round" stroke-miterlimit="10" d="M39.594,24.114h5.262
		c1.127,0,2.043-0.914,2.043-2.042c0-1.13-0.916-2.046-2.043-2.046h-6.83L39.594,24.114z"/>
	<rect x="13.683" y="35.082" fill="#FFFFFF" stroke="#0085CD" stroke-miterlimit="10" width="3.729" height="6.257"/>
	<rect x="13.683" y="35.082" fill="#FFFFFF" stroke="#0085CD" stroke-miterlimit="10" width="3.729" height="6.257"/>
	<rect x="36.465" y="35.082" fill="#FFFFFF" stroke="#0085CD" stroke-miterlimit="10" width="3.73" height="6.257"/>
	<rect x="36.465" y="35.082" fill="#FFFFFF" stroke="#0085CD" stroke-miterlimit="10" width="3.73" height="6.257"/>
	<polygon fill="#FFFFFF" stroke="#0085CD" stroke-miterlimit="10" points="39.594,24.114 14.406,24.114 16.964,12.661 
		37.037,12.661 	"/>
	<polygon fill="#FFFFFF" stroke="#0085CD" stroke-width="2" stroke-linejoin="round" stroke-miterlimit="10" points="39.594,24.114 
		14.406,24.114 16.964,12.661 37.037,12.661 	"/>
	<rect x="10.06" y="24.116" fill="#FFFFFF" stroke="#0085CD" stroke-miterlimit="10" width="33.881" height="10.966"/>
	
		<rect x="10.06" y="24.116" fill="#FFFFFF" stroke="#0085CD" stroke-width="2" stroke-linejoin="round" stroke-miterlimit="10" width="33.881" height="10.966"/>
	<line fill="#FFFFFF" stroke="#0085CD" stroke-miterlimit="10" x1="14.406" y1="29.598" x2="17.413" y2="29.598"/>
	<line fill="#FFFFFF" stroke="#0085CD" stroke-width="3" stroke-miterlimit="10" x1="14.406" y1="29.598" x2="17.413" y2="29.598"/>
	<line fill="#FFFFFF" stroke="#0085CD" stroke-miterlimit="10" x1="39.627" y1="29.598" x2="36.623" y2="29.598"/>
	<line fill="#FFFFFF" stroke="#0085CD" stroke-width="3" stroke-miterlimit="10" x1="39.627" y1="29.598" x2="36.623" y2="29.598"/>
</g>
</svg>
