<?xml version="1.0" encoding="utf-8"?>
<!-- Generator: Adobe Illustrator 16.0.0, SVG Export Plug-In . SVG Version: 6.00 Build 0)  -->
<!DOCTYPE svg PUBLIC "-//W3C//DTD SVG 1.1//EN" "http://www.w3.org/Graphics/SVG/1.1/DTD/svg11.dtd">
<svg version="1.1" id="레이어_1" xmlns="http://www.w3.org/2000/svg" xmlns:xlink="http://www.w3.org/1999/xlink" x="0px"
	 y="0px" width="54px" height="54px" viewBox="0 0 54 54" enable-background="new 0 0 54 54" xml:space="preserve">
<g>
	<g>
		<path fill="#0085CD" d="M30.386,33.595v-5.418h-1.395v-1.264c0.207,0,0.408-0.031,0.6-0.094c0.195-0.063,0.367-0.162,0.521-0.293
			c0.107-0.098,0.207-0.232,0.307-0.408c0.096-0.174,0.145-0.357,0.145-0.551h1.043v8.027H30.386z"/>
		<path fill="#0085CD" d="M37.503,26.589c0.422,0.76,0.631,1.74,0.631,2.945c0,1.217-0.209,2.211-0.631,2.98
			c-0.42,0.77-1.031,1.152-1.83,1.152c-0.789,0-1.389-0.383-1.807-1.152c-0.412-0.77-0.621-1.764-0.621-2.98
			c0-1.205,0.209-2.186,0.621-2.945c0.418-0.76,1.018-1.139,1.807-1.139C36.472,25.45,37.083,25.829,37.503,26.589z M36.556,31.532
			c0.199-0.533,0.299-1.197,0.299-1.998c0-0.787-0.1-1.439-0.299-1.957c-0.201-0.52-0.494-0.779-0.883-0.779
			c-0.393,0-0.688,0.26-0.881,0.779c-0.195,0.518-0.293,1.17-0.293,1.957c0,0.801,0.098,1.465,0.293,1.998
			c0.193,0.533,0.488,0.799,0.881,0.799C36.062,32.331,36.354,32.065,36.556,31.532z"/>
		<path fill="#0085CD" d="M42.464,26.589c0.418,0.76,0.629,1.74,0.629,2.945c0,1.217-0.211,2.211-0.629,2.98
			c-0.42,0.77-1.031,1.152-1.832,1.152c-0.789,0-1.389-0.383-1.803-1.152c-0.418-0.77-0.625-1.764-0.625-2.98
			c0-1.205,0.207-2.186,0.625-2.945c0.414-0.76,1.014-1.139,1.803-1.139C41.433,25.45,42.044,25.829,42.464,26.589z M41.515,31.532
			c0.199-0.533,0.299-1.197,0.299-1.998c0-0.787-0.1-1.439-0.299-1.957c-0.201-0.52-0.496-0.779-0.883-0.779
			c-0.395,0-0.689,0.26-0.883,0.779c-0.193,0.518-0.291,1.17-0.291,1.957c0,0.801,0.098,1.465,0.291,1.998s0.488,0.799,0.883,0.799
			C41.019,32.331,41.313,32.065,41.515,31.532z"/>
	</g>
	<path fill="#0085CD" d="M13.464,19.595c-4.51,0-9.305-1.584-9.305-4.52c0-2.934,4.795-4.518,9.305-4.518
		c4.514,0,9.311,1.584,9.311,4.518C22.774,18.011,17.978,19.595,13.464,19.595z M13.464,12.726c-4.463,0-6.977,1.461-7.131,2.278
		l-0.02,0.104l0.02,0.053c0.18,0.924,3.045,2.264,7.131,2.264c4.414,0,6.949-1.447,7.131-2.258l0.027-0.121l-0.027-0.061
		C20.413,14.175,17.88,12.726,13.464,12.726z"/>
	<path fill="#0085CD" d="M13.464,24.989c-4.51,0-9.305-1.583-9.305-4.518c0-0.598,0.486-1.084,1.084-1.084s1.084,0.486,1.084,1.084
		c0.162,0.893,2.674,2.35,7.137,2.35c4.467,0,6.98-1.461,7.135-2.278c0.008-0.675,0.492-1.159,1.092-1.159
		c0.596,0,1.084,0.488,1.084,1.088C22.774,23.406,17.978,24.989,13.464,24.989z"/>
	<path fill="#0085CD" d="M13.464,31.14c-4.51,0-9.305-1.582-9.305-4.518c0-0.598,0.486-1.084,1.084-1.084s1.084,0.486,1.084,1.084
		c0.162,0.893,2.674,2.35,7.137,2.35c4.467,0,6.98-1.461,7.135-2.275c0.008-0.676,0.492-1.162,1.092-1.162
		c0.596,0,1.084,0.488,1.084,1.088C22.774,29.558,17.978,31.14,13.464,31.14z"/>
	<path fill="#0085CD" d="M13.464,37.29c-4.51,0-9.305-1.582-9.305-4.516c0-0.6,0.486-1.086,1.084-1.086s1.084,0.486,1.084,1.086
		c0.162,0.893,2.674,2.35,7.137,2.35c4.467,0,6.98-1.461,7.135-2.279c0.008-0.674,0.492-1.158,1.092-1.158
		c0.596,0,1.084,0.488,1.084,1.088C22.774,35.708,17.978,37.29,13.464,37.29z"/>
	<path fill="#0085CD" d="M13.464,43.442c-4.51,0-9.305-1.582-9.305-4.518c0-0.598,0.486-1.084,1.084-1.084s1.084,0.486,1.084,1.084
		c0.162,0.893,2.674,2.35,7.137,2.35c4.467,0,6.98-1.461,7.135-2.277c0.008-0.674,0.492-1.158,1.092-1.158
		c0.596,0,1.084,0.486,1.084,1.086C22.774,41.86,17.978,43.442,13.464,43.442z"/>
	<path fill="#0085CD" d="M36.774,42.208c-7.205,0-13.068-5.863-13.068-13.068c0-7.204,5.863-13.066,13.068-13.066
		s13.066,5.862,13.066,13.066c0,3.867-1.697,7.516-4.66,10.006c-0.199,0.166-0.438,0.254-0.697,0.254
		c-0.32,0-0.623-0.141-0.83-0.387c-0.188-0.223-0.275-0.502-0.252-0.791c0.025-0.289,0.162-0.551,0.383-0.736
		c2.473-2.08,3.889-5.121,3.889-8.346c0-6.009-4.891-10.898-10.898-10.898c-6.012,0-10.9,4.89-10.9,10.898
		c0,6.01,4.889,10.898,10.9,10.898c0.598,0,1.084,0.486,1.084,1.084C37.858,41.722,37.372,42.208,36.774,42.208z"/>
</g>
</svg>
