<?xml version="1.0" encoding="utf-8"?>
<!-- Generator: Adobe Illustrator 16.0.0, SVG Export Plug-In . SVG Version: 6.00 Build 0)  -->
<!DOCTYPE svg PUBLIC "-//W3C//DTD SVG 1.1//EN" "http://www.w3.org/Graphics/SVG/1.1/DTD/svg11.dtd">
<svg version="1.1" id="레이어_1" xmlns="http://www.w3.org/2000/svg" xmlns:xlink="http://www.w3.org/1999/xlink" x="0px"
	 y="0px" width="54px" height="54px" viewBox="0 0 54 54" enable-background="new 0 0 54 54" xml:space="preserve">
<g>
	
		<polyline fill="none" stroke="#0085CD" stroke-width="1.8" stroke-linecap="round" stroke-linejoin="round" stroke-miterlimit="10" points="
		36.357,30.627 36.357,43.932 17.642,43.932 17.642,30.627 	"/>
	
		<polyline fill="none" stroke="#0085CD" stroke-width="1.8" stroke-linecap="round" stroke-linejoin="round" stroke-miterlimit="10" points="
		14.25,31.172 27,18.421 39.75,31.172 	"/>
	
		<polyline fill="none" stroke="#0085CD" stroke-width="1.8" stroke-linecap="round" stroke-linejoin="round" stroke-miterlimit="10" points="
		36.357,24.655 36.357,18.421 32.865,18.421 32.865,21.162 	"/>
	
		<polyline fill="none" stroke="#0085CD" stroke-width="1.8" stroke-linecap="round" stroke-linejoin="round" stroke-miterlimit="10" points="
		24.153,41.988 24.153,34.523 29.848,34.523 29.848,41.988 	"/>
	<path fill="none" stroke="#0085CD" stroke-width="1.7" stroke-linecap="round" stroke-linejoin="round" stroke-miterlimit="10" d="
		M21.692,11.998c1.438-1.203,3.291-1.929,5.308-1.929c2.02,0,3.87,0.726,5.309,1.929"/>
	<path fill="none" stroke="#0085CD" stroke-width="1.7" stroke-linecap="round" stroke-linejoin="round" stroke-miterlimit="10" d="
		M23.215,13.822c1.025-0.856,2.346-1.377,3.784-1.377c1.44,0,2.76,0.521,3.786,1.377"/>
	<path fill="none" stroke="#0085CD" stroke-width="1.7" stroke-linecap="round" stroke-linejoin="round" stroke-miterlimit="10" d="
		M24.738,15.647c0.614-0.513,1.403-0.824,2.262-0.824c0.861,0,1.649,0.312,2.262,0.824"/>
</g>
</svg>
