<?xml version="1.0" encoding="utf-8"?>
<!-- Generator: Adobe Illustrator 16.0.0, SVG Export Plug-In . SVG Version: 6.00 Build 0)  -->
<!DOCTYPE svg PUBLIC "-//W3C//DTD SVG 1.1//EN" "http://www.w3.org/Graphics/SVG/1.1/DTD/svg11.dtd">
<svg version="1.1" id="레이어_1" xmlns="http://www.w3.org/2000/svg" xmlns:xlink="http://www.w3.org/1999/xlink" x="0px"
	 y="0px" width="54px" height="54px" viewBox="0 0 54 54" enable-background="new 0 0 54 54" xml:space="preserve">
<g>
	<path fill="none" stroke="#0085CD" stroke-width="1.8" stroke-linecap="round" stroke-linejoin="round" stroke-miterlimit="10" d="
		M7.393,22.536c-0.059-0.473-0.089-0.953-0.089-1.439c0-6.344,5.143-11.486,11.484-11.486c0.689,0,1.366,0.063,2.023,0.178
		l2.275,12.658"/>
	
		<line fill="none" stroke="#0085CD" stroke-width="1.8" stroke-linecap="round" stroke-linejoin="round" stroke-miterlimit="10" x1="19.519" y1="37.114" x2="27.525" y2="37.114"/>
	<path fill="none" stroke="#0085CD" stroke-width="1.8" stroke-linecap="round" stroke-linejoin="round" stroke-miterlimit="10" d="
		M36.045,34.001l3.617-8.461c0,0,2.645,0.129,2.645-1.404V23.63c0-0.561-0.455-1.014-1.016-1.014H5.994
		c-0.559,0-1.013,0.453-1.013,1.014v0.506c0,1.189,2.609,1.361,2.609,1.361l3.034,9.467"/>
	<path fill="none" stroke="#0085CD" stroke-width="1.8" stroke-linecap="round" stroke-linejoin="round" stroke-miterlimit="10" d="
		M39.561,22.011v-2.773c0,0-0.676-2.533,3.885-2.533s5.574,0,5.574,0"/>
	<path fill="none" stroke="#0085CD" stroke-width="1.8" stroke-linecap="round" stroke-linejoin="round" stroke-miterlimit="10" d="
		M37.873,39.153c0,2.891-2.344,5.236-5.236,5.236s-5.235-2.346-5.235-5.236c0-2.889,2.342-5.234,5.235-5.234
		S37.873,36.265,37.873,39.153z"/>
	<circle fill="#58585B" stroke="#0085CD" stroke-miterlimit="10" cx="32.637" cy="39.153" r="1.275"/>
	<path fill="none" stroke="#0085CD" stroke-width="1.8" stroke-linecap="round" stroke-linejoin="round" stroke-miterlimit="10" d="
		M19.245,39.153c0,2.891-2.345,5.236-5.235,5.236c-2.893,0-5.235-2.346-5.235-5.236c0-2.889,2.343-5.234,5.235-5.234
		C16.9,33.919,19.245,36.265,19.245,39.153z"/>
	<circle fill="#58585B" stroke="#0085CD" stroke-miterlimit="10" cx="14.008" cy="39.153" r="1.275"/>
	
		<line fill="none" stroke="#0085CD" stroke-width="1.8" stroke-linecap="round" stroke-linejoin="round" stroke-miterlimit="10" x1="22.502" y1="22.354" x2="13.149" y2="11.337"/>
	
		<line fill="none" stroke="#0085CD" stroke-width="1.8" stroke-linecap="round" stroke-linejoin="round" stroke-miterlimit="10" x1="21.468" y1="22.069" x2="9.188" y2="16.675"/>
	
		<line fill="none" stroke="#0085CD" stroke-width="1.8" stroke-linecap="round" stroke-linejoin="round" stroke-miterlimit="10" x1="7.59" y1="25.151" x2="40.008" y2="25.151"/>
</g>
</svg>
