<?xml version="1.0" encoding="utf-8"?>
<!-- Generator: Adobe Illustrator 16.0.0, SVG Export Plug-In . SVG Version: 6.00 Build 0)  -->
<!DOCTYPE svg PUBLIC "-//W3C//DTD SVG 1.1//EN" "http://www.w3.org/Graphics/SVG/1.1/DTD/svg11.dtd">
<svg version="1.1" id="레이어_1" xmlns="http://www.w3.org/2000/svg" xmlns:xlink="http://www.w3.org/1999/xlink" x="0px"
	 y="0px" width="54px" height="54px" viewBox="0 0 54 54" enable-background="new 0 0 54 54" xml:space="preserve">
<path fill="#0085CD" d="M39.558,41.615c0.208,0.322,0.1,0.738-0.242,0.934l-0.146,0.085c-0.786,0.45-1.69,0.676-2.591,0.676
	c-0.902,0-1.802-0.226-2.591-0.676l-0.361-0.208c-1.118-0.638-2.56-0.638-3.674,0l-0.363,0.208c-1.573,0.901-3.607,0.901-5.183,0
	l-0.36-0.208c-1.116-0.638-2.559-0.638-3.674,0l-0.361,0.208c-1.574,0.901-3.608,0.901-5.183,0l-0.146-0.085
	c-0.342-0.195-0.448-0.611-0.24-0.934c0.205-0.321,0.652-0.424,0.994-0.226l0.145,0.081c1.119,0.643,2.563,0.643,3.677,0.005
	l0.361-0.21c1.573-0.901,3.607-0.901,5.182,0l0.36,0.21c1.116,0.638,2.56,0.638,3.675,0l0.363-0.21c1.573-0.901,3.606-0.901,5.181,0
	l0.361,0.21c1.117,0.638,2.559,0.638,3.674,0l0.148-0.086C38.903,41.191,39.352,41.294,39.558,41.615z M35.771,39.851
	c0.036,0.005,0.08,0.005,0.115,0.005c0.355,0,0.661-0.242,0.718-0.571c0.028-0.176-0.015-0.356-0.13-0.501
	c-0.116-0.148-0.283-0.244-0.472-0.271c-0.39-0.063-0.766,0.188-0.831,0.555c-0.028,0.185,0.015,0.36,0.129,0.51
	C35.417,39.728,35.584,39.821,35.771,39.851z M14.829,39.236c1.537,0.879,3.628,0.885,5.179,0l0.368-0.21
	c1.084-0.623,2.577-0.623,3.671,0l0.36,0.21c0.769,0.443,1.666,0.676,2.592,0.676c0.92,0,1.818-0.232,2.591-0.676l0.363-0.21
	c0.891-0.509,2.062-0.608,3.047-0.278c0.369,0.121,0.796-0.065,0.926-0.408c0.064-0.17,0.06-0.358-0.02-0.523
	c-0.087-0.161-0.234-0.285-0.414-0.345c-1.418-0.476-3.039-0.326-4.291,0.393l-0.362,0.21c-1.086,0.626-2.592,0.626-3.678,0
	l-0.363-0.21c-1.541-0.881-3.633-0.881-5.181,0l-0.363,0.21c-1.085,0.626-2.592,0.62-3.67,0l-0.152-0.08
	c-0.833-0.481-1.837-0.714-2.795-0.673c-0.397,0.014-0.708,0.334-0.684,0.708c0.013,0.366,0.329,0.653,0.715,0.653
	c0.015,0,0.037,0,0.044-0.008h0.013c0.708-0.016,1.384,0.149,1.956,0.476L14.829,39.236z M41.361,37.321
	c-0.075-0.007-0.14-0.007-0.212-0.007c-0.918,0-1.815,0.231-2.584,0.675l-0.152,0.085c-0.027,0.016-0.055,0.036-0.086,0.048
	c-0.347,0.186-0.469,0.601-0.274,0.926c0.13,0.218,0.377,0.346,0.639,0.346c0.119,0,0.245-0.033,0.352-0.087
	c0.037-0.022,0.073-0.041,0.101-0.061l0.176-0.096c0.578-0.334,1.288-0.498,1.953-0.476h0.022c0.405,0.025,0.739-0.271,0.755-0.646
	c0.014-0.179-0.059-0.354-0.19-0.49C41.73,37.404,41.554,37.328,41.361,37.321z M44.23,35.752c-0.235,0.302-0.686,0.366-1.01,0.146
	c-1.129-0.777-2.698-0.834-3.903-0.144L39.17,35.84c-0.786,0.447-1.69,0.673-2.591,0.673c-0.817,0-1.637-0.186-2.366-0.558
	c-0.07-0.034-0.137-0.068-0.204-0.105c-0.008-0.006-0.016-0.008-0.021-0.01l-0.138-0.08l-0.224-0.128
	c-0.337-0.193-0.702-0.326-1.081-0.403c-0.014-0.003-0.028-0.008-0.041-0.009c-0.005-0.002-0.012-0.002-0.019-0.002
	c-0.854-0.161-1.772-0.022-2.533,0.414L29.59,35.84c-1.573,0.899-3.607,0.899-5.183,0l-0.136-0.08l-0.225-0.128
	c-1.116-0.64-2.559-0.64-3.674,0l-0.361,0.208c-0.073,0.039-0.152,0.079-0.227,0.119c-1.54,0.776-3.456,0.738-4.956-0.119
	l-0.146-0.086c-1.207-0.69-2.775-0.632-3.903,0.144c-0.324,0.221-0.774,0.156-1.01-0.146c-0.237-0.305-0.168-0.73,0.154-0.951
	c1.598-1.096,3.813-1.18,5.513-0.206l0.145,0.081c0.559,0.321,1.202,0.48,1.84,0.48c-2.055-2.183-3.211-5.005-3.211-7.93
	c0-0.325,0.245-0.603,0.583-0.666l2.073-0.389v-2.568v-4.077c0-0.377,0.323-0.681,0.725-0.681h0.723v-2.039
	c0-0.373,0.324-0.68,0.722-0.68h2.173V13.41c0-0.376,0.327-0.681,0.725-0.681c0.399,0,0.724,0.305,0.724,0.681v2.717h2.173v-4.756
	c0-0.377,0.322-0.681,0.722-0.681h2.897c0.401,0,0.724,0.304,0.724,0.681v4.756h2.173V13.41c0-0.376,0.323-0.681,0.722-0.681
	c0.401,0,0.727,0.305,0.727,0.681v2.717h2.169c0.401,0,0.726,0.307,0.726,0.68v2.039h0.723c0.399,0,0.722,0.304,0.722,0.681v4.077
	v2.568l2.072,0.389c0.342,0.063,0.584,0.341,0.584,0.666c0,2.925-1.156,5.747-3.208,7.93c0.64,0,1.279-0.159,1.836-0.478
	l0.148-0.084c1.7-0.976,3.914-0.89,5.513,0.206C44.398,35.021,44.47,35.447,44.23,35.752z M19.619,34.47
	c1.573-0.9,3.607-0.9,5.182,0l0.36,0.206c0.933,0.534,2.092,0.621,3.102,0.264c0.197-0.069,0.39-0.157,0.573-0.261l0.363-0.209
	c0.786-0.448,1.688-0.675,2.589-0.675c0.902,0,1.805,0.227,2.592,0.675l0.361,0.206c0.067,0.04,0.143,0.078,0.218,0.113
	c2.016-1.864,3.218-4.373,3.366-7.008l-1.194-0.224l-0.722-0.135l-2.242-0.422l-6.445-1.212v1.212v0.678v0.68v4.532
	c0,0.373-0.324,0.679-0.724,0.679c-0.397,0-0.722-0.306-0.722-0.679v-4.532v-0.68v-0.678v-1.212l-6.446,1.212l-2.24,0.422
	l-0.725,0.135l-1.192,0.224c0.151,2.635,1.354,5.144,3.367,7.008c0.077-0.035,0.147-0.073,0.217-0.113L19.619,34.47z M18.313,25.898
	l8.536-1.603h0.006h0.002c0.095-0.019,0.189-0.019,0.285,0l0,0h0.004l8.541,1.603v-1.615h-0.726c-0.399,0-0.724-0.306-0.724-0.68
	c0-0.378,0.324-0.682,0.724-0.682h0.726v-2.719h-0.726h-1.447v2.039c0,0.376-0.325,0.68-0.722,0.68h-2.897h-2.896h-2.894h-2.897
	c-0.399,0-0.724-0.304-0.724-0.68v-2.039h-1.449h-0.722v2.719h0.722c0.403,0,0.728,0.304,0.728,0.682c0,0.374-0.324,0.68-0.728,0.68
	h-0.722V25.898z M19.762,18.846h1.445h2.897h2.894h2.896h2.897h1.445v-1.358h-5.79H25.55h-5.788V18.846z M26.277,16.127h1.445
	v-4.076h-1.445V16.127z M21.932,21.563h1.447v-1.36h-1.447V21.563z M24.829,21.563h1.448v-1.36h-1.448V21.563z M27.722,21.563h1.449
	v-1.36h-1.449V21.563z M30.617,21.563h1.448v-1.36h-1.448V21.563z M22.979,29.646l1.448-0.679c0.254-0.12,0.396-0.358,0.396-0.608
	c0-0.102-0.021-0.207-0.074-0.305c-0.177-0.336-0.61-0.471-0.969-0.304l-1.296,0.608l-0.153,0.072
	c-0.358,0.169-0.501,0.577-0.323,0.912c0.128,0.238,0.382,0.374,0.65,0.374C22.765,29.717,22.875,29.693,22.979,29.646z
	 M29.57,28.967l1.45,0.679c0.102,0.048,0.212,0.071,0.323,0.071c0.264,0,0.518-0.136,0.647-0.374
	c0.178-0.335,0.032-0.743-0.324-0.912l-0.152-0.072l-1.296-0.608c-0.358-0.167-0.792-0.032-0.971,0.304
	c-0.051,0.098-0.075,0.203-0.075,0.305C29.173,28.608,29.316,28.847,29.57,28.967z"/>
</svg>
