<?xml version="1.0" encoding="utf-8"?>
<!-- Generator: Adobe Illustrator 16.0.0, SVG Export Plug-In . SVG Version: 6.00 Build 0)  -->
<!DOCTYPE svg PUBLIC "-//W3C//DTD SVG 1.1//EN" "http://www.w3.org/Graphics/SVG/1.1/DTD/svg11.dtd">
<svg version="1.1" id="레이어_1" xmlns="http://www.w3.org/2000/svg" xmlns:xlink="http://www.w3.org/1999/xlink" x="0px"
	 y="0px" width="54px" height="54px" viewBox="0 0 54 54" enable-background="new 0 0 54 54" xml:space="preserve">
<g>
	
		<line fill="none" stroke="#0085CD" stroke-width="1.8" stroke-linecap="round" stroke-linejoin="round" stroke-miterlimit="10" x1="21.519" y1="43.988" x2="32.438" y2="43.988"/>
	
		<line fill="none" stroke="#0085CD" stroke-width="1.8" stroke-linecap="round" stroke-linejoin="round" stroke-miterlimit="10" x1="26.979" y1="43.756" x2="26.979" y2="39.574"/>
	<g>
		<g>
			
				<circle fill="none" stroke="#0085CD" stroke-width="1.8" stroke-linecap="round" stroke-linejoin="round" stroke-miterlimit="10" cx="25.099" cy="24.421" r="10.698"/>
			<g>
				<line fill="none" stroke="#0085CD" stroke-miterlimit="10" x1="34.578" y1="29.381" x2="15.62" y2="19.461"/>
				<line fill="none" stroke="#0085CD" stroke-miterlimit="10" x1="35.669" y1="23.914" x2="19.486" y2="15.447"/>
				<line fill="none" stroke="#0085CD" stroke-miterlimit="10" x1="30.71" y1="33.393" x2="14.526" y2="24.926"/>
			</g>
			<g>
				<line fill="none" stroke="#0085CD" stroke-miterlimit="10" x1="20.139" y1="33.898" x2="30.059" y2="14.941"/>
				<path fill="none" stroke="#0085CD" stroke-miterlimit="10" d="M24.553,35.031c0,0,3.11-2.57,5.894-7.886
					c2.781-5.317,3.057-9.223,3.057-9.223"/>
				<path fill="none" stroke="#0085CD" stroke-miterlimit="10" d="M16.692,30.918c0,0,0.337-4.02,3.119-9.337
					s5.831-7.771,5.831-7.771"/>
			</g>
		</g>
		<line fill="none" stroke="#0085CD" stroke-width="2.2" stroke-miterlimit="10" x1="29.664" y1="14.602" x2="31.772" y2="11.333"/>
		<line fill="none" stroke="#0085CD" stroke-width="2.2" stroke-miterlimit="10" x1="18.439" y1="37.039" x2="19.8" y2="34.436"/>
		
			<path fill="none" stroke="#0085CD" stroke-width="1.8" stroke-linecap="round" stroke-linejoin="round" stroke-miterlimit="10" d="
			M26.758,10.011c1.722,0.198,3.436,0.71,5.063,1.561c7.094,3.712,9.839,12.475,6.126,19.571
			c-3.712,7.098-12.475,9.838-19.571,6.127c-1.524-0.799-2.849-1.828-3.95-3.025"/>
	</g>
</g>
</svg>
