<?xml version="1.0" encoding="utf-8"?>
<!-- Generator: Adobe Illustrator 16.0.0, SVG Export Plug-In . SVG Version: 6.00 Build 0)  -->
<!DOCTYPE svg PUBLIC "-//W3C//DTD SVG 1.1//EN" "http://www.w3.org/Graphics/SVG/1.1/DTD/svg11.dtd">
<svg version="1.1" id="레이어_1" xmlns="http://www.w3.org/2000/svg" xmlns:xlink="http://www.w3.org/1999/xlink" x="0px"
	 y="0px" width="54px" height="54px" viewBox="0 0 54 54" enable-background="new 0 0 54 54" xml:space="preserve">
<g>
	<g>
		
			<rect x="5.895" y="15.637" fill="none" stroke="#0085CD" stroke-width="1.8" stroke-linecap="round" stroke-linejoin="round" stroke-miterlimit="10" width="42.211" height="24.241"/>
	</g>
	
		<polyline fill="#FFFFFF" stroke="#0085CD" stroke-width="1.8" stroke-linecap="round" stroke-linejoin="round" stroke-miterlimit="10" points="
		35.818,35.628 35.818,41.718 35.818,41.718 33.214,40.416 30.284,41.718 30.284,41.718 30.284,35.97 	"/>
	
		<path fill="#FFFFFF" stroke="#0085CD" stroke-width="1.8" stroke-linecap="round" stroke-linejoin="round" stroke-miterlimit="10" d="
		M18.806,35.19c4.104-0.469,7.904-0.008,8.426,3.395c0.001,0.136,0.004,0.024,0,0.002c0.001-6.771,0.011-13.54-0.001-20.311
		c-0.004-3.444-0.63-5.689-4.556-5.937c-4.616-0.292-9.324,1.311-13.795,2.217c0.002,6.641,0,13.282,0,19.925c0,0.94,0,1.88,0,2.82
		C10.806,36.893,14.94,35.632,18.806,35.19z"/>
	
		<path fill="#FFFFFF" stroke="#0085CD" stroke-width="1.8" stroke-linecap="round" stroke-linejoin="round" stroke-miterlimit="10" d="
		M35.818,35.428c-2.766-0.329-8.63-1.242-8.63,3.202V26.284c0,0,0-10.351,0-10.383c0-4.213,5.914-3.818,8.667-3.321
		c0.869,0.156,9.01,1.688,9.01,1.977c0,0.01,0,22.745,0,22.745C41.699,36.604,38.926,35.799,35.818,35.428z"/>
</g>
</svg>
