<?xml version="1.0" encoding="utf-8"?>
<!-- Generator: Adobe Illustrator 16.0.0, SVG Export Plug-In . SVG Version: 6.00 Build 0)  -->
<!DOCTYPE svg PUBLIC "-//W3C//DTD SVG 1.1//EN" "http://www.w3.org/Graphics/SVG/1.1/DTD/svg11.dtd">
<svg version="1.1" id="레이어_1" xmlns="http://www.w3.org/2000/svg" xmlns:xlink="http://www.w3.org/1999/xlink" x="0px"
	 y="0px" width="54px" height="54px" viewBox="0 0 54 54" enable-background="new 0 0 54 54" xml:space="preserve">
<g>
	<path fill="#FFFFFF" stroke="#0085CD" stroke-miterlimit="10" d="M37.164,24.247c0-7.604-6.166-13.77-13.771-13.77
		s-13.77,6.165-13.77,13.77c0,7.605,6.165,13.771,13.77,13.771S37.164,31.853,37.164,24.247"/>
	
		<circle fill="#FFFFFF" stroke="#0085CD" stroke-width="2" stroke-linejoin="round" stroke-miterlimit="10" cx="23.394" cy="24.247" r="13.77"/>
	<path fill="#FFFFFF" stroke="#0085CD" stroke-miterlimit="10" d="M31.858,41.267l11.326-14.768
		c1.938-2.525,1.461-6.145-1.064-8.081l-2.914-2.235l-4.094,5.337l2.914,2.235L27.87,36.995l-2.913-2.234l-4.093,5.338l2.913,2.232
		C26.303,44.27,29.92,43.792,31.858,41.267"/>
	<path fill="#FFFFFF" stroke="#0085CD" stroke-width="2" stroke-linejoin="round" stroke-miterlimit="10" d="M31.858,41.267
		l11.326-14.768c1.938-2.525,1.461-6.145-1.064-8.081l-2.914-2.235l-4.094,5.337l2.914,2.235L27.87,36.995l-2.913-2.234
		l-4.093,5.338l2.913,2.232C26.303,44.27,29.92,43.792,31.858,41.267z"/>
	<g>
		<circle fill="#0085CD" stroke="#0085CD" stroke-miterlimit="10" cx="16.697" cy="24.247" r="1.75"/>
		<circle fill="#0085CD" stroke="#0085CD" stroke-miterlimit="10" cx="23.395" cy="24.247" r="1.75"/>
		<circle fill="#0085CD" stroke="#0085CD" stroke-miterlimit="10" cx="30.091" cy="24.247" r="1.75"/>
	</g>
</g>
</svg>
