<?xml version="1.0" encoding="utf-8"?>
<!-- Generator: Adobe Illustrator 16.0.0, SVG Export Plug-In . SVG Version: 6.00 Build 0)  -->
<!DOCTYPE svg PUBLIC "-//W3C//DTD SVG 1.1//EN" "http://www.w3.org/Graphics/SVG/1.1/DTD/svg11.dtd">
<svg version="1.1" id="레이어_1" xmlns="http://www.w3.org/2000/svg" xmlns:xlink="http://www.w3.org/1999/xlink" x="0px"
	 y="0px" width="54px" height="54px" viewBox="0 0 54 54" enable-background="new 0 0 54 54" xml:space="preserve">
<g>
	<path fill="#00A8E7" d="M0.247,45.898c0.133-0.366,2.789-1.003,6.183-1.606c1.156-3.254,1.49-4.31,2.246-6.303
		c0.445-1.176,0.889-1.904,1.784-2.342c0.724-0.354,2.673-0.566,3.522-0.407c0.126,0.575,0.334,1.743,0.512,2.691
		c0.278-2.12,1.371-6.857,2.079-6.987c0.912-0.168,4.139,1.125,4.449,2.203c0.146,0.502,0.282,1.29,0.396,2.07
		c-1.796,7.748-4.549,9.049-4.213,9.238c0.505,0.287,1.253-0.286,1.965-1.047c0.126-0.136,0.318-0.354,0.553-0.651
		c3.026-0.099,7.218-0.209,11.523-0.221c0.17,0.473,0.347,0.947,0.54,1.422c0.469,1.161,4.726,0.864,4.492,0.383
		c-0.233-0.479-2.389-2.937-4.012-8.395c-0.229-0.768-0.421-1.49-0.593-2.188c0.188-1.243,0.405-2.398,0.61-2.86
		c0.733-1.655,4.27-2.525,4.637-2.123c1.01,1.102,1.547,5.124,1.831,8.768c0.682-2.768,4.532-4.276,5.182-3.62
		c1.515,1.535,2.924,6.683,3.591,9.426c4.11,0.59,5.646,1.371,6.103,2.15c0,0,1.405,2.155-1.234,1.956
		c-2.639-0.202-14.425,0.082-20.783-0.352c-7.901-0.542-23.415,0.348-25.808,0.6C-1.164,48.438-0.048,46.7,0.247,45.898z"/>
	<path fill="#0087CB" d="M33.955,16.683c-0.515,0.104-0.794-1.131-0.493-2.183c0.211-0.739,0.735-1.362,1.026-1.665
		c-0.642,0.312-2.598,0.156-3.556-1.243c-0.923,0.963-1.337,2.018-1.625,3.324c-0.213,0.971-0.54,0.664-0.531-0.049
		c-0.132-1.613,0.173-2.799,0.505-3.555c-0.997,0.257-2.45,0.417-3.929-0.152c0.307,0.762,0.585,2.045,0.302,3.795
		c-0.049,0.71-0.398,0.99-0.534,0.007c-0.182-1.309-0.504-2.382-1.325-3.405c-0.715,0.584-1.947,1.273-3.753,1.194
		c0,0,1.256,2.816-0.077,3.295c-0.564,0.203,0.204-0.55-0.166-1.499c-0.369-0.947-0.886-1.493-0.483-2.143
		c0.407-0.652,1.942-0.155,2.911-1.058c0.969-0.905,0.893-1.735,1.714-1.94c0.53-0.129,1.151,0.267,1.916,0.568
		c0.365,0.323,0.477-1.588,0.814-3.558c0.003-0.022,1.084-0.75,1.162,0.154c0.065,0.746,0.393,3.364,0.394,3.386
		C29.039,9.588,30,9.069,30.81,9.406c1.187,0.495,0.734,1.944,1.716,2.291c0.98,0.345,2.16-0.012,2.473,0.636
		c0.316,0.649-0.811,1.453-0.904,2.503C34,15.883,34.469,16.583,33.955,16.683z"/>
	<path fill="#0087CB" d="M31.475,17.135c-0.307-0.032-0.638-1.02,0.281-2.438c0.677-1.039,1.417-1.366,1.689-1.251
		c0.208,0.088-0.826,0.596-1.229,1.73C31.817,16.312,31.783,17.168,31.475,17.135z"/>
	<path fill="#0087CB" d="M21.108,13.159c0.202-0.022,1.963,1.262,1.903,3.476c-0.017,0.619-0.551,0.931-0.797-0.03
		c-0.251-0.956-0.546-1.919-0.898-2.579C21.065,13.565,20.672,13.21,21.108,13.159z"/>
	<path fill="#1FA489" d="M21.233,18.18c-0.265-0.53-0.561-1.06-0.865-1.404c-0.216-0.241-0.519-0.404-0.227-0.483
		c0.135-0.036,1.46,0.521,1.637,1.816C21.83,18.472,21.497,18.71,21.233,18.18z"/>
	<path fill="#0087CB" d="M33.481,17.082c0.298,0.072-0.005,0.241-0.214,0.49c-0.297,0.348-0.578,0.88-0.83,1.415
		c-0.251,0.536-0.587,0.304-0.547-0.06C32.034,17.628,33.347,17.048,33.481,17.082z"/>
	<path fill="#0087CB" d="M17.204,44.456c-0.336-0.189,2.417-1.49,4.213-9.238c0.068-0.291,0.133-0.587,0.199-0.894
		c1.541-7.381,1.102-11.116,1.076-11.588c-0.015-0.283,1.066-0.523,1.462,0.471c0.398,1,0.857,5.051-0.66,11.093
		c-1.008,4.008-2.749,7.169-3.772,8.458c-0.235,0.298-0.427,0.516-0.553,0.651C18.457,44.17,17.708,44.743,17.204,44.456z"/>
	<path fill="#0087CB" d="M36.277,44.342c0.233,0.481-4.023,0.778-4.492-0.383c-0.193-0.475-0.37-0.949-0.54-1.422
		c-3.52-9.786-2.402-20.492-2.356-20.794c0.098-0.632,0.252-0.632,0.408-1.028c1.027-2.638-3.63-3.908-4.665-1.288
		c-0.215,0.544-0.416,1.037-1.181,1.3c-0.487,0.169-0.995-0.098-1.121-0.536c-0.113-0.394-0.139-1.087,0.944-2.28
		c1.581-1.736,5.517-1.813,7.243-0.159c1.462,1.401,0.951,3.059,0.236,3.565c-0.079,1.207-0.566,6.413,0.919,12.441
		c0.172,0.698,0.364,1.421,0.593,2.188C33.889,41.405,36.044,43.863,36.277,44.342z"/>
</g>
</svg>
