<?xml version="1.0" encoding="utf-8"?>
<!-- Generator: Adobe Illustrator 16.0.0, SVG Export Plug-In . SVG Version: 6.00 Build 0)  -->
<!DOCTYPE svg PUBLIC "-//W3C//DTD SVG 1.1//EN" "http://www.w3.org/Graphics/SVG/1.1/DTD/svg11.dtd">
<svg version="1.1" id="레이어_1" xmlns="http://www.w3.org/2000/svg" xmlns:xlink="http://www.w3.org/1999/xlink" x="0px"
	 y="0px" width="54px" height="54px" viewBox="0 0 54 54" enable-background="new 0 0 54 54" xml:space="preserve">
<g>
	<path fill-rule="evenodd" clip-rule="evenodd" fill="#0085CD" d="M21.765,18.857c-0.407,0-0.81-0.029-1.199-0.09
		c-1.067-0.16-2.528-0.494-3.431-1.174l-0.213-0.159c-0.6-0.444-1.166-0.864-1.331-1.603c-0.087-0.395-0.035-0.801,0.136-1.061
		c0.104-0.16,0.252-0.26,0.441-0.296c0.083-0.017,0.171-0.022,0.262-0.022c0.285,0,0.643,0.066,0.982,0.182
		c0.43,0.184,0.848,0.424,1.252,0.656c0.907,0.525,1.843,1.067,3.08,1.07c1.273,0,2.938-0.532,3.961-1.266
		c0.262-0.188,0.496-0.406,0.73-0.625c0.213-0.204,0.422-0.4,0.655-0.57l0.187-0.129c1.481-1,3.211-1.543,5.292-1.662
		c0.106-0.007,0.211-0.01,0.314-0.01c1.391,0,2.576,0.521,4.041,1.359c1.314,0.754,1.92,1.477,1.851,2.209
		c-0.056,0.602-0.397,0.988-1.077,1.221c-0.492-0.012-0.893-0.173-1.363-0.562c-1.199-0.988-2.65-1.532-4.086-1.532
		c-0.664,0-1.314,0.113-1.936,0.339c-0.834,0.3-1.525,0.796-2.195,1.276c-0.516,0.369-1.041,0.746-1.61,1.021l-0.53,0.262
		c-0.765,0.381-1.486,0.74-2.298,0.936C23.056,18.781,22.412,18.857,21.765,18.857z"/>
	<path fill-rule="evenodd" clip-rule="evenodd" fill="#0085CD" d="M21.659,41.9c-0.457,0-0.922-0.039-1.378-0.117
		c-0.864-0.148-1.759-0.504-2.735-1.088l-0.163-0.1c-0.724-0.426-1.544-0.91-1.845-1.646c-0.244-1.182-0.096-1.387,0.596-1.691
		c0.107-0.047,0.22-0.068,0.343-0.068c0.563,0,1.241,0.465,1.841,0.875c0.332,0.227,0.672,0.461,0.973,0.594
		c0.697,0.309,1.444,0.482,2.219,0.516c0.099,0.004,0.199,0.006,0.301,0.006c1.442,0,2.918-0.48,4.154-1.354
		c0.387-0.273,0.736-0.621,1.016-0.9c0.387-0.381,0.746-0.734,1.161-0.975c1.176-0.684,2.629-1.059,4.096-1.059
		c0.635,0,1.265,0.07,1.872,0.207c1.688,0.387,3.171,1.217,4.409,2.465c0.433,0.668,0.441,1.203,0.02,1.721
		c-0.258,0.314-0.578,0.469-0.98,0.469c-0.119,0-0.244-0.014-0.372-0.039c-0.099-0.018-0.175-0.074-0.272-0.203l-0.477-0.459
		c-0.082-0.082-0.182-0.121-0.247-0.148c-1.274-0.805-2.677-1.23-4.048-1.23c-0.639,0-1.248,0.096-1.815,0.285
		c-1.029,0.35-1.873,1.004-2.69,1.635l-0.44,0.34C25.497,41.219,23.582,41.898,21.659,41.9L21.659,41.9z"/>
	<path fill-rule="evenodd" clip-rule="evenodd" fill="#0085CD" d="M32.269,18.936c-0.146,0-0.29-0.037-0.429-0.109
		c-0.065-0.034-0.126-0.076-0.185-0.123c-0.282-0.227-0.463-0.578-0.486-0.943c-0.011-0.212,0.028-0.52,0.283-0.779
		c0.256-0.264,0.53-0.396,0.814-0.396c0.201,0,0.414,0.066,0.633,0.199c0.59,0.356,0.57,0.982,0.354,1.45
		C33.058,18.66,32.671,18.936,32.269,18.936z"/>
	<path fill-rule="evenodd" clip-rule="evenodd" fill="#0085CD" d="M21.866,14.643c-0.543,0-1.088-0.354-1.3-0.844
		c-0.316-0.738,0.233-1.17,0.484-1.321c0.277-0.167,0.653-0.266,1.005-0.266c0.359,0,0.655,0.106,0.832,0.298
		c0.301,0.326,0.259,0.758,0.207,0.987c-0.104,0.479-0.43,0.908-0.809,1.065C22.154,14.615,22.012,14.643,21.866,14.643z"/>
	<path fill-rule="evenodd" clip-rule="evenodd" fill="#0085CD" d="M37.479,33.348c-0.695,0-1.229-0.701-1.292-1.357
		c-0.051-0.533,0.414-0.98,0.9-1.145c0.125-0.043,0.257-0.066,0.391-0.066c0.5,0,0.971,0.309,1.199,0.783
		c0.029,0.064,0.055,0.127,0.072,0.189c0.115,0.361,0.016,0.66-0.088,0.848c-0.183,0.334-0.52,0.6-0.902,0.707
		C37.667,33.332,37.573,33.348,37.479,33.348z"/>
	<path fill-rule="evenodd" clip-rule="evenodd" fill="#0085CD" d="M16.464,23.143c-0.05,0-0.101-0.004-0.149-0.012
		c-0.41-0.072-0.747-0.316-0.9-0.655c-0.137-0.306-0.105-0.645,0.088-0.955c0.258-0.411,0.748-0.698,1.191-0.698
		c0.204,0,0.383,0.063,0.531,0.186c0.047,0.038,0.088,0.08,0.127,0.124c0.328,0.368,0.433,0.891,0.254,1.269
		C17.406,22.824,16.916,23.143,16.464,23.143z"/>
	<path fill-rule="evenodd" clip-rule="evenodd" fill="#0085CD" d="M37.603,23.084c-0.54,0-1.145-0.41-1.186-1.023
		c-0.043-0.641,0.271-1.053,0.912-1.189c0.079-0.019,0.158-0.027,0.239-0.027c0.353,0,0.665,0.188,0.855,0.516
		c0.24,0.416,0.223,0.934-0.044,1.319C38.198,22.939,37.923,23.084,37.603,23.084z"/>
	<path fill-rule="evenodd" clip-rule="evenodd" fill="#0085CD" d="M21.87,37.318c-0.602,0-1.271-0.482-1.304-1.264
		c-0.009-0.24,0.062-0.441,0.214-0.602c0.2-0.207,0.519-0.326,0.875-0.326c0.244,0,0.478,0.055,0.674,0.164
		c0.584,0.318,0.631,0.885,0.482,1.307C22.649,37.055,22.306,37.318,21.87,37.318z"/>
	<path fill-rule="evenodd" clip-rule="evenodd" fill="#0085CD" d="M32.436,41.834c-0.081,0-0.167-0.008-0.253-0.025
		c-0.219-0.043-0.415-0.125-0.57-0.244c-0.169-0.129-0.281-0.285-0.334-0.467c-0.121-0.414-0.076-0.779,0.127-1.051
		c0.199-0.264,0.531-0.42,0.887-0.42c0.494,0,0.911,0.297,1.115,0.799c0.137,0.336,0.11,0.676-0.076,0.953
		C33.14,41.664,32.804,41.834,32.436,41.834z"/>
	<path fill-rule="evenodd" clip-rule="evenodd" fill="#0085CD" d="M25.363,18.35c-0.024-0.047-0.073-0.084-0.117-0.117
		c-0.042-0.033-0.087-0.066-0.087-0.094c0.087-0.089,0.149-0.11,0.217-0.11c0.127,0,0.253,0.071,0.339,0.19l-0.16,0.041
		L25.363,18.35z"/>
	<polygon fill-rule="evenodd" clip-rule="evenodd" fill="#0085CD" points="19.331,17.17 22.018,17.129 22.016,17.17 	"/>
	<path fill-rule="evenodd" clip-rule="evenodd" fill="#0085CD" d="M19.526,28.748c-0.102,0-0.199-0.033-0.303-0.066
		c-0.016-0.006-0.033-0.012-0.049-0.016c0.039-0.02,0.092-0.035,0.152-0.035c0.083,0,0.182,0.027,0.285,0.057
		c0.031,0.01,0.063,0.02,0.095,0.027C19.643,28.738,19.583,28.748,19.526,28.748z"/>
	<path fill-rule="evenodd" clip-rule="evenodd" fill="#0085CD" d="M20.688,27.545c-0.057,0-0.078-0.016-0.088-0.027
		c-0.025-0.029-0.061-0.104-0.029-0.318c0.105,0.076,0.244,0.164,0.389,0.295c-0.018,0.004-0.035,0.008-0.051,0.014
		C20.826,27.527,20.749,27.545,20.688,27.545z"/>
	<path fill-rule="evenodd" clip-rule="evenodd" fill="#0085CD" d="M27.089,33.463c-1.638-0.033-3.681-0.768-5.206-1.877
		c-0.341-0.248-0.662-0.543-0.974-0.826c-0.87-0.795-1.771-1.615-3.099-1.639c-0.152-0.002-0.305-0.014-0.453-0.025
		c-0.275-0.021-0.453-0.035-0.631-0.035c-0.99,0-1.951,0.215-2.779,0.621c-0.311,0.154-0.6,0.354-0.855,0.527
		c-0.402,0.277-0.775,0.535-1.195,0.66c-0.164,0.047-0.327,0.07-0.485,0.07c-0.486,0-0.865-0.232-1.041-0.635
		c-0.491-1.129,0.692-1.969,1.644-2.645c0.272-0.195,0.406-0.291,0.527-0.385l0.168-0.133l-0.137-0.346
		c-0.289-0.254-0.592-0.455-0.885-0.648c-0.717-0.475-1.392-0.924-1.521-1.824c0.01-0.822,0.391-1.311,1.133-1.441
		c0.047-0.008,0.095-0.012,0.141-0.012c0.557,0,1.168,0.537,1.496,0.826c0.91,0.809,2.181,1.254,3.576,1.254
		c1.598,0,3.142-0.594,4.129-1.586c0.699-0.7,1.439-1.259,2.203-1.66c0.764-0.402,1.574-0.518,2.432-0.639
		c0.72-0.102,1.377-0.151,2.01-0.151c1.644,0,3.94,0.327,5.545,1.888c0.223,0.271,0.526,0.547,0.946,0.859
		c1.172,0.846,2.414,1.273,3.694,1.273l0.211-0.004c1.16-0.043,2.798-0.434,3.842-1.205c0.44-0.328,0.951-0.662,1.401-0.662
		c0.21,0,0.392,0.076,0.559,0.234c0.073,0.074,0.132,0.15,0.173,0.223c0.221,0.396,0.184,0.961-0.094,1.404
		c-0.238,0.379-0.586,0.703-0.922,1.016c-0.111,0.107-0.23,0.193-0.35,0.279c-0.125,0.092-0.22,0.164-0.31,0.24
		c-0.472,0.4-0.341,0.686-0.152,0.969l0.103,0.16c0.234,0.391,0.579,0.645,0.914,0.891c0.257,0.191,0.5,0.371,0.673,0.598
		c0.259,0.375,0.358,0.73,0.297,1.059c-0.049,0.252-0.196,0.465-0.427,0.619c-0.186,0.127-0.377,0.188-0.586,0.188
		c-0.58,0-1.223-0.463-1.846-0.912c-0.498-0.359-0.965-0.699-1.439-0.842c-0.814-0.244-1.613-0.369-2.375-0.369
		c-0.213,0-0.429,0.01-0.642,0.031c-0.591,0.055-1.045,0.178-1.432,0.391c-0.306,0.166-0.528,0.385-0.743,0.598
		c-0.131,0.131-0.24,0.238-0.363,0.338c-0.328,0.268-0.631,0.514-0.906,0.793c-1.478,1.514-3.773,2.492-5.846,2.492H27.089z
		 M27.095,23.41c-0.55,0-1.095,0.059-1.624,0.172c-0.676,0.113-1.315,0.418-1.953,0.934c-0.98,0.795-2.059,1.668-3.149,2.459
		l-0.192,0.139l0.166,0.361c0.246,0.225,0.512,0.236,0.707,0.248c0.604,0.143,1.002,0.514,1.424,0.906
		c0.346,0.322,0.701,0.652,1.146,0.877c0.925,0.705,2.049,1.08,3.244,1.08c1.226,0,2.469-0.395,3.592-1.139
		c0.418-0.277,0.818-0.584,1.214-0.891l0.532-0.428c0.379-0.305,0.764-0.619,1.186-0.66l0.096-0.494
		c-0.032-0.111-0.26-0.344-0.393-0.473c-0.105-0.107-0.17-0.17-0.203-0.195c-0.188-0.152-0.383-0.293-0.578-0.436
		c-0.219-0.154-0.672-0.467-0.672-0.467c-0.352-0.24-0.66-0.451-0.957-0.678l-0.1-0.076c-0.639-0.492-1.191-0.918-2.072-1.117
		C28.024,23.451,27.549,23.41,27.095,23.41z M35.765,28.787l0.207,0.07l0.299-0.096l0.581-0.545l-0.766-0.037l-0.141,0.002
		l-0.919-0.076L35.765,28.787z"/>
	<path fill-rule="evenodd" clip-rule="evenodd" fill="#0085CD" d="M34.426,28.863c-0.035,0-0.065-0.016-0.092-0.047
		c-0.003-0.143,0.138-0.191,0.253-0.213l0.1,0.029C34.622,28.777,34.509,28.863,34.426,28.863z"/>
	<path fill-rule="evenodd" clip-rule="evenodd" fill="#0085CD" d="M16.563,33.076c-0.428,0-0.781-0.197-0.944-0.529
		c-0.14-0.285-0.157-0.619-0.048-0.912c0.104-0.281,0.309-0.496,0.575-0.611c0.116-0.051,0.235-0.076,0.358-0.076
		c0.281,0,0.57,0.135,0.795,0.371c0.236,0.248,0.361,0.561,0.345,0.861c-0.003,0.059-0.011,0.111-0.022,0.162
		C17.502,32.85,17.004,33.076,16.563,33.076z"/>
	<path fill-rule="evenodd" clip-rule="evenodd" fill="#0085CD" d="M27.032,28.09c-0.625-0.018-1.109-0.504-1.102-1.104
		c0.011-0.598,0.52-1.084,1.137-1.084c0.676,0.037,1.128,0.512,1.096,1.154c-0.029,0.607-0.477,1.033-1.086,1.033H27.032z"/>
</g>
</svg>
