<?xml version="1.0" encoding="utf-8"?>
<!-- Generator: Adobe Illustrator 16.0.0, SVG Export Plug-In . SVG Version: 6.00 Build 0)  -->
<!DOCTYPE svg PUBLIC "-//W3C//DTD SVG 1.1//EN" "http://www.w3.org/Graphics/SVG/1.1/DTD/svg11.dtd">
<svg version="1.1" id="레이어_1" xmlns="http://www.w3.org/2000/svg" xmlns:xlink="http://www.w3.org/1999/xlink" x="0px"
	 y="0px" width="54px" height="54px" viewBox="0 0 54 54" enable-background="new 0 0 54 54" xml:space="preserve">
<g>
	<path fill="#FFFFFF" stroke="#0085CD" stroke-miterlimit="10" d="M37.158,43.607c0,1.627-4.548,2.943-10.157,2.943
		c-5.611,0-10.158-1.316-10.158-2.943s4.547-2.945,10.158-2.945C32.61,40.662,37.158,41.98,37.158,43.607"/>
	
		<ellipse fill="none" stroke="#0085CD" stroke-width="2" stroke-linejoin="round" stroke-miterlimit="10" cx="27" cy="43.607" rx="10.158" ry="2.943"/>
	<path fill="#FFFFFF" stroke="#0085CD" stroke-miterlimit="10" d="M27.001,33.816L27.001,33.816c-3.975,0-7.194-3.221-7.194-7.195
		V14.643c0-3.975,3.22-7.194,7.194-7.194c3.973,0,7.192,3.22,7.192,7.194v11.979C34.193,30.596,30.974,33.816,27.001,33.816"/>
	<path fill="none" stroke="#0085CD" stroke-width="2" stroke-linejoin="round" stroke-miterlimit="10" d="M27.001,33.816
		L27.001,33.816c-3.975,0-7.194-3.221-7.194-7.195V14.643c0-3.975,3.22-7.194,7.194-7.194c3.973,0,7.192,3.22,7.192,7.194v11.979
		C34.193,30.596,30.974,33.816,27.001,33.816z"/>
	<line fill="#FFFFFF" stroke="#0085CD" stroke-miterlimit="10" x1="16.842" y1="20.633" x2="37.158" y2="20.633"/>
	
		<line fill="none" stroke="#0085CD" stroke-width="2" stroke-linejoin="round" stroke-miterlimit="10" x1="16.842" y1="20.633" x2="37.158" y2="20.633"/>
	<line fill="#FFFFFF" stroke="#0085CD" stroke-miterlimit="10" x1="27.001" y1="33.816" x2="27.001" y2="43.607"/>
	
		<line fill="none" stroke="#0085CD" stroke-width="2" stroke-linejoin="round" stroke-miterlimit="10" x1="27.001" y1="33.816" x2="27.001" y2="43.607"/>
</g>
</svg>
