<?xml version="1.0" encoding="utf-8"?>
<!-- Generator: Adobe Illustrator 16.0.0, SVG Export Plug-In . SVG Version: 6.00 Build 0)  -->
<!DOCTYPE svg PUBLIC "-//W3C//DTD SVG 1.1//EN" "http://www.w3.org/Graphics/SVG/1.1/DTD/svg11.dtd">
<svg version="1.1" id="레이어_1" xmlns="http://www.w3.org/2000/svg" xmlns:xlink="http://www.w3.org/1999/xlink" x="0px"
	 y="0px" width="54px" height="54px" viewBox="0 0 54 54" enable-background="new 0 0 54 54" xml:space="preserve">
<g>
	<path fill="none" d="M23.042,31.648c-0.942-0.854-1.68-1.97-2.046-3.117C21.362,29.679,22.1,30.794,23.042,31.648z"/>
	<path fill="none" d="M20.769,27.461c-0.042-0.402-0.042-0.794-0.003-1.171C20.726,26.667,20.726,27.06,20.769,27.461z"/>
	<path fill="none" d="M32.75,35.91c-0.13,0.169-0.262,0.347-0.396,0.529C32.488,36.257,32.621,36.08,32.75,35.91z"/>
	<path fill="none" d="M21.335,34.894c-0.04-0.038-0.079-0.078-0.118-0.118C21.256,34.815,21.296,34.855,21.335,34.894z"/>
	<path fill="none" d="M31.576,22.074c-0.91-0.34-2.039-0.49-2.474-1.5c-0.031-0.074-0.057-0.148-0.075-0.219
		c0.019,0.071,0.044,0.145,0.075,0.219c0.435,1.01,1.563,1.16,2.474,1.501c0.549,0.205,1.027,0.529,1.427,0.931
		C32.604,22.604,32.125,22.28,31.576,22.074z"/>
	<path fill="none" d="M34.368,26.364c0,0.023,0.003,0.045,0.003,0.067v-0.001C34.371,26.409,34.368,26.387,34.368,26.364z"/>
	<path fill="none" d="M17.341,26.077c0.005-0.058,0.016-0.115,0.021-0.173C17.356,25.962,17.346,26.019,17.341,26.077
		c-0.346,3.456,1.424,5.953,3.604,8.408c0.008,0.011,0.018,0.019,0.026,0.027c-0.008-0.009-0.018-0.017-0.026-0.027
		C18.765,32.03,16.995,29.533,17.341,26.077z"/>
	<path fill="none" d="M25.715,20.314c0.078-0.599-0.115-1.007-0.458-1.265C25.599,19.308,25.792,19.715,25.715,20.314z"/>
	<path fill="none" d="M21.464,35.019c0.725,0.699,1.523,1.337,1.993,2.176c0.088,0.158,0.167,0.323,0.229,0.497
		C23.296,36.59,22.327,35.847,21.464,35.019z"/>
	<path fill="none" d="M23.462,22.563c-1.579,0.739-2.518,2.091-2.695,3.72C20.945,24.653,21.884,23.303,23.462,22.563
		c0.588-0.275,1.245-0.606,1.702-1.095C24.708,21.957,24.05,22.287,23.462,22.563z"/>
	<path fill="none" d="M42.725,37.038c0.03,0,0.06-0.003,0.089-0.005C42.784,37.035,42.755,37.038,42.725,37.038z"/>
	<path fill="none" d="M23.919,44.885c-0.003-0.063-0.001-0.123-0.004-0.186c-0.002-0.043-0.001-0.086-0.004-0.129
		c0.002,0.043,0.002,0.087,0.004,0.13C23.918,44.762,23.917,44.824,23.919,44.885z"/>
	<path fill="none" d="M23.699,37.731c0.025,0.071,0.048,0.145,0.067,0.217C23.748,37.874,23.724,37.803,23.699,37.731z"/>
	<path fill="none" d="M31.198,38.405c-0.01,0.024-0.021,0.048-0.029,0.072C31.178,38.453,31.188,38.43,31.198,38.405z"/>
	<path fill="none" d="M31.672,37.458c-0.025,0.044-0.05,0.087-0.076,0.132C31.622,37.545,31.646,37.502,31.672,37.458z"/>
	<path fill="none" d="M35.204,37.074c-0.442,0.006-0.886,0.011-1.323,0.02C34.318,37.085,34.762,37.08,35.204,37.074L35.204,37.074z
		"/>
	<path fill="none" d="M32.954,12.484c-0.381,0.046-0.759,0.084-1.138,0.121C32.195,12.568,32.573,12.531,32.954,12.484
		c1.716-0.206,3.531-0.271,5.351-0.264c0.001,0,0.001,0,0.001,0C36.485,12.213,34.67,12.279,32.954,12.484z"/>
	<path fill="none" d="M31.871,37.138c0.148-0.229,0.305-0.451,0.459-0.664C32.175,36.688,32.02,36.908,31.871,37.138L31.871,37.138z
		"/>
	<path fill="none" d="M41.305,37.085c-0.063,0.001-0.128,0.003-0.191,0.004l0,0C41.177,37.088,41.241,37.086,41.305,37.085z"/>
	<path fill="none" d="M10.008,11.973c0.206-0.001,0.409-0.002,0.612,0l0,0C10.417,11.971,10.213,11.971,10.008,11.973z"/>
	<path fill="none" d="M31.033,38.897c-0.006,0.023-0.011,0.049-0.017,0.071C31.022,38.946,31.027,38.921,31.033,38.897z"/>
	<path fill="none" d="M36.848,23.729c-0.521-1.312-1.343-2.514-2.379-3.463c-0.451-0.414-0.927-0.86-1.447-1.213
		c0.521,0.353,0.996,0.801,1.447,1.213C35.505,21.215,36.327,22.417,36.848,23.729z"/>
	<path fill="none" d="M30.743,45.082c0.011-0.397,0.019-0.793,0.026-1.188c0.011-0.752,0.013-1.522,0.032-2.292
		c-0.02,0.77-0.021,1.54-0.033,2.292C30.762,44.289,30.754,44.685,30.743,45.082z"/>
	<path fill="none" d="M31.39,37.971c-0.008,0.017-0.014,0.032-0.021,0.048C31.376,38.003,31.382,37.987,31.39,37.971z"/>
	<path fill="none" d="M18.008,23.464c0.034-0.079,0.074-0.153,0.111-0.229C18.082,23.311,18.042,23.385,18.008,23.464z"/>
	<path fill="#00A8E7" d="M10.62,11.973c-0.043-0.206-0.074-0.38-0.095-0.517c-0.057-0.364-0.036-0.506,0.099-0.641
		c0.134-0.135,0.278-0.156,0.643-0.098c0.772,0.116,2.829,0.593,4.733,1.656c2.409,0.222,5.173,0.454,8.193,0.512
		c-0.164-0.381-0.267-0.839-0.267-1.393c0-3.077,1.921-6.209,2.568-7.09c0.216-0.295,0.333-0.38,0.522-0.38
		c0.193,0,0.306,0.084,0.525,0.38c0.646,0.881,2.563,4.013,2.563,7.09c0,0.498-0.086,0.915-0.224,1.274
		c0.639-0.041,1.285-0.098,1.937-0.162c0.379-0.037,0.757-0.074,1.138-0.121c1.716-0.206,3.531-0.271,5.352-0.264
		c1.824-0.957,3.726-1.395,4.46-1.505c0.365-0.056,0.506-0.035,0.644,0.1c0.135,0.134,0.152,0.274,0.098,0.642
		c-0.031,0.218-0.095,0.539-0.189,0.927c0.851,0.042,1.683,0.088,2.481,0.13c1.325,0.07,2.566,0.128,3.676,0.139
		c-0.217-0.306-0.43-0.614-0.657-0.915c-2.05-2.674-4.353-4.583-6.896-6.721c-2.86-2.396-5.602-3.496-9.291-4.132
		c-4.271-0.733-8.485-0.443-12.64,0.704c-3.18,0.878-6.408,2.146-9.089,4.111C9.818,6.497,8.703,7.5,7.616,8.678
		c-0.919,1.001-1.817,2.13-2.654,3.369c-0.067,0.1-0.133,0.206-0.199,0.309c1.452-0.185,3.375-0.361,5.245-0.382
		C10.213,11.971,10.417,11.971,10.62,11.973z M33.169,7.314c0.733-1.775,2.587-3.12,3.17-3.469c0.193-0.123,0.282-0.144,0.393-0.097
		c0.11,0.044,0.155,0.124,0.209,0.345c0.163,0.66,0.521,2.925-0.212,4.697c-0.733,1.772-2.558,1.139-2.558,1.139
		S32.437,9.086,33.169,7.314z M17.09,4.094c0.053-0.222,0.1-0.302,0.209-0.345c0.112-0.047,0.196-0.026,0.392,0.097
		c0.583,0.348,2.436,1.696,3.17,3.469c0.731,1.771-1.003,2.615-1.003,2.615s-1.825,0.633-2.557-1.139
		C16.568,7.019,16.927,4.752,17.09,4.094z"/>
	<path fill="#00A8E7" d="M23.919,44.885c-0.003-0.061-0.001-0.123-0.004-0.185c-0.002-0.043-0.001-0.087-0.004-0.13
		c-0.085-2.104,0.24-4.221-0.084-6.323c-0.016-0.102-0.037-0.202-0.061-0.299c-0.02-0.072-0.042-0.146-0.067-0.217
		c-0.004-0.014-0.008-0.026-0.013-0.04c-0.063-0.174-0.142-0.339-0.229-0.497c-1.497-0.03-3.044-0.096-4.667-0.209
		c0.382,0.876,0.599,2.228-0.703,3.531c-2.173,2.176-5.746,3.034-6.821,3.198c-0.365,0.055-0.509,0.036-0.643-0.098
		c-0.135-0.138-0.155-0.277-0.099-0.646c0.153-1.006,0.915-4.202,2.795-6.392c-1.339-0.089-2.642-0.158-3.913-0.211
		c-0.188,0.216-0.446,0.414-0.809,0.564c-1.769,0.733-4.033,0.377-4.694,0.213c-0.222-0.054-0.298-0.098-0.343-0.207
		c-0.045-0.116-0.024-0.2,0.095-0.396c0.039-0.064,0.092-0.148,0.156-0.241c-0.785,0.019-1.559,0.045-2.311,0.093
		c0.003,0.011,0.009,0.026,0.011,0.039c0.965,3.085,2.405,6.057,4.706,8.37c2.467,2.479,5.203,4.646,8.436,6.063
		c1.872,0.823,3.75,1.678,5.732,2.195c1.104,0.292,2.204,0.409,3.306,0.454c0.143-1.029,0.114-2.079,0.132-3.121
		c0.002-0.131,0.002-0.26,0.006-0.392C23.888,48.297,23.99,46.591,23.919,44.885z"/>
	<path fill="#00A8E7" d="M50.375,36.543c0.119,0.195,0.142,0.279,0.094,0.396c-0.043,0.109-0.121,0.153-0.344,0.207
		c-0.658,0.164-2.921,0.521-4.692-0.213c-0.068-0.028-0.126-0.062-0.188-0.092c-0.796,0.081-1.611,0.148-2.432,0.192
		c-0.029,0.002-0.059,0.005-0.089,0.005c-0.473,0.026-0.947,0.04-1.42,0.047c-0.063,0.001-0.128,0.003-0.191,0.004
		c1.589,2.146,2.255,4.951,2.394,5.884c0.055,0.367,0.037,0.507-0.098,0.643c-0.138,0.136-0.278,0.154-0.644,0.102
		c-1.075-0.166-4.647-1.022-6.823-3.2c-1.26-1.262-1.097-2.566-0.738-3.442c-0.442,0.006-0.886,0.011-1.323,0.02
		c-0.673,0.013-1.34,0.028-2.01,0.044l0,0l0,0c-0.068,0.105-0.134,0.211-0.199,0.32c-0.025,0.044-0.05,0.087-0.076,0.132
		c-0.072,0.125-0.142,0.253-0.206,0.381c-0.008,0.017-0.014,0.032-0.021,0.048c-0.063,0.128-0.119,0.257-0.17,0.387
		c-0.01,0.024-0.021,0.048-0.029,0.072c-0.053,0.141-0.099,0.28-0.136,0.42c-0.006,0.023-0.011,0.049-0.017,0.071
		c-0.036,0.146-0.065,0.292-0.081,0.44c-0.078,0.718-0.114,1.455-0.134,2.193c-0.02,0.77-0.021,1.54-0.032,2.292
		c-0.008,0.395-0.016,0.79-0.026,1.188c-0.029,1.285-0.061,2.571-0.029,3.856c0.016,0.569,0.026,1.176,0.055,1.79
		c0.042,0.884,0.121,1.79,0.312,2.649c0.04-0.005,0.077-0.005,0.113-0.005c2.781-0.172,5.396-1.17,7.821-2.367
		c5.219-2.579,9.621-6.052,12.072-11.516c0.553-1.231,0.998-2.463,1.385-3.718c-0.17,0.028-0.348,0.059-0.535,0.09
		c-0.535,0.092-1.145,0.195-1.811,0.306C50.232,36.319,50.318,36.448,50.375,36.543z"/>
	<path fill="#0087CB" d="M53.435,32.203c1.335-5.546,0.417-13.246-3.96-19.55c-1.109-0.011-2.351-0.069-3.676-0.139
		c-0.799-0.042-1.631-0.088-2.481-0.13c-0.372,1.536-1.27,4.161-3.006,5.898c-2.173,2.173-4.485,0.119-4.485,0.119
		s-2.057-2.315,0.116-4.492c0.69-0.688,1.519-1.243,2.362-1.689c-1.819-0.008-3.635,0.058-5.351,0.265
		c-0.381,0.046-0.759,0.083-1.138,0.12c-0.651,0.064-1.298,0.122-1.937,0.164c-0.705,1.847-2.865,1.982-2.865,1.982
		s-2.073-0.126-2.822-1.864c-3.021-0.06-5.785-0.29-8.194-0.514c0.749,0.417,1.474,0.923,2.088,1.536
		c2.173,2.177,0.12,4.492,0.12,4.492s-2.313,2.059-4.489-0.119c-1.9-1.904-2.794-4.873-3.098-6.31c-0.203-0.002-0.406-0.001-0.612,0
		c-1.87,0.021-3.793,0.198-5.245,0.383c0,0,0,0,0,0h0c-3.477,5.278-5.825,12.421-4.277,20.021c0.302,1.487,0.642,2.82,1.016,4.019
		c0.752-0.048,1.525-0.074,2.311-0.093c0.503-0.742,1.74-2.278,3.314-2.932c1.769-0.732,2.613,1.005,2.613,1.005
		s0.396,1.151-0.332,1.993c1.271,0.051,2.573,0.122,3.913,0.211c0.127-0.149,0.261-0.294,0.398-0.433
		c2.175-2.173,4.489-0.12,4.489-0.12s0.329,0.374,0.583,0.959c1.623,0.113,3.17,0.178,4.667,0.209
		c-0.47-0.839-1.268-1.477-1.993-2.176c-0.043-0.04-0.087-0.082-0.129-0.125c-0.04-0.038-0.079-0.078-0.118-0.118
		c-0.084-0.086-0.167-0.174-0.247-0.263c-0.008-0.009-0.018-0.017-0.026-0.027c-2.18-2.455-3.95-4.952-3.604-8.408
		c0.005-0.058,0.016-0.115,0.021-0.173c0.103-0.861,0.319-1.7,0.646-2.44c0.034-0.079,0.074-0.153,0.111-0.229
		c0.189-0.393,0.409-0.759,0.662-1.081c1.155-1.458,2.209-2.794,4.068-3.319c0.812-0.227,1.823-0.224,2.408,0.216
		c0.343,0.258,0.536,0.666,0.458,1.265c-0.01,0.069-0.016,0.136-0.032,0.209c-0.083,0.375-0.273,0.68-0.519,0.944
		c-0.457,0.489-1.114,0.82-1.702,1.096c-1.579,0.739-2.518,2.089-2.695,3.719c0,0.002-0.001,0.005-0.001,0.007
		c-0.04,0.377-0.04,0.769,0.003,1.171c0.037,0.355,0.115,0.714,0.227,1.07c0.366,1.147,1.104,2.263,2.046,3.117
		c1.1,0.996,2.479,1.64,3.886,1.548c1.609-0.108,3.195-0.763,4.508-1.686c1.651-1.164,2.936-3,2.936-5.079
		c0-0.022-0.003-0.044-0.003-0.067c-0.019-1.241-0.504-2.486-1.365-3.358c-0.399-0.402-0.878-0.726-1.427-0.931
		c-0.91-0.341-2.039-0.492-2.474-1.501c-0.031-0.074-0.057-0.148-0.075-0.219c-0.275-1.081,0.898-1.864,1.88-1.946
		c0.798-0.07,1.489,0.219,2.114,0.644c0.521,0.353,0.996,0.799,1.447,1.213c1.036,0.949,1.858,2.151,2.379,3.463
		c0.102,0.254,0.194,0.511,0.271,0.774c0.422,1.45,0.415,3.082,0.073,4.551c-0.628,2.71-2.769,4.654-4.39,6.787
		c-0.017,0.023-0.035,0.047-0.053,0.069c-0.129,0.17-0.262,0.347-0.396,0.529c-0.009,0.013-0.017,0.023-0.024,0.034
		c-0.154,0.213-0.311,0.435-0.459,0.664c0.67-0.016,1.338-0.031,2.01-0.044c0.438-0.009,0.881-0.014,1.323-0.02
		c0.259-0.635,0.619-1.044,0.619-1.044s2.315-2.057,4.488,0.119c0.29,0.29,0.557,0.607,0.802,0.939
		c0.063-0.001,0.128-0.003,0.191-0.004c0.473-0.007,0.947-0.021,1.42-0.047c0.03,0,0.06-0.003,0.089-0.005
		c0.82-0.044,1.636-0.111,2.432-0.192c-1.532-0.783-0.952-2.466-0.952-2.466s0.842-1.738,2.612-1.005
		c1.486,0.617,2.671,2.017,3.221,2.798c0.666-0.11,1.275-0.214,1.811-0.306c0.188-0.031,0.365-0.062,0.533-0.09
		C52.827,34.612,53.14,33.429,53.435,32.203z M3.559,17.496c0.047-0.113,0.123-0.158,0.345-0.211
		c0.662-0.163,2.927-0.521,4.694,0.213c1.773,0.73,1.141,2.56,1.141,2.56s-0.844,1.735-2.613,1.002
		c-1.775-0.735-3.12-2.589-3.47-3.169C3.535,17.691,3.516,17.605,3.559,17.496z M11.3,30.303c-3.074,0-6.207-1.916-7.083-2.564
		c-0.298-0.216-0.384-0.333-0.384-0.523c0-0.192,0.086-0.305,0.384-0.523c0.875-0.649,4.008-2.566,7.083-2.566
		s3.256,3.089,3.256,3.089S14.374,30.303,11.3,30.303z M30.023,25.507c0.65,1.079,0.369,2.87-0.597,3.762
		c-0.723,0.663-1.796,0.998-2.768,0.895c-1.197-0.132-2.006-1.132-2.221-2.265c-0.01-0.063-0.021-0.128-0.029-0.195
		c-0.208-1.506,0.343-3.172,1.952-3.596C27.869,23.707,29.225,24.178,30.023,25.507z M49.814,27.738
		c-0.878,0.648-4.009,2.564-7.085,2.564c-3.074,0-3.256-3.088-3.256-3.088s0.182-3.089,3.256-3.089c3.076,0,6.207,1.917,7.085,2.566
		c0.297,0.219,0.385,0.332,0.385,0.523C50.199,27.406,50.111,27.522,49.814,27.738z M50.375,17.89
		c-0.351,0.58-1.696,2.434-3.47,3.169c-1.771,0.733-2.612-1.002-2.612-1.002s-0.633-1.829,1.14-2.56
		c1.771-0.734,4.033-0.376,4.692-0.213c0.222,0.054,0.299,0.1,0.344,0.211C50.517,17.605,50.494,17.691,50.375,17.89z"/>
	<path fill="#479E36" d="M10.008,11.973c-1.87,0.021-3.792,0.198-5.245,0.382c0,0,0,0,0,0C6.215,12.171,8.138,11.994,10.008,11.973z
		"/>
	<path fill="#479E36" d="M43.317,12.384c0.851,0.042,1.683,0.089,2.481,0.13C45,12.473,44.168,12.426,43.317,12.384L43.317,12.384z"
		/>
	<path fill="#479E36" d="M29.88,12.769c0.639-0.042,1.285-0.1,1.937-0.164c-0.651,0.064-1.298,0.122-1.937,0.162V12.769z"/>
	<path fill="#479E36" d="M15.999,12.374L15.999,12.374c2.409,0.224,5.173,0.455,8.194,0.514c0,0,0,0-0.001-0.002
		C21.171,12.827,18.407,12.596,15.999,12.374z"/>
	<path fill="#479E36" d="M23.457,37.194c-1.497-0.031-3.044-0.096-4.667-0.209h0C20.413,37.099,21.96,37.164,23.457,37.194z"/>
	<path fill="#479E36" d="M13.319,36.579L13.319,36.579c-1.339-0.089-2.642-0.16-3.913-0.211l0,0
		C10.678,36.421,11.98,36.49,13.319,36.579z"/>
	<path fill="#479E36" d="M3.812,36.302c-0.785,0.019-1.559,0.045-2.311,0.093C2.253,36.347,3.026,36.32,3.812,36.302L3.812,36.302z"
		/>
	<path fill="#479E36" d="M33.881,37.094c-0.672,0.013-1.34,0.028-2.01,0.044l0,0C32.541,37.122,33.208,37.106,33.881,37.094z"/>
	<path fill="#479E36" d="M45.245,36.841c-0.796,0.081-1.611,0.148-2.432,0.192C43.634,36.989,44.449,36.922,45.245,36.841
		L45.245,36.841z"/>
	<path fill="#479E36" d="M50.126,36.168c0.666-0.11,1.275-0.214,1.811-0.306C51.401,35.954,50.792,36.058,50.126,36.168
		L50.126,36.168z"/>
	<path fill="#479E36" d="M41.305,37.085c0.473-0.007,0.947-0.021,1.42-0.047C42.252,37.064,41.777,37.078,41.305,37.085z"/>
	<path fill="#FFFFFF" d="M23.687,37.691c0.005,0.014,0.009,0.026,0.013,0.04C23.695,37.718,23.692,37.705,23.687,37.691z"/>
	<path fill="#FFFFFF" d="M23.919,44.885c0.07,1.706-0.032,3.412-0.089,5.119c-0.004,0.132-0.004,0.261-0.006,0.392
		c0.002-0.131,0.003-0.26,0.006-0.392C23.888,48.297,23.991,46.591,23.919,44.885z"/>
	<path fill="#FFFFFF" d="M23.912,44.57c-0.084-2.104,0.24-4.221-0.084-6.323c-0.015-0.102-0.036-0.202-0.061-0.299
		c0.023,0.097,0.044,0.197,0.061,0.299C24.151,40.35,23.826,42.466,23.912,44.57z"/>
	<path fill="#FFFFFF" d="M31.368,38.019c-0.063,0.127-0.119,0.257-0.17,0.387C31.249,38.275,31.306,38.146,31.368,38.019z"/>
	<path fill="#FFFFFF" d="M31.596,37.59c-0.072,0.125-0.142,0.253-0.206,0.381C31.454,37.843,31.523,37.715,31.596,37.59z"/>
	<path fill="#FFFFFF" d="M30.743,45.082c-0.029,1.285-0.061,2.571-0.029,3.856c0.016,0.569,0.026,1.176,0.055,1.79
		c-0.028-0.614-0.039-1.221-0.055-1.79C30.683,47.653,30.714,46.367,30.743,45.082z"/>
	<path fill="#FFFFFF" d="M31.672,37.458c0.065-0.109,0.131-0.215,0.199-0.32l0,0C31.803,37.243,31.737,37.349,31.672,37.458z"/>
	<path fill="#FFFFFF" d="M30.802,41.603c0.02-0.738,0.056-1.476,0.134-2.193c0.016-0.148,0.045-0.294,0.081-0.44
		c-0.036,0.146-0.065,0.292-0.081,0.44C30.857,40.127,30.821,40.864,30.802,41.603z"/>
	<path fill="#FFFFFF" d="M31.169,38.478c-0.053,0.141-0.099,0.28-0.136,0.42C31.07,38.758,31.116,38.618,31.169,38.478z"/>
	<path fill="#FFFFFF" d="M17.362,25.904c0.103-0.861,0.319-1.7,0.646-2.44C17.681,24.205,17.464,25.043,17.362,25.904z"/>
	<path fill="#FFFFFF" d="M32.354,36.439c-0.009,0.013-0.017,0.023-0.024,0.034C32.338,36.463,32.346,36.452,32.354,36.439z"/>
	<path fill="#FFFFFF" d="M20.767,26.283c0,0.002-0.001,0.005-0.001,0.007C20.766,26.288,20.767,26.285,20.767,26.283z"/>
	<path fill="#FFFFFF" d="M21.218,34.775c-0.083-0.086-0.167-0.174-0.247-0.263C21.05,34.602,21.134,34.689,21.218,34.775z"/>
	<path fill="#FFFFFF" d="M21.464,35.019c-0.043-0.04-0.087-0.082-0.129-0.125C21.377,34.937,21.421,34.979,21.464,35.019z"/>
	<path fill="#FFFFFF" d="M33.003,23.006c0.861,0.872,1.347,2.117,1.365,3.358C34.35,25.123,33.864,23.878,33.003,23.006z"/>
	<path fill="#FFFFFF" d="M31.436,31.511c-1.313,0.923-2.898,1.577-4.508,1.686c-1.407,0.092-2.786-0.552-3.886-1.548
		c1.101,0.997,2.479,1.64,3.886,1.55C28.537,33.089,30.123,32.434,31.436,31.511z"/>
	<path fill="#FFFFFF" d="M34.371,26.432L34.371,26.432c0,2.079-1.284,3.915-2.936,5.079C33.087,30.347,34.371,28.512,34.371,26.432z
		"/>
	<path fill="#FFFFFF" d="M25.164,21.468c0.246-0.264,0.436-0.569,0.519-0.944c0.017-0.074,0.022-0.141,0.032-0.209
		c-0.01,0.069-0.016,0.136-0.032,0.209C25.6,20.898,25.41,21.204,25.164,21.468z"/>
	<path fill="#FFFFFF" d="M30.908,18.409c0.797-0.07,1.488,0.219,2.113,0.644C32.396,18.628,31.705,18.339,30.908,18.409
		c-0.982,0.082-2.156,0.865-1.881,1.946C28.752,19.274,29.926,18.491,30.908,18.409z"/>
	<path fill="#FFFFFF" d="M22.849,18.834c0.812-0.227,1.823-0.223,2.408,0.216C24.671,18.61,23.66,18.607,22.849,18.834
		c-1.859,0.525-2.914,1.862-4.068,3.319c-0.253,0.322-0.472,0.688-0.662,1.081c0.189-0.393,0.409-0.759,0.662-1.081
		C19.935,20.697,20.99,19.36,22.849,18.834z"/>
	<path fill="#FFFFFF" d="M37.192,29.054c-0.628,2.71-2.769,4.654-4.39,6.787c-0.017,0.021-0.035,0.047-0.053,0.069
		c0.018-0.022,0.036-0.046,0.053-0.069C34.424,33.708,36.564,31.764,37.192,29.054c0.342-1.469,0.349-3.101-0.073-4.551
		c-0.077-0.263-0.17-0.52-0.271-0.774c0.102,0.254,0.194,0.512,0.271,0.774C37.541,25.953,37.534,27.585,37.192,29.054z"/>
	<path fill="#FFFFFF" d="M39.987,12.25c-0.559-0.015-1.12-0.026-1.682-0.029c0,0,0,0-0.001,0
		C38.867,12.224,39.429,12.235,39.987,12.25z"/>
	<path fill="#FFFFFF" d="M41.113,37.089L41.113,37.089c-0.053,0.002-0.105,0.002-0.159,0.003
		C41.008,37.091,41.061,37.091,41.113,37.089z"/>
	<path fill="#FFFFFF" d="M37.966,37.059c-0.935-0.005-1.852,0.004-2.762,0.016l0,0C36.114,37.063,37.031,37.054,37.966,37.059z"/>
</g>
</svg>
