<?xml version="1.0" encoding="utf-8"?>
<!-- Generator: Adobe Illustrator 16.0.0, SVG Export Plug-In . SVG Version: 6.00 Build 0)  -->
<!DOCTYPE svg PUBLIC "-//W3C//DTD SVG 1.1//EN" "http://www.w3.org/Graphics/SVG/1.1/DTD/svg11.dtd">
<svg version="1.1" id="레이어_1" xmlns="http://www.w3.org/2000/svg" xmlns:xlink="http://www.w3.org/1999/xlink" x="0px"
	 y="0px" width="54px" height="54px" viewBox="0 0 54 54" enable-background="new 0 0 54 54" xml:space="preserve">
<g>
	<polygon fill="#0085CD" points="17.699,42.014 17.699,40.461 33.274,40.461 33.274,13.541 13.035,13.541 13.035,41.037 
		11.589,41.037 11.589,11.986 34.719,11.986 34.719,42.014 	"/>
	<polygon fill="#0085CD" points="17.699,42.014 17.699,40.461 33.274,40.461 33.274,13.541 13.035,13.541 13.035,41.037 
		11.589,41.037 11.589,11.986 34.719,11.986 34.719,42.014 	"/>
	<polygon fill="#0085CD" points="17.885,41.814 17.885,40.66 33.462,40.66 33.462,13.339 12.848,13.339 12.848,40.834 
		11.775,40.834 11.775,12.187 34.532,12.187 34.532,41.814 	"/>
	<polygon fill="#0085CD" points="17.791,41.914 17.791,40.561 33.367,40.561 33.367,13.44 12.941,13.44 12.941,40.936 
		11.682,40.936 11.682,12.086 34.626,12.086 34.626,41.914 	"/>
	<polygon fill="#0085CD" points="17.791,41.914 17.791,40.561 33.367,40.561 33.367,13.44 12.941,13.44 12.941,40.936 
		11.682,40.936 11.682,12.086 34.626,12.086 34.626,41.914 	"/>
	<polygon fill="#0085CD" points="17.979,41.713 17.979,40.762 33.555,40.762 33.555,13.24 12.754,13.24 12.754,40.734 
		11.869,40.734 11.869,12.289 34.439,12.289 34.439,41.713 	"/>
	<rect x="18.439" y="18.281" fill="#0085CD" width="10.055" height="1.957"/>
	<rect x="18.627" y="18.482" fill="#0085CD" width="9.681" height="1.555"/>
	<rect x="18.627" y="18.482" fill="#0085CD" width="9.681" height="1.555"/>
	<rect x="18.814" y="18.683" fill="#0085CD" width="9.306" height="1.153"/>
	<rect x="18.533" y="18.38" fill="#0085CD" width="9.868" height="1.757"/>
	<rect x="18.719" y="18.583" fill="#0085CD" width="9.495" height="1.354"/>
	<rect x="18.719" y="18.583" fill="#0085CD" width="9.495" height="1.354"/>
	<rect x="18.906" y="18.783" fill="#0085CD" width="9.121" height="0.952"/>
	<rect x="18.439" y="23.173" fill="#0085CD" width="10.055" height="1.957"/>
	<rect x="18.627" y="23.375" fill="#0085CD" width="9.681" height="1.554"/>
	<rect x="18.627" y="23.375" fill="#0085CD" width="9.681" height="1.554"/>
	<rect x="18.814" y="23.576" fill="#0085CD" width="9.306" height="1.151"/>
	<rect x="18.533" y="23.273" fill="#0085CD" width="9.868" height="1.756"/>
	<rect x="18.719" y="23.475" fill="#0085CD" width="9.495" height="1.354"/>
	<rect x="18.719" y="23.475" fill="#0085CD" width="9.495" height="1.354"/>
	<rect x="18.906" y="23.675" fill="#0085CD" width="9.121" height="0.952"/>
	<rect x="18.439" y="28.066" fill="#0085CD" width="10.055" height="1.955"/>
	<rect x="18.627" y="28.268" fill="#0085CD" width="9.681" height="1.555"/>
	<rect x="18.627" y="28.268" fill="#0085CD" width="9.681" height="1.555"/>
	<rect x="18.814" y="28.469" fill="#0085CD" width="9.306" height="1.15"/>
	<rect x="18.533" y="28.166" fill="#0085CD" width="9.868" height="1.756"/>
	<rect x="18.719" y="28.367" fill="#0085CD" width="9.495" height="1.354"/>
	<rect x="18.719" y="28.367" fill="#0085CD" width="9.495" height="1.354"/>
	<rect x="18.906" y="28.568" fill="#0085CD" width="9.121" height="0.951"/>
	<rect x="18.439" y="33.035" fill="#0085CD" width="10.055" height="1.957"/>
	<rect x="18.627" y="33.238" fill="#0085CD" width="9.681" height="1.553"/>
	<rect x="18.627" y="33.238" fill="#0085CD" width="9.681" height="1.553"/>
	<rect x="18.814" y="33.439" fill="#0085CD" width="9.306" height="1.15"/>
	<rect x="18.533" y="33.137" fill="#0085CD" width="9.868" height="1.756"/>
	<rect x="18.719" y="33.336" fill="#0085CD" width="9.495" height="1.355"/>
	<rect x="18.719" y="33.336" fill="#0085CD" width="9.495" height="1.355"/>
	<rect x="18.906" y="33.537" fill="#0085CD" width="9.121" height="0.953"/>
	<path fill="#0085CD" d="M37.31,41.516V21.539h5.008v19.977H37.31z M38.381,40.361h2.865V22.689h-2.865V40.361z"/>
	<path fill="#0085CD" d="M37.216,41.615V21.437h5.195v20.178H37.216z M38.475,40.262h2.677V22.791h-2.677V40.262z"/>
	<path fill="#0085CD" d="M38.184,22.695V18.11h3.446v4.585H38.184z M39.266,21.532h1.284v-2.26h-1.284V21.532z"/>
	<path fill="#0085CD" d="M38.184,22.695V18.11h3.446v4.585H38.184z M39.266,21.532h1.284v-2.26h-1.284V21.532z"/>
	<path fill="#0085CD" d="M38.37,22.493v-4.182h3.073v4.182H38.37z M39.078,21.734h1.658v-2.663h-1.658V21.734z"/>
	<path fill="#0085CD" d="M38.276,22.594V18.21h3.261v4.384H38.276z M39.172,21.632h1.471v-2.461h-1.471V21.632z"/>
	<path fill="#0085CD" d="M38.464,22.393v-3.982h2.886v3.982H38.464z M38.985,21.833h1.844V18.97h-1.844V21.833z"/>
	<rect x="39.272" y="15.388" fill="#0085CD" width="1.081" height="2.301"/>
	<rect x="39.272" y="15.388" fill="#0085CD" width="1.081" height="2.301"/>
	<rect x="39.46" y="15.59" fill="#0085CD" width="0.706" height="1.898"/>
	<rect x="39.179" y="15.288" fill="#0085CD" width="1.269" height="2.504"/>
	<rect x="39.365" y="15.49" fill="#0085CD" width="0.895" height="2.1"/>
	<rect x="39.553" y="15.689" fill="#0085CD" width="0.521" height="1.7"/>
</g>
</svg>
