<?xml version="1.0" encoding="utf-8"?>
<!-- Generator: Adobe Illustrator 16.0.0, SVG Export Plug-In . SVG Version: 6.00 Build 0)  -->
<!DOCTYPE svg PUBLIC "-//W3C//DTD SVG 1.1//EN" "http://www.w3.org/Graphics/SVG/1.1/DTD/svg11.dtd">
<svg version="1.1" id="레이어_1" xmlns="http://www.w3.org/2000/svg" xmlns:xlink="http://www.w3.org/1999/xlink" x="0px"
	 y="0px" width="54px" height="54px" viewBox="0 0 54 54" enable-background="new 0 0 54 54" xml:space="preserve">
<g>
	<path fill="none" stroke="#0085CD" stroke-width="1.8" stroke-linecap="round" stroke-linejoin="round" d="M19.682,34.792v7.791
		c0,0.242,0.048,0.471,0.132,0.682c0.082,0.211,0.204,0.398,0.354,0.557c0.149,0.158,0.327,0.287,0.526,0.375
		c0.197,0.09,0.415,0.137,0.643,0.137h3.955h3.956h3.955h3.956c0.229,0,0.445-0.047,0.644-0.137
		c0.198-0.088,0.376-0.217,0.526-0.375c0.149-0.158,0.271-0.346,0.354-0.557c0.083-0.211,0.13-0.439,0.13-0.682v-7.791v-7.793
		v-7.791v-7.791c0-0.242-0.047-0.473-0.13-0.682c-0.084-0.209-0.205-0.398-0.354-0.557c-0.15-0.158-0.328-0.287-0.526-0.375
		c-0.198-0.09-0.415-0.137-0.644-0.137h-3.956h-3.955h-3.956h-3.955c-0.228,0-0.445,0.047-0.643,0.137
		c-0.199,0.088-0.377,0.217-0.526,0.375c-0.15,0.158-0.272,0.348-0.354,0.557c-0.084,0.209-0.132,0.439-0.132,0.682v3.031"/>
	
		<line fill="none" stroke="#0085CD" stroke-width="1.8" stroke-linecap="round" stroke-linejoin="round" x1="30.499" y1="13.659" x2="27.997" y2="13.659"/>
	<g>
		<path fill="none" stroke="#0085CD" stroke-width="1.8" stroke-linecap="round" stroke-linejoin="round" d="M16.479,19.354h12.489
			c0.714,0,1.292,0.613,1.292,1.367v8.721c0,0.754-0.578,1.365-1.292,1.365H27.12v2.734c0,0.752-0.368,0.889-0.817,0.309
			l-3.482-3.043h-6.342c-0.714,0-1.292-0.611-1.292-1.365v-8.721C15.187,19.968,15.765,19.354,16.479,19.354z"/>
		
			<line fill="none" stroke="#0085CD" stroke-width="1.8" stroke-linecap="round" stroke-linejoin="round" x1="20.467" y1="25.286" x2="24.98" y2="25.286"/>
	</g>
</g>
</svg>
