<?xml version="1.0" encoding="utf-8"?>
<!-- Generator: Adobe Illustrator 16.0.0, SVG Export Plug-In . SVG Version: 6.00 Build 0)  -->
<!DOCTYPE svg PUBLIC "-//W3C//DTD SVG 1.1//EN" "http://www.w3.org/Graphics/SVG/1.1/DTD/svg11.dtd">
<svg version="1.1" id="레이어_1" xmlns="http://www.w3.org/2000/svg" xmlns:xlink="http://www.w3.org/1999/xlink" x="0px"
	 y="0px" width="54px" height="54px" viewBox="0 0 54 54" enable-background="new 0 0 54 54" xml:space="preserve">
<g>
	<polygon fill="#0085CD" points="33.831,42.451 28.12,32.617 24.419,36.318 25.111,39.576 22.751,41.939 12.062,31.25 
		14.424,28.889 18.229,29.697 17.801,31.711 15.087,31.135 14.972,31.25 22.751,39.029 22.866,38.914 22.173,35.654 28.556,29.268 
		34.267,39.104 35.501,37.871 32.361,25.464 39.989,17.836 40.32,13.921 40.079,13.68 36.163,14.009 28.536,21.638 16.13,18.5 
		14.897,19.732 24.731,25.441 21.251,28.924 19.796,27.468 21.384,25.88 11.55,20.168 15.501,16.217 27.907,19.357 35.239,12.022 
		40.858,11.549 42.45,13.142 41.976,18.759 34.643,26.091 37.782,38.5 	"/>
	<path fill="#0085CD" d="M35.462,31.225c-0.211,0-0.422-0.082-0.582-0.242c-0.322-0.32-0.322-0.842,0-1.164l1.143-1.143
		c0.323-0.322,0.844-0.322,1.166,0c0.32,0.32,0.32,0.842,0,1.162l-1.146,1.145C35.882,31.143,35.673,31.225,35.462,31.225z"/>
	<path fill="#0085CD" d="M36.188,35.371c-0.211,0-0.422-0.078-0.581-0.24c-0.323-0.32-0.323-0.842,0-1.164l1.144-1.145
		c0.321-0.322,0.842-0.322,1.164,0c0.321,0.322,0.321,0.842,0,1.162l-1.145,1.146C36.61,35.293,36.399,35.371,36.188,35.371z"/>
	<path fill="#0085CD" d="M23.868,19.63c-0.211,0-0.422-0.08-0.582-0.24c-0.321-0.322-0.321-0.844,0-1.164l1.144-1.146
		c0.322-0.321,0.843-0.321,1.163,0c0.322,0.321,0.322,0.843,0,1.164L24.45,19.39C24.29,19.55,24.079,19.63,23.868,19.63z"/>
	<path fill="#0085CD" d="M19.722,18.902c-0.211,0-0.423-0.08-0.584-0.24c-0.32-0.321-0.32-0.844,0-1.164l1.145-1.144
		c0.32-0.322,0.842-0.322,1.164-0.001c0.321,0.321,0.321,0.844,0,1.164l-1.143,1.145C20.143,18.822,19.932,18.902,19.722,18.902z"/>
</g>
</svg>
