<?xml version="1.0" encoding="utf-8"?>
<!-- Generator: Adobe Illustrator 16.0.0, SVG Export Plug-In . SVG Version: 6.00 Build 0)  -->
<!DOCTYPE svg PUBLIC "-//W3C//DTD SVG 1.1//EN" "http://www.w3.org/Graphics/SVG/1.1/DTD/svg11.dtd">
<svg version="1.1" id="레이어_1" xmlns="http://www.w3.org/2000/svg" xmlns:xlink="http://www.w3.org/1999/xlink" x="0px"
	 y="0px" width="54px" height="54px" viewBox="0 0 54 54" enable-background="new 0 0 54 54" xml:space="preserve">
<g>
	<path fill="#FFFFFF" stroke="#0085CD" stroke-miterlimit="10" d="M42.523,22.295c0,2.755-2.235,4.99-4.99,4.99
		c-2.758,0-4.99-2.235-4.99-4.99c0-2.756,2.232-4.991,4.99-4.991C40.288,17.304,42.523,19.539,42.523,22.295"/>
	
		<circle fill="none" stroke="#0085CD" stroke-width="2" stroke-linejoin="round" stroke-miterlimit="10" cx="37.533" cy="22.295" r="4.99"/>
	<path fill="#FFFFFF" stroke="#0085CD" stroke-miterlimit="10" d="M27.552,27.636H16.818c-2.951,0-5.342-2.392-5.342-5.341
		c0-2.951,2.391-5.342,5.342-5.342h10.733V27.636z"/>
	<path fill="none" stroke="#0085CD" stroke-width="2" stroke-linejoin="round" stroke-miterlimit="10" d="M27.552,27.636H16.818
		c-2.951,0-5.342-2.392-5.342-5.341c0-2.951,2.391-5.342,5.342-5.342h10.733V27.636z"/>
	<polygon fill="#FFFFFF" stroke="#0085CD" stroke-miterlimit="10" points="37.533,33.604 27.552,27.636 27.552,16.953 
		37.533,10.984 	"/>
	<polygon fill="none" stroke="#0085CD" stroke-width="2" stroke-linejoin="round" stroke-miterlimit="10" points="37.533,33.604 
		27.552,27.636 27.552,16.953 37.533,10.984 	"/>
	<polygon fill="#FFFFFF" stroke="#0085CD" stroke-miterlimit="10" points="28.373,43.016 23.063,43.016 17.753,27.636 
		23.063,27.636 	"/>
	<polygon fill="none" stroke="#0085CD" stroke-width="2" stroke-linejoin="round" stroke-miterlimit="10" points="28.373,43.016 
		23.063,43.016 17.753,27.636 23.063,27.636 	"/>
</g>
</svg>
