<?xml version="1.0" encoding="utf-8"?>
<!-- Generator: Adobe Illustrator 16.0.0, SVG Export Plug-In . SVG Version: 6.00 Build 0)  -->
<!DOCTYPE svg PUBLIC "-//W3C//DTD SVG 1.1//EN" "http://www.w3.org/Graphics/SVG/1.1/DTD/svg11.dtd">
<svg version="1.1" id="레이어_1" xmlns="http://www.w3.org/2000/svg" xmlns:xlink="http://www.w3.org/1999/xlink" x="0px"
	 y="0px" width="54px" height="54px" viewBox="0 0 54 54" enable-background="new 0 0 54 54" xml:space="preserve">
<g>
	<g>
		<path fill="#FFFFFF" stroke="#0086CE" stroke-width="0.8" stroke-miterlimit="10" d="M30.66,35.027
			c-0.438-0.628-1.906-1.236-2.569-0.689c-0.557,0.457-0.146,1.445,0.156,1.975c0.426,0.754,1.529,1.27,2.371,1.242"/>
		<path fill="#040000" stroke="#0086CE" stroke-width="0.8" stroke-miterlimit="10" d="M27.885,34.087
			c-0.782,0.644-0.203,1.881,0.082,2.383c0.51,0.903,1.778,1.432,2.659,1.403l-0.021-0.643c-0.696,0.021-1.7-0.406-2.08-1.078
			c-0.313-0.556-0.563-1.298-0.231-1.567c0.146-0.123,0.396-0.166,0.7-0.123c0.604,0.083,1.195,0.454,1.399,0.748l0.528-0.365
			c-0.333-0.481-1.126-0.92-1.842-1.021C28.592,33.757,28.177,33.848,27.885,34.087z"/>
		<path fill="#040000" stroke="#0086CE" stroke-width="0.8" stroke-miterlimit="10" d="M28.793,34.826
			c-0.188,0.131-0.278,0.352-0.253,0.604c0.039,0.378,0.343,0.824,0.646,0.956c0.162,0.068,0.349-0.006,0.418-0.167
			c0.02-0.042,0.027-0.085,0.027-0.128c0-0.123-0.073-0.242-0.191-0.296c-0.091-0.041-0.206-0.241-0.237-0.375
			c0.09,0.06,0.221,0.178,0.375,0.411c0.098,0.147,0.297,0.189,0.443,0.094c0.147-0.1,0.189-0.298,0.092-0.445
			c-0.199-0.304-0.514-0.679-0.87-0.748L28.793,34.826z"/>
	</g>
	<g>
		<path fill="#FFFFFF" stroke="#0086CE" stroke-width="0.8" stroke-miterlimit="10" d="M42.794,35.027
			c0.438-0.628,1.907-1.236,2.568-0.689c0.558,0.457,0.145,1.445-0.155,1.975c-0.429,0.754-1.531,1.27-2.369,1.242"/>
		<path fill="#040000" stroke="#0086CE" stroke-width="0.8" stroke-miterlimit="10" d="M44.375,33.826
			c-0.717,0.1-1.512,0.535-1.848,1.02l0.527,0.366c0.207-0.296,0.803-0.665,1.405-0.748c0.304-0.043,0.551,0,0.696,0.123
			c0.33,0.27,0.08,1.014-0.231,1.567c-0.38,0.672-1.383,1.102-2.079,1.078l-0.021,0.644c0.882,0.026,2.146-0.503,2.657-1.404
			c0.604-1.063,0.635-1.933,0.082-2.383C45.276,33.848,44.863,33.758,44.375,33.826z"/>
		<path fill="#040000" stroke="#0086CE" stroke-width="0.8" stroke-miterlimit="10" d="M43.34,35.479
			c-0.099,0.147-0.06,0.347,0.091,0.445c0.147,0.098,0.347,0.056,0.444-0.093c0.152-0.234,0.285-0.354,0.376-0.412
			c-0.035,0.134-0.148,0.334-0.239,0.375c-0.118,0.055-0.19,0.173-0.19,0.296c0,0.043,0.011,0.087,0.026,0.128
			c0.072,0.161,0.256,0.236,0.417,0.167c0.307-0.132,0.608-0.578,0.647-0.956c0.024-0.255-0.064-0.475-0.252-0.604l-0.449-0.096
			C43.853,34.8,43.54,35.176,43.34,35.479z"/>
	</g>
	<path fill="#FFFFFF" stroke="#19AD91" stroke-width="0.8" stroke-miterlimit="10" d="M43.702,41.919
		c0,0.946-0.769,1.713-1.715,1.713H31.658c-0.946,0-1.714-0.767-1.714-1.713V29.59c0-0.946,0.768-1.711,1.714-1.711h10.329
		c0.946,0,1.715,0.765,1.715,1.711V41.919z"/>
	<path fill="#040000" stroke="#0086CE" stroke-width="0.8" stroke-miterlimit="10" d="M31.658,27.557
		c-1.12,0-2.034,0.912-2.034,2.033v12.329c0,1.12,0.914,2.034,2.034,2.034h10.329c1.121,0,2.034-0.914,2.034-2.034V29.59
		c0-1.121-0.913-2.033-2.034-2.033H31.658z M30.267,41.919V29.59c0-0.768,0.624-1.391,1.393-1.391h10.329
		c0.77,0,1.393,0.623,1.393,1.391v12.329c0,0.768-0.623,1.392-1.393,1.392H31.659C30.891,43.311,30.267,42.687,30.267,41.919z"/>
	<g>
		
			<ellipse fill="none" stroke="#0086CE" stroke-width="0.8" stroke-miterlimit="10" cx="33.328" cy="34.728" rx="0.757" ry="0.854"/>
		
			<ellipse fill="none" stroke="#0086CE" stroke-width="0.8" stroke-miterlimit="10" cx="40.233" cy="34.728" rx="0.759" ry="0.854"/>
	</g>
	<path fill="#0086CE" d="M36.303,37.357l0.643-0.01c-0.01-0.566,0.002-2.498,0.537-3.561l-0.573-0.289
		C36.325,34.66,36.29,36.584,36.303,37.357z"/>
	<path fill="#0086CE" d="M36.664,37.009c-0.339,0.08-0.564,0.224-0.668,0.427l0.564,0.301c0.149-0.175,1.032-0.199,1.285-0.082
		c-0.31,0.147-1.104,0.246-1.308,0.189l-0.177,0.619c0.337,0.093,1.885,0.011,2.17-0.576c0.059-0.12,0.149-0.434-0.27-0.741
		C37.954,36.916,37.17,36.889,36.664,37.009z"/>
	<g>
		<path fill="#FFFFFF" stroke="#0086CE" stroke-width="0.8" stroke-miterlimit="10" d="M10.038,34.928
			c-0.486-0.701-2.128-1.38-2.867-0.771c-0.621,0.51-0.159,1.612,0.176,2.203c0.475,0.84,1.708,1.414,2.646,1.385"/>
		<path fill="#040000" stroke="#0086CE" stroke-width="0.8" stroke-miterlimit="10" d="M6.966,33.908
			c-0.853,0.697-0.214,2.06,0.101,2.609C7.63,37.513,9.027,38.096,10,38.066l-0.021-0.644c-0.789,0.024-1.923-0.46-2.354-1.224
			c-0.129-0.229-0.75-1.388-0.252-1.795c0.223-0.184,0.563-0.182,0.809-0.146c0.687,0.095,1.357,0.515,1.591,0.851l0.527-0.364
			c-0.367-0.529-1.239-1.013-2.029-1.123C7.734,33.549,7.284,33.646,6.966,33.908z"/>
		<path fill="#040000" stroke="#0086CE" stroke-width="0.8" stroke-miterlimit="10" d="M7.976,34.733
			c-0.199,0.14-0.293,0.366-0.266,0.64c0.043,0.41,0.37,0.896,0.7,1.037c0.161,0.067,0.353-0.008,0.422-0.17
			c0.018-0.043,0.024-0.086,0.024-0.127c0-0.125-0.071-0.244-0.193-0.296c-0.128-0.056-0.319-0.383-0.319-0.528
			c0-0.004,0.002-0.008,0.003-0.01c0.084,0.021,0.287,0.185,0.515,0.526c0.101,0.147,0.3,0.188,0.446,0.092
			c0.148-0.1,0.188-0.298,0.09-0.446c-0.22-0.332-0.563-0.744-0.946-0.814L7.976,34.733z"/>
	</g>
	<g>
		<path fill="#FFFFFF" stroke="#0086CE" stroke-width="0.8" stroke-miterlimit="10" d="M23.57,34.928
			c0.487-0.701,2.127-1.38,2.867-0.771c0.621,0.51,0.159,1.612-0.175,2.203c-0.476,0.84-1.708,1.414-2.644,1.385"/>
		<path fill="#040000" stroke="#0086CE" stroke-width="0.8" stroke-miterlimit="10" d="M25.338,33.621
			c-0.79,0.11-1.662,0.593-2.029,1.123l0.525,0.364c0.231-0.336,0.908-0.756,1.592-0.852c0.246-0.034,0.586-0.036,0.809,0.146
			c0.388,0.317,0.106,1.166-0.251,1.795c-0.432,0.765-1.563,1.248-2.354,1.225l-0.021,0.644c0.974,0.029,2.37-0.554,2.936-1.549
			c0.313-0.552,0.949-1.911,0.1-2.608C26.325,33.646,25.874,33.549,25.338,33.621z"/>
		<path fill="#040000" stroke="#0086CE" stroke-width="0.8" stroke-miterlimit="10" d="M24.21,35.451
			c-0.099,0.148-0.059,0.35,0.091,0.446c0.146,0.097,0.348,0.056,0.445-0.092c0.232-0.354,0.438-0.508,0.515-0.526
			c0.001,0.002,0.002,0.006,0.002,0.01c0,0.146-0.19,0.475-0.318,0.528c-0.122,0.052-0.193,0.171-0.193,0.296
			c0,0.041,0.009,0.084,0.024,0.127c0.07,0.162,0.26,0.237,0.421,0.17c0.331-0.144,0.659-0.627,0.701-1.037
			c0.028-0.272-0.064-0.5-0.266-0.64l-0.474-0.099C24.771,34.707,24.428,35.119,24.21,35.451z"/>
	</g>
	<path fill="#FFFFFF" stroke="#0086CE" stroke-width="0.8" stroke-miterlimit="10" d="M24.465,37.875c0,3.723-3.385,6.74-7.563,6.74
		l0,0c-4.175,0-7.561-3.02-7.561-6.74V33.41c0-3.725,3.386-6.74,7.561-6.74l0,0c4.178,0,7.563,3.018,7.563,6.74V37.875z"/>
	<path fill="#040000" stroke="#0086CE" stroke-width="0.8" stroke-miterlimit="10" d="M9.022,33.41v4.465
		c0,3.896,3.535,7.062,7.882,7.062c4.349,0,7.884-3.166,7.884-7.062V33.41c0-3.896-3.535-7.063-7.884-7.063
		C12.558,26.348,9.022,29.517,9.022,33.41z M9.667,37.875V33.41c0-3.539,3.247-6.419,7.236-6.419c3.992,0,7.239,2.88,7.239,6.419
		v4.465c0,3.539-3.247,6.42-7.239,6.42C12.914,44.295,9.667,41.414,9.667,37.875z"/>
	<path fill="#0086CE" d="M16.962,36.513l0.614-0.19c-0.11-0.354-0.088-0.724,0.069-1.035l-0.575-0.289
		C16.842,35.46,16.803,35.998,16.962,36.513z"/>
	<path fill="#0086CE" d="M16.687,36.215l0.256,0.587c0.321-0.14,0.726-0.243,1.055-0.238c-0.107,0.212-0.251,0.403-0.51,0.447
		l0.111,0.634c0.564-0.099,0.978-0.54,1.161-1.243l0.07-0.271l-0.264-0.105C18.019,35.799,17.236,35.975,16.687,36.215z"/>
	<ellipse fill="none" stroke="#0086CE" stroke-width="0.8" stroke-miterlimit="10" cx="13.013" cy="34.593" rx="0.844" ry="0.955"/>
	<ellipse fill="none" stroke="#0086CE" stroke-width="0.8" stroke-miterlimit="10" cx="20.716" cy="34.593" rx="0.845" ry="0.955"/>
	<path fill="#FFFFFF" stroke="#0086CE" stroke-width="0.8" stroke-miterlimit="10" d="M11.658,24.323
		c-1.946-0.943-3.025,1.5-2.428,3.085c-1.939-0.162-3.518,2.287-1.747,3.659c0.25,0.192-1.207,2.479,0.523,3.017
		c2.026,0.628,1.401-1.656,1.904-2.492c0.263-0.438,1.093-0.412,1.455-0.926c0.327-0.467,0.354-1.188,0.313-1.729
		c1.138-0.104,2.134-0.582,2.442-1.76c1.303,0.771,2.208,0.521,3.338-0.371c0.548,0.834,1.862,0.937,2.666,0.517
		c-1.027,1.563,1.128,2.412,2.396,2.258c-0.76,1.052,0.264,2.309,1.479,2.148c-0.235,0.416-0.444,1.356-0.052,1.754
		c1.418,1.438,4.051-1.508,2.035-2.277c1.22-0.944,1.056-3.231-0.306-3.938c0.937-1.907-0.881-3.13-2.638-3.087
		c0.416-0.01-1.342-2.173-1.868-2.322c-1.063-0.303-2.131,0.117-2.775,1.086c-0.451-2.683-4.328-1.357-3.646-0.327
		C13.543,20.788,11.155,22.47,11.658,24.323z"/>
	<path fill="none" stroke="#0086CE" stroke-width="0.8" stroke-miterlimit="10" d="M14.514,21.88
		c-0.004,0.004-0.002,0.01-0.004,0.012c-0.615-0.473-1.326-0.454-1.865-0.209c-0.73,0.332-1.379,1.145-1.379,2.124
		c0,0.032,0.013,0.065,0.014,0.098c-0.615-0.145-1.199-0.06-1.668,0.368c-0.554,0.504-0.864,1.35-0.864,2.186
		c0,0.225,0.064,0.437,0.111,0.651c-1.001,0.08-1.935,0.729-2.31,1.688c-0.106,0.272-0.158,0.547-0.158,0.813
		c0,0.599,0.291,1.146,0.791,1.588c-0.019,0.064-0.097,0.368-0.097,0.368C6.98,31.91,6.83,32.414,6.83,32.91
		c0,0.612,0.23,1.216,1.083,1.479c0.583,0.182,1.03,0.162,1.373-0.059c0.523-0.338,0.612-1.043,0.691-1.664
		c0.045-0.354,0.09-0.717,0.208-0.91c0.072-0.121,0.284-0.204,0.511-0.293c0.323-0.128,0.69-0.271,0.933-0.613
		c0.306-0.432,0.388-1.021,0.388-1.535c0-0.043-0.003-0.078-0.004-0.119c1.137-0.179,1.908-0.724,2.271-1.596
		c1.229,0.602,2.173,0.309,3.12-0.38c0.542,0.563,1.406,0.747,2.175,0.604c-0.02,0.097-0.045,0.191-0.045,0.276
		c0,0.293,0.097,0.531,0.207,0.712c0.42,0.674,1.4,1.037,2.271,1.084c-0.043,0.147-0.073,0.297-0.073,0.447
		c0,0.275,0.076,0.555,0.229,0.813c0.29,0.485,0.816,0.765,1.382,0.84c-0.08,0.246-0.146,0.521-0.146,0.805
		c0,0.343,0.088,0.675,0.314,0.904c0.494,0.5,1.175,0.621,1.869,0.33c0.813-0.342,1.449-1.18,1.449-1.91
		c0-0.008,0-0.016-0.002-0.021c-0.005-0.258-0.112-0.683-0.582-1.001c0.396-0.466,0.673-1.063,0.673-1.747
		c0-0.094-0.005-0.188-0.015-0.279c-0.073-0.824-0.471-1.515-1.053-1.928c0.124-0.321,0.195-0.621,0.195-0.885
		c0-0.46-0.154-0.826-0.323-1.091c-0.48-0.754-1.473-1.231-2.573-1.293c-0.291-0.744-1.604-2.193-2.099-2.333
		c-1.006-0.286-2.002,0.002-2.729,0.738c-0.268-0.617-0.763-1.032-1.444-1.185C16.144,20.895,14.94,21.258,14.514,21.88z
		 M9.258,27.089c-0.01-0.001-0.021-0.001-0.026-0.001C9.239,27.088,9.249,27.088,9.258,27.089z M8.91,27.408L8.91,27.408
		c0.013,0.037,0.007,0.078,0.021,0.113C8.917,27.486,8.91,27.447,8.91,27.408z M15.043,22.244c0.223-0.323,1.096-0.693,1.908-0.515
		c0.633,0.141,1.016,0.566,1.133,1.267c0.021,0.13,0.121,0.233,0.25,0.261c0.128,0.028,0.262-0.026,0.334-0.137
		c0.565-0.852,1.495-1.218,2.421-0.955c0.322,0.104,1.531,1.502,1.671,1.921c-0.011,0.031-0.037,0.057-0.037,0.093
		c0,0.003,0,0.005,0,0.008c0.004,0.178,0.15,0.317,0.328,0.314h0.001c0.995-0.025,1.938,0.386,2.343,1.021
		c0.295,0.459,0.293,0.999-0.002,1.602c-0.076,0.158-0.015,0.347,0.143,0.428c0.523,0.274,0.879,0.864,0.941,1.582
		c0.067,0.739-0.195,1.437-0.687,1.817c-0.094,0.069-0.14,0.187-0.121,0.301c0.018,0.115,0.095,0.212,0.204,0.252
		c0.348,0.135,0.519,0.335,0.522,0.611c0.008,0.479-0.476,1.088-1.054,1.33c-0.316,0.133-0.774,0.206-1.163-0.188
		c-0.237-0.24-0.108-0.999,0.101-1.37c0.063-0.105,0.057-0.237-0.014-0.337c-0.068-0.103-0.186-0.156-0.308-0.142
		c-0.495,0.064-0.991-0.168-1.236-0.58c-0.119-0.198-0.271-0.604,0.063-1.063c0.074-0.104,0.08-0.243,0.016-0.354
		c-0.063-0.108-0.188-0.17-0.315-0.153c-0.75,0.091-1.848-0.224-2.193-0.785c-0.179-0.28-0.144-0.603,0.104-0.979
		c0.079-0.121,0.067-0.281-0.031-0.392c-0.098-0.109-0.258-0.138-0.387-0.069c-0.683,0.357-1.813,0.257-2.247-0.406
		c-0.05-0.075-0.13-0.125-0.218-0.141c-0.089-0.015-0.18,0.009-0.251,0.065c-1.141,0.899-1.891,0.985-2.974,0.346
		c-0.087-0.052-0.193-0.06-0.286-0.021c-0.094,0.039-0.164,0.118-0.188,0.216c-0.236,0.901-0.964,1.414-2.161,1.521
		c-0.176,0.019-0.305,0.17-0.291,0.348c0.053,0.671-0.04,1.21-0.257,1.518c-0.13,0.186-0.379,0.283-0.642,0.387
		c-0.315,0.125-0.645,0.254-0.826,0.561c-0.188,0.313-0.24,0.725-0.295,1.162c-0.064,0.506-0.131,1.029-0.403,1.205
		c-0.169,0.109-0.45,0.103-0.834-0.016c-0.781-0.242-0.745-0.898-0.402-2.021c0.136-0.452,0.227-0.75-0.021-0.941
		c-0.6-0.464-0.793-1.113-0.532-1.781c0.276-0.711,1.071-1.386,2.058-1.304c0.108,0.009,0.217-0.039,0.281-0.127
		c0.066-0.088,0.083-0.203,0.047-0.307c-0.323-0.854-0.096-1.997,0.513-2.549c0.399-0.367,0.896-0.413,1.472-0.134
		c0.113,0.054,0.249,0.038,0.345-0.042c0.1-0.08,0.141-0.209,0.105-0.33c-0.231-0.862,0.296-1.681,0.943-1.972
		c0.281-0.129,1.007-0.336,1.575,0.522l-0.001-0.003l0.001,0.003c0.101,0.148,0.3,0.189,0.445,0.091
		c0.093-0.063,0.146-0.164,0.146-0.268c0-0.062-0.019-0.123-0.055-0.179l0,0l0,0C15,22.401,14.968,22.354,15.043,22.244z
		 M22.563,29.897c-0.015,0.001-0.024,0.003-0.04,0.003C22.538,29.897,22.551,29.898,22.563,29.897z M24.043,32.047
		c-0.016,0.002-0.027,0.004-0.041,0.004C24.016,32.048,24.029,32.049,24.043,32.047z"/>
	<path fill="#FFFFFF" stroke="#19AD91" stroke-width="0.8" stroke-miterlimit="10" d="M29.167,34.026
		c-1.417-2.091-3.133-9.492,1.319-8.624c-0.457-0.088,0.986-2.186,1.179-2.337c0.716-0.566,2.048-1.046,2.93-1.188
		c1.841-0.302,2.703,0.361,4.446,0.958c1.729,0.59,3.307,0.639,5.08,0.831c4.935,0.532,1.205,8.087,0.526,10.833
		c-1.339-0.354-1.302-0.24-1.564-1.576c-0.19-0.962-0.06-1.979-0.745-2.783c-0.938-1.1-2.854-1.3-4.191-1.366
		c-1.235-0.062-2.592,0.193-3.791,0.083c-0.331-0.029-2.641-0.718-2.335-1.374c-0.396,0.854-0.303,1.784-0.768,2.638
		c-0.343,0.629-0.931,1.061-1.146,1.758c-0.222,0.722,0.066,1.814-0.401,2.422"/>
	<path fill="#040000" stroke="#0086CE" stroke-width="0.8" stroke-miterlimit="10" d="M34.543,21.559
		c-0.912,0.148-2.301,0.641-3.077,1.256c-0.158,0.126-1.141,1.454-1.342,2.229c-1.229-0.106-1.905,0.434-2.248,0.954
		c-1.316,1.993-0.122,6.517,1.022,8.208c0.103,0.147,0.302,0.188,0.447,0.089c0.069-0.05,0.089-0.128,0.107-0.203
		c-0.003,0.002-0.002,0.008-0.005,0.009c-0.047,0.061-0.066,0.128-0.066,0.196c0,0.097,0.044,0.188,0.125,0.255
		c0.141,0.107,0.343,0.083,0.451-0.059c0.345-0.446,0.354-1.041,0.367-1.614c0.006-0.341,0.013-0.662,0.089-0.909
		c0.107-0.354,0.343-0.646,0.589-0.951l0.53-0.747c0.271-0.497,0.365-1.007,0.457-1.498c0.03-0.166,0.095-0.313,0.132-0.473
		c0.696,0.521,2.009,0.856,2.201,0.875c0.667,0.062,1.38,0.015,2.066-0.032l1.736-0.05c1.296,0.063,3.118,0.263,3.963,1.254
		c0.429,0.503,0.494,1.127,0.562,1.788l0.114,0.848c0.271,1.357,0.354,1.454,1.525,1.756l0.272,0.07
		c0.165,0.042,0.343-0.07,0.396-0.232l0.602-1.902c0.885-2.594,2.099-6.147,0.877-8.061c-0.463-0.727-1.229-1.152-2.284-1.267
		l-1.002-0.099c-1.359-0.129-2.646-0.25-4.009-0.716l-1.096-0.414C36.927,21.668,36.04,21.313,34.543,21.559z M31.875,23.31
		c0.658-0.521,1.93-0.979,2.771-1.116c1.318-0.218,2.093,0.091,3.165,0.519l1.125,0.425c1.437,0.491,2.757,0.616,4.156,0.748
		l0.993,0.098c0.858,0.093,1.454,0.412,1.812,0.974c0.3,0.471,0.422,1.082,0.422,1.773c0,1.733-0.762,3.969-1.363,5.734
		c0,0-0.38,1.205-0.521,1.645c-0.827-0.212-0.834-0.221-1.027-1.205c-0.012-0.047-0.114-0.834-0.114-0.834
		c-0.074-0.729-0.151-1.484-0.71-2.141c-1.009-1.182-3.006-1.409-4.422-1.479l-1.813,0.051c-0.694,0.046-1.35,0.09-1.966,0.033
		c-0.393-0.037-1.987-0.609-2.069-0.938c0.018-0.038,0.026-0.078,0.026-0.117c0-0.122-0.069-0.235-0.188-0.292
		c-0.158-0.074-0.351-0.005-0.427,0.156v0.001c-0.201,0.437-0.285,0.878-0.365,1.31c-0.087,0.463-0.169,0.898-0.392,1.308
		l-0.466,0.653c-0.275,0.34-0.562,0.689-0.704,1.164c-0.104,0.334-0.11,0.715-0.118,1.086c-0.007,0.432-0.033,0.858-0.2,1.145
		c-0.003-0.057-0.017-0.112-0.05-0.163c-0.711-1.049-1.494-3.488-1.494-5.44c0-0.813,0.139-1.543,0.475-2.054
		c0.402-0.612,1.063-0.819,2.015-0.634c-0.115-0.021-0.188-0.112-0.225-0.217c0.062,0.09,0.11,0.195,0.225,0.217l0,0
		c0.174,0.034,0.344-0.079,0.377-0.254c0.004-0.021,0.006-0.041,0.006-0.062c0-0.072-0.024-0.138-0.066-0.192
		C30.802,24.825,31.675,23.5,31.875,23.31z"/>
	<path fill="#0086CE" d="M14.875,40.074c-0.154,0.09-0.206,0.285-0.118,0.438c0.284,0.485,0.913,0.832,1.771,0.976
		c0.916,0.151,2.122,0.061,2.756-0.49c0.136-0.114,0.146-0.317,0.029-0.451c-0.113-0.135-0.315-0.148-0.452-0.032
		c-0.391,0.341-1.349,0.486-2.228,0.342c-0.648-0.106-1.145-0.354-1.322-0.664C15.224,40.037,15.027,39.986,14.875,40.074z"/>
	<path fill="#0086CE" d="M33.361,39.111c-0.2,0.295,0.084,2.131,0.554,2.539c1.095,0.963,3.524,1.008,4.823,0.734
		c0.563-0.118,1.417-0.298,1.867-0.854c0.131-0.162,0.664-1.586,0.384-2.067c-0.095-0.164-0.27-0.246-0.455-0.216l-1.006,0.175
		c-1.971,0.36-3.674,0.669-5.741-0.418l-0.253-0.134L33.361,39.111z M34.335,41.168c-0.186-0.162-0.324-0.894-0.377-1.383
		c2.059,0.91,3.826,0.606,5.686,0.271c0,0,0.521-0.091,0.782-0.137c-0.022,0.344-0.234,1.063-0.329,1.224
		c-0.297,0.364-1.015,0.514-1.49,0.612C37.42,42.005,35.215,41.938,34.335,41.168z M40.529,39.248h0.005H40.529z"/>
	<path fill="#0086CE" d="M15.673,37.604c-1.035,0.851-1.751,1.563-2.248,2.25c-0.052,0.071-0.036,0.171,0.036,0.224
		c0.069,0.055,0.172,0.037,0.224-0.034c0.481-0.661,1.179-1.357,2.192-2.189c0.066-0.057,0.079-0.157,0.021-0.228
		C15.844,37.558,15.743,37.547,15.673,37.604z"/>
	<path fill="#0086CE" d="M18.764,37.474c-0.066,0.06-0.075,0.156-0.018,0.222l0.487,0.545c0.638,0.687,1.511,1.621,1.431,2.362
		c-0.014,0.09,0.054,0.169,0.141,0.179c0.088,0.01,0.168-0.054,0.178-0.143c0.099-0.889-0.795-1.848-1.513-2.618l-0.474-0.528
		C18.936,37.426,18.83,37.414,18.764,37.474z"/>
	<path fill="#0086CE" d="M34.44,37.774c-0.788,0.218-1.251,0.763-1.737,1.339l-0.225,0.26c-0.059,0.065-0.052,0.168,0.018,0.228
		c0.064,0.06,0.168,0.052,0.226-0.016l0.226-0.263c0.479-0.563,0.889-1.047,1.58-1.236c0.086-0.023,0.138-0.111,0.112-0.197
		C34.613,37.801,34.525,37.751,34.44,37.774z"/>
	<path fill="#0086CE" d="M39.103,37.899c-0.017,0.089,0.042,0.173,0.129,0.188c0.622,0.113,2.111,1.316,2.09,1.922
		c-0.004,0.09,0.065,0.164,0.154,0.168c0.089,0.002,0.164-0.066,0.167-0.156c0.029-0.84-1.649-2.119-2.353-2.248
		C39.203,37.755,39.12,37.813,39.103,37.899z"/>
	<g>
		<path fill="#0086CE" d="M11.101,34.642c-0.089,0-0.161,0.072-0.161,0.16c0,0.09,0.072,0.162,0.161,0.162h0.425
			c0.089,0,0.16-0.072,0.16-0.162c0-0.088-0.071-0.16-0.16-0.16H11.101z"/>
		<path fill="#0086CE" d="M11.505,35.379l-0.507,0.06c-0.088,0.011-0.151,0.091-0.144,0.179c0.013,0.088,0.09,0.151,0.18,0.143
			l0.509-0.063c0.087-0.01,0.149-0.091,0.141-0.178C11.674,35.432,11.594,35.367,11.505,35.379z"/>
	</g>
	<g>
		<path fill="#0086CE" d="M22.08,34.642c-0.092,0-0.161,0.072-0.161,0.16c0,0.09,0.069,0.162,0.161,0.162h0.426
			c0.089,0,0.16-0.072,0.16-0.162c0-0.088-0.071-0.16-0.16-0.16H22.08z"/>
		<path fill="#0086CE" d="M21.921,35.52c-0.011,0.087,0.053,0.168,0.141,0.178l0.508,0.063c0.09,0.011,0.167-0.055,0.18-0.143
			c0.011-0.088-0.055-0.168-0.144-0.179l-0.507-0.06C22.012,35.367,21.932,35.432,21.921,35.52z"/>
	</g>
	<g>
		<path fill="#0086CE" d="M31.522,34.642c-0.088,0-0.16,0.072-0.16,0.16c0,0.09,0.072,0.162,0.16,0.162h0.426
			c0.091,0,0.161-0.072,0.161-0.162c0-0.088-0.07-0.16-0.161-0.16H31.522z"/>
		<path fill="#0086CE" d="M31.928,35.379l-0.508,0.06c-0.087,0.011-0.15,0.091-0.142,0.179c0.01,0.088,0.093,0.151,0.18,0.143
			l0.507-0.063c0.088-0.01,0.151-0.091,0.141-0.178C32.096,35.432,32.016,35.367,31.928,35.379z"/>
	</g>
	<g>
		<path fill="#0086CE" d="M41.861,34.642c-0.088,0-0.158,0.072-0.158,0.16c0,0.09,0.07,0.162,0.158,0.162h0.428
			c0.089,0,0.158-0.072,0.158-0.162c0-0.088-0.069-0.16-0.158-0.16H41.861z"/>
		<path fill="#0086CE" d="M41.704,35.52c-0.012,0.087,0.053,0.168,0.142,0.178l0.507,0.063c0.088,0.011,0.169-0.055,0.178-0.143
			c0.013-0.088-0.053-0.168-0.14-0.179l-0.507-0.06C41.795,35.367,41.714,35.432,41.704,35.52z"/>
	</g>
	<path fill="#FFFFFF" stroke="#0086CE" stroke-width="0.8" stroke-miterlimit="10" d="M26.655,25.284
		c-0.006-2.869,0.034-6.592-1.049-9.167c0.605-0.095,1.328-0.22,1.935-0.246c0.406,1.209,0.762,10.936-0.886,8.983"/>
	<path fill="#040000" stroke="#0086CE" stroke-width="0.8" stroke-miterlimit="10" d="M27.525,15.55l-1.713,0.209l-0.66,0.104
		l0.158,0.377c1.016,2.41,1.021,5.89,1.023,8.686v0.358c0,0,0.169,0,0.336,0c0.293,0.196,0.538,0.148,0.672,0.073
		c1.333-0.752,0.811-8.676,0.502-9.59L27.76,15.52L27.525,15.55z M27.286,16.224c0.164,0.745,0.271,2.448,0.271,4.186
		c0,2.057-0.146,4.075-0.512,4.365c-0.017-0.016-0.036-0.032-0.07-0.063c-0.004-2.682-0.058-5.896-0.955-8.333
		C26.172,16.361,26.939,16.267,27.286,16.224z"/>
	<path fill="#FFFFFF" stroke="#0086CE" stroke-width="0.8" stroke-miterlimit="10" d="M26.229,16.286
		c1.098-2.498-1.242-6.19-3.591-6.913c-3.13-0.961-7.041-0.73-10.306-0.551c-0.604,6.24,9.551,9.487,14.129,6.812
		c0.096-0.184-0.146,0.154-0.232,0.224"/>
	<path fill="#040000" stroke="#0086CE" stroke-width="0.8" stroke-miterlimit="10" d="M12.423,8.496l-0.385,0.021l-0.025,0.274
		c-0.229,2.37,1,4.542,3.46,6.114c3.217,2.058,7.688,2.564,10.551,1.291c0.129,0.057,0.498,0.219,0.498,0.219
		c0.075-0.172,0.124-0.358,0.172-0.544c0.099-0.058,0.375-0.22,0.375-0.22s-0.172-0.143-0.291-0.241
		c0.023-0.174,0.053-0.346,0.053-0.526c0-0.743-0.188-1.545-0.561-2.355c-0.769-1.679-2.156-3.037-3.537-3.462
		C19.583,8.099,15.612,8.32,12.423,8.496z M22.543,9.681c1.193,0.367,2.457,1.619,3.144,3.116c0.331,0.725,0.499,1.436,0.499,2.087
		c0,0.209-0.08,0.385-0.114,0.58c-2.612,1.359-7.134,0.895-10.252-1.1c-2.07-1.326-3.189-3.095-3.189-5.023
		c0-0.071,0.008-0.141,0.011-0.213C15.748,8.957,19.56,8.765,22.543,9.681z"/>
	<path fill="#FFFFFF" stroke="#19AD91" stroke-width="0.8" stroke-miterlimit="10" d="M26.655,15.43
		c-0.142,0.144-0.283,0.285-0.427,0.428"/>
	<polygon fill="#040000" stroke="#19AD91" stroke-width="0.8" stroke-miterlimit="10" points="26.215,15.417 26,15.631 
		26.456,16.085 26.883,15.657 26.428,15.202 	"/>
	<path fill="#FFFFFF" stroke="#0086CE" stroke-width="0.8" stroke-miterlimit="10" d="M33.322,10.062
		c1.984-0.514,5.854-0.662,7.719,0.318c2.335,1.229,0.082,3.718-1.145,4.76c-2.189,1.858-4.748,2.386-7.557,1.997
		c-1.822-0.251-4.614-0.173-6.152-1.31c0.918-0.746,1.227-2.638,2.408-3.518C29.967,11.291,31.668,10.49,33.322,10.062z"/>
	<path fill="#040000" stroke="#0086CE" stroke-width="0.8" stroke-miterlimit="10" d="M33.243,9.75L33.243,9.75
		c-1.724,0.446-3.44,1.263-4.84,2.302c-0.697,0.521-1.111,1.349-1.479,2.08c-0.294,0.589-0.572,1.146-0.941,1.446l-0.319,0.26
		l0.333,0.247c1.246,0.921,3.177,1.084,4.882,1.228l1.418,0.143c3.104,0.43,5.659-0.247,7.808-2.07
		c0.573-0.489,2.436-2.2,2.264-3.758c-0.07-0.646-0.469-1.158-1.178-1.531C39.22,9.06,35.239,9.233,33.243,9.75z M40.89,10.664
		c0.517,0.272,0.79,0.609,0.838,1.032c0.107,0.989-1.031,2.341-2.04,3.198c-2.001,1.698-4.39,2.327-7.303,1.924l-1.452-0.146
		c-1.49-0.126-3.136-0.29-4.25-0.944c0.313-0.37,0.571-0.812,0.818-1.309c0.35-0.701,0.71-1.423,1.286-1.854
		c1.332-0.99,2.971-1.77,4.613-2.195l0,0C35.344,9.871,39.131,9.74,40.89,10.664z"/>
	<path fill="#040000" stroke="#0086CE" stroke-width="0.8" stroke-miterlimit="10" d="M17.859,11.704l2.184,0.746
		c2.356,0.749,4.797,1.523,6.042,3.542l0.547-0.337c-1.371-2.223-3.925-3.033-6.396-3.816l-2.142-0.732L17.859,11.704z"/>
	<path fill="#040000" stroke="#0086CE" stroke-width="0.8" stroke-miterlimit="10" d="M33.852,12.854
		c-0.951,0.115-1.936,0.232-2.891,0.563c-0.764,0.262-1.465,0.678-2.145,1.08c-0.845,0.501-1.642,0.974-2.527,1.165l0.135,0.628
		c0.99-0.214,1.871-0.735,2.722-1.239c0.651-0.387,1.325-0.786,2.024-1.027c0.891-0.306,1.839-0.421,2.758-0.529
		c0.956-0.116,1.945-0.233,2.896-0.566l-0.212-0.606C35.727,12.63,34.816,12.74,33.852,12.854z"/>
</g>
</svg>
