<?xml version="1.0" encoding="utf-8"?>
<!-- Generator: Adobe Illustrator 16.0.0, SVG Export Plug-In . SVG Version: 6.00 Build 0)  -->
<!DOCTYPE svg PUBLIC "-//W3C//DTD SVG 1.1//EN" "http://www.w3.org/Graphics/SVG/1.1/DTD/svg11.dtd">
<svg version="1.1" id="레이어_1" xmlns="http://www.w3.org/2000/svg" xmlns:xlink="http://www.w3.org/1999/xlink" x="0px"
	 y="0px" width="54px" height="54px" viewBox="0 0 54 54" enable-background="new 0 0 54 54" xml:space="preserve">
<g>
	<g>
		<g>
			<g>
				<g>
					<g>
						<g>
							<path fill="#0085CD" d="M38.1,19.026L34.527,8.62l6.535-2.244l3.574,10.407L38.1,19.026z M36.674,9.669l2.477,7.209
								l3.339-1.146l-2.478-7.21L36.674,9.669z"/>
						</g>
						<g>
							<path fill="#0085CD" d="M17.398,22.602c-1.425,0-2.545-0.706-3.092-1.292l-0.534-0.573l9.777-10.612h12.677v1.691H24.291
								l-8.107,8.8c0.664,0.343,1.799,0.585,3.23-0.446c1.537-1.107,6.038-4.862,6.084-4.9l1.083,1.298
								c-0.187,0.156-4.593,3.832-6.179,4.974C19.325,22.318,18.301,22.602,17.398,22.602z"/>
						</g>
						<g>
							<path fill="#0085CD" d="M32.849,20.83l-5.839-0.637c-0.793-0.085-1.516-0.509-1.98-1.158s-0.63-1.469-0.455-2.25
								c0.313-1.391,1.614-2.328,3.036-2.177l4.992,0.529l-0.178,1.682l-4.993-0.529c-0.558-0.066-1.083,0.313-1.208,0.866
								c-0.07,0.315-0.007,0.633,0.182,0.896c0.188,0.262,0.466,0.425,0.787,0.46l5.466,0.596l6.217-2.136l0.551,1.6L32.849,20.83z"
								/>
						</g>
					</g>
				</g>
			</g>
		</g>
	</g>
	<g>
		<g>
			<g>
				<g>
					<g>
						<g>
							<path fill="#0085CD" d="M12.936,47.625L9.363,37.217l6.537-2.242l3.573,10.406L12.936,47.625z M11.511,38.268l2.477,7.209
								l3.337-1.146l-2.475-7.207L11.511,38.268z"/>
						</g>
						<g>
							<path fill="#0085CD" d="M30.449,43.877H17.772v-1.691h11.936l8.108-8.801c-0.664-0.342-1.799-0.586-3.23,0.445
								c-1.539,1.107-6.039,4.863-6.084,4.9l-1.084-1.297c0.188-0.156,4.593-3.832,6.18-4.975c2.779-2.002,5.202-0.725,6.095,0.23
								l0.534,0.572L30.449,43.877z"/>
						</g>
						<g>
							<path fill="#0085CD" d="M26.688,39.408c-0.098,0-0.198-0.006-0.298-0.016l-4.993-0.529l0.178-1.682l4.993,0.529
								c0.563,0.068,1.083-0.313,1.209-0.867c0.07-0.314,0.007-0.633-0.183-0.895c-0.186-0.262-0.466-0.426-0.787-0.461
								l-5.465-0.596l-6.219,2.135l-0.549-1.6l6.577-2.258l5.839,0.639c0.793,0.084,1.515,0.508,1.98,1.158
								c0.464,0.648,0.629,1.469,0.454,2.248C29.135,38.506,27.987,39.408,26.688,39.408z"/>
						</g>
					</g>
				</g>
			</g>
		</g>
	</g>
	<g>
		<path fill="#0085CD" d="M27,32.098l-4.655-4.656c-0.572-0.574-0.891-1.337-0.891-2.148c0-0.813,0.318-1.575,0.892-2.149
			c0.573-0.573,1.336-0.891,2.147-0.891s1.575,0.317,2.148,0.891L27,23.502l0.357-0.358c0.573-0.573,1.337-0.891,2.148-0.891
			c0.813,0,1.575,0.317,2.149,0.891c0.572,0.574,0.891,1.337,0.891,2.149c0,0.812-0.318,1.574-0.891,2.148l-1.197-1.195
			c0.256-0.255,0.396-0.595,0.396-0.953c0-0.36-0.14-0.7-0.396-0.954c-0.508-0.508-1.396-0.508-1.904,0L27,25.893l-1.555-1.554
			c-0.508-0.508-1.397-0.508-1.904,0c-0.255,0.254-0.396,0.594-0.396,0.954c0,0.358,0.141,0.698,0.395,0.953L27,29.705l2.018-2.018
			l1.195,1.196L27,32.098z"/>
	</g>
</g>
</svg>
