<?xml version="1.0" encoding="utf-8"?>
<!-- Generator: Adobe Illustrator 23.1.0, SVG Export Plug-In . SVG Version: 6.00 Build 0)  -->
<svg version="1.1" id="ico_x5F_a4" xmlns="http://www.w3.org/2000/svg" xmlns:xlink="http://www.w3.org/1999/xlink" x="0px" y="0px"
	 viewBox="0 0 54 54" style="enable-background:new 0 0 54 54;" xml:space="preserve">
<style type="text/css">
	.st0{fill:#0085CD;}
</style>
<g>
	<path class="st0" d="M28.7,13.8l1.8-1.8c0.2-0.2,0.4-0.6,0.4-0.9c0-0.3-0.1-0.6-0.4-0.9c0,0,0,0,0,0c-0.5-0.5-1.3-0.4-1.8,0
		l-0.6,0.6c-0.2,0.2-0.5,0.2-0.7,0l-0.6-0.6c-0.5-0.5-1.3-0.5-1.8,0c-0.2,0.2-0.4,0.5-0.4,0.9c0,0.4,0.1,0.7,0.4,1l1.8,1.8
		C27.4,14.3,28.2,14.3,28.7,13.8z"/>
	<path class="st0" d="M34.5,14.1c-0.4-0.4-1-0.3-1.4,0l-1.7,1.7c-0.4,0.4-0.4,1,0,1.4c0.4,0.4,1,0.4,1.4,0l1.8-1.8
		C34.9,15.1,34.9,14.4,34.5,14.1z"/>
	<path class="st0" d="M23.7,15.8L22,14.1c-0.4-0.4-1-0.4-1.4,0c-0.4,0.4-0.4,1,0,1.4l1.8,1.8c0.4,0.4,1,0.4,1.4,0
		C24.1,16.9,24.1,16.2,23.7,15.8z"/>
	<path class="st0" d="M42.8,28.8C42.8,28.8,42.8,28.8,42.8,28.8c-0.4-0.4-0.8-0.6-1.2-0.7l0.1-0.1c0.5-0.5,0.8-1.1,0.8-1.8
		c0-0.7-0.2-1.5-0.7-2c0,0,0,0-0.1-0.1c-0.4-0.4-0.9-0.7-1.5-0.8c0.1-0.3,0.2-0.7,0.2-1c0-0.7-0.2-1.4-0.7-1.9c0,0,0,0-0.1-0.1
		l-0.2-0.2c-0.5-0.5-1.2-0.8-1.9-0.8c0,0,0,0,0,0c-1,0-1.6,0.4-2.4,1.2L35,20.7c-0.3,0.4-0.3,1,0.1,1.3c0.5,0.5,1.1,0.4,1.5,0
		l0.5-0.5c0.3-0.4,0.9-0.3,1.2,0c0.1,0.1,0.1,0.1,0.1,0.2c0.2,0.4,0.1,1-0.2,1.3l-1,1c-0.4,0.4-0.4,1.1,0,1.6c0,0,0,0,0,0
		c0.4,0.4,1.1,0.4,1.5,0l0.3-0.3c0.3-0.4,0.9-0.3,1.2,0c0.1,0.1,0.1,0.1,0.1,0.2c0.2,0.4,0.1,1-0.2,1.3l-1.7,1.7
		c-0.4,0.4-0.4,1.1,0,1.6c0,0,0,0,0,0c0.4,0.4,1.1,0.4,1.5,0l0,0c0.4-0.4,1-0.4,1.4,0l0,0c0.2,0.2,0.3,0.4,0.3,0.7
		c0,0.2-0.1,0.5-0.3,0.7l-7.6,7.6c-0.4,0.4-0.8,0.8-1.3,1.1c-1.2,0.8-2.6,1.2-3.9,1.3l7.6-7.6c0.5-0.5,0.8-1.2,0.8-2
		c0-0.7-0.3-1.4-0.8-1.9c0,0,0,0,0,0c-0.3-0.3-0.8-0.6-1.2-0.7l0.1-0.1c0.5-0.5,0.8-1.1,0.8-1.8c0-0.7-0.2-1.5-0.7-2
		c0,0,0,0-0.1-0.1c-0.4-0.4-0.9-0.7-1.5-0.8c0.1-0.3,0.2-0.7,0.2-1c0-0.7-0.2-1.4-0.7-1.9c0,0,0,0-0.1-0.1c-0.5-0.5-1.2-0.8-1.9-0.8
		c-0.6,0-1.1,0.2-1.5,0.5c-0.1-0.5-0.3-0.9-0.7-1.2c0,0,0,0-0.1-0.1c-0.5-0.5-1.2-0.8-1.9-0.8c-0.7,0-1.5,0.3-2,0.8L20,25
		c0-0.1,0-0.2-0.1-0.3c-0.1-0.5-0.4-1-0.8-1.4c0,0,0,0,0,0c-0.9-0.9-2.3-0.9-3.2,0l-2.5,2.5c-0.4,0.4-0.7,0.8-1,1.2l-0.1,0.2
		c-1.2,1.7-1.9,3.7-1.9,5.8c0,0.1,0,0.1,0,0.2c0.1,2.5,1.1,4.8,2.8,6.5l1.7,1.7c0.9,0.9,2,1.6,3.2,2.1c1.2,0.5,2.4,0.7,3.6,0.7
		c1.7,0,3.3-0.4,4.7-1.2c0.6,0.1,1.2,0.2,1.8,0.2c1.9,0,3.7-0.5,5.3-1.6c0.6-0.4,1.1-0.8,1.6-1.3l7.6-7.6c0.5-0.5,0.8-1.2,0.8-2
		C43.6,30,43.3,29.4,42.8,28.8z M21.8,42.5c-2,0-4.1-0.8-5.6-2.3l-1.7-1.7c-3-3-3.1-7.7-0.4-10.8l3.1-3.1c0.2-0.2,0.5-0.2,0.7,0l0,0
		c0.5,0.5,0.6,1.4,0,2l-1.3,1.3c-0.4,0.4-0.4,1.1,0,1.6c0,0,0,0,0,0c0.1,0.1,0.3,0.2,0.5,0.3c0.4,0.1,0.8,0,1-0.3l8.4-8.4
		c0.4-0.4,0.9-0.3,1.2,0c0.1,0.1,0.1,0.1,0.1,0.2c0.2,0.4,0.1,1-0.2,1.3L22.2,28c-0.4,0.4-0.4,1.1,0,1.6c0,0,0,0,0,0
		c0.4,0.4,1.1,0.4,1.5,0l7-7c0.3-0.3,0.9-0.3,1.2,0c0.1,0.1,0.1,0.1,0.1,0.2c0.2,0.4,0.1,1-0.2,1.3l-6.8,6.8c-0.4,0.4-0.4,1.1,0,1.6
		c0,0,0,0,0,0c0.4,0.4,1.1,0.4,1.5,0l6.1-6.1c0.3-0.4,0.9-0.3,1.2,0c0.1,0.1,0.1,0.1,0.1,0.2c0.2,0.4,0.1,1-0.2,1.3l-5.4,5.4
		c-0.4,0.4-0.4,1.1,0,1.6c0,0,0,0,0,0c0.4,0.4,1.1,0.4,1.5,0l3.7-3.7c0.4-0.4,1-0.4,1.4,0l0,0c0.2,0.2,0.3,0.4,0.3,0.7
		c0,0.2-0.1,0.5-0.3,0.7l-7.6,7.6c-0.4,0.4-0.8,0.7-1.2,1c0,0-0.1,0-0.1,0.1c-0.7,0.4-1.4,0.8-2.2,1C23.3,42.4,22.6,42.5,21.8,42.5z
		"/>
</g>
</svg>
